<svg width="27" height="27" viewBox="0 0 25 24" fill="none" xmlns="http://www.w3.org/2000/svg">
<path d="M8.74454 14.7189H8.74548C8.74626 14.7189 8.74704 14.7188 8.74778 14.7188H19.3711C19.4984 14.7187 19.6223 14.6773 19.7239 14.6006C19.8256 14.5239 19.8995 14.4162 19.9345 14.2938L22.2782 6.09067C22.3031 6.00348 22.3075 5.91171 22.2909 5.82256C22.2743 5.73341 22.2373 5.64933 22.1827 5.57692C22.1281 5.5045 22.0574 5.44576 21.9762 5.4053C21.895 5.36484 21.8056 5.34377 21.7149 5.34375H7.39325L6.97442 3.45883C6.94548 3.32868 6.87302 3.2123 6.76902 3.12888C6.66501 3.04546 6.53567 3 6.40235 3H2.88672C2.56309 3 2.30078 3.26231 2.30078 3.58594C2.30078 3.90957 2.56309 4.17188 2.88672 4.17188H5.93239C6.00653 4.50586 7.93677 13.1921 8.04786 13.6918C7.42516 13.9625 6.98829 14.5835 6.98829 15.3047C6.98829 16.2739 7.77688 17.0625 8.7461 17.0625H19.3711C19.6948 17.0625 19.9571 16.8002 19.9571 16.4766C19.9571 16.153 19.6948 15.8906 19.3711 15.8906H8.7461C8.42306 15.8906 8.16017 15.6278 8.16017 15.3047C8.16017 14.9821 8.42216 14.7197 8.74454 14.7189ZM20.9381 6.51563L18.9291 13.5469H9.2161L7.6536 6.51563H20.9381ZM8.16017 18.8203C8.16017 19.7896 8.94876 20.5782 9.91798 20.5782C10.8872 20.5782 11.6758 19.7896 11.6758 18.8203C11.6758 17.8511 10.8872 17.0625 9.91798 17.0625C8.94876 17.0625 8.16017 17.8511 8.16017 18.8203ZM9.91798 18.2344C10.241 18.2344 10.5039 18.4973 10.5039 18.8203C10.5039 19.1434 10.241 19.4063 9.91798 19.4063C9.59493 19.4063 9.33204 19.1434 9.33204 18.8203C9.33204 18.4973 9.59493 18.2344 9.91798 18.2344ZM16.4414 18.8203C16.4414 19.7896 17.23 20.5782 18.1992 20.5782C19.1685 20.5782 19.9571 19.7896 19.9571 18.8203C19.9571 17.8511 19.1685 17.0625 18.1992 17.0625C17.23 17.0625 16.4414 17.8511 16.4414 18.8203ZM18.1992 18.2344C18.5223 18.2344 18.7852 18.4973 18.7852 18.8203C18.7852 19.1434 18.5223 19.4063 18.1992 19.4063C17.8762 19.4063 17.6133 19.1434 17.6133 18.8203C17.6133 18.4973 17.8762 18.2344 18.1992 18.2344Z" fill="#707070"/>
</svg>
