<svg width="25" height="24" viewBox="0 0 25 24" fill="none" xmlns="http://www.w3.org/2000/svg">
<path d="M5 2.7V2.6H4.5C4.13738 2.6 3.81662 2.77627 3.59645 2.99645C3.37627 3.21662 3.2 3.53738 3.2 3.9V9.2C3.2 9.56262 3.37627 9.88338 3.59645 10.1036C3.81662 10.3237 4.13738 10.5 4.5 10.5H9.7C10.5162 10.5 11 9.8343 11 9.2V4C11 3.63738 10.8237 3.31662 10.6036 3.09645C10.3834 2.87627 10.0626 2.7 9.7 2.7H5ZM9.7 10.7H4.5C3.67614 10.7 3 10.0239 3 9.2V4C3 3.17614 3.67614 2.5 4.5 2.5H9.7C10.5239 2.5 11.2 3.17614 11.2 4V9.2C11.2 10.0239 10.5239 10.7 9.7 10.7Z" fill="#707070" stroke="#707070"/>
<path d="M9.7 21.4998H4.5C3.67614 21.4998 3 20.8237 3 19.9998V14.7998C3 13.9759 3.67614 13.2998 4.5 13.2998H9.7C10.5239 13.2998 11.2 13.9759 11.2 14.7998V19.9998C11.2 20.8237 10.5239 21.4998 9.7 21.4998ZM4.5 13.3998C4.13738 13.3998 3.81662 13.5761 3.59645 13.7963C3.37627 14.0164 3.2 14.3372 3.2 14.6998V19.8998C3.2 20.2624 3.37627 20.5832 3.59645 20.8034C3.81662 21.0235 4.13738 21.1998 4.5 21.1998H9.7C10.0626 21.1998 10.3834 21.0235 10.6036 20.8034C10.8237 20.5832 11 20.2624 11 19.8998V14.6998C11 14.3372 10.8237 14.0164 10.6036 13.7963C10.3834 13.5761 10.0626 13.3998 9.7 13.3998H4.5Z" fill="#707070" stroke="#707070"/>
<path d="M15.8 2.7V2.6H15.3C14.9374 2.6 14.6167 2.77627 14.3965 2.99645C14.1763 3.21662 14 3.53738 14 3.9V9.2C14 9.56262 14.1763 9.88338 14.3965 10.1036C14.6167 10.3237 14.9374 10.5 15.3 10.5H20.5C20.8627 10.5 21.1834 10.3237 21.4036 10.1036C21.6238 9.88338 21.8 9.56262 21.8 9.2V4C21.8 3.63738 21.6238 3.31662 21.4036 3.09645C21.1834 2.87627 20.8627 2.7 20.5 2.7H15.8ZM20.5 10.7H15.3C14.4762 10.7 13.8 10.0239 13.8 9.2V4C13.8 3.17614 14.4762 2.5 15.3 2.5H20.5C21.3239 2.5 22 3.17614 22 4V9.2C22 10.0239 21.3239 10.7 20.5 10.7Z" fill="#707070" stroke="#707070"/>
<path d="M20.5 21.4998H15.3C14.4762 21.4998 13.8 20.8237 13.8 19.9998V14.7998C13.8 13.9759 14.4762 13.2998 15.3 13.2998H20.5C21.3239 13.2998 22 13.9759 22 14.7998V19.9998C22 20.8237 21.3239 21.4998 20.5 21.4998ZM15.3 13.3998C14.9374 13.3998 14.6167 13.5761 14.3965 13.7963C14.1763 14.0164 14 14.3372 14 14.6998V19.8998C14 20.2624 14.1763 20.5832 14.3965 20.8034C14.6167 21.0235 14.9374 21.1998 15.3 21.1998H20.5C20.8627 21.1998 21.1834 21.0235 21.4036 20.8034C21.6238 20.5832 21.8 20.2624 21.8 19.8998V14.6998C21.8 14.3372 21.6238 14.0164 21.4036 13.7963C21.1834 13.5761 20.8627 13.3998 20.5 13.3998H15.3Z" fill="#707070" stroke="#707070"/>
</svg>
