<svg width="21" height="21" viewBox="0 0 21 21" fill="none" xmlns="http://www.w3.org/2000/svg">
<path d="M12.592 10.2544H8.87601C8.50441 10.2544 8.13281 10.5331 8.13281 10.9976C8.13281 11.3692 8.41151 11.6479 8.87601 11.6479H12.592C12.9636 11.6479 13.3352 11.3692 13.3352 10.9047C13.2423 10.5331 12.9636 10.2544 12.592 10.2544Z" fill="#707070"/>
<path d="M14.4505 6.35254H7.01858C6.55409 6.35254 6.27539 6.63124 6.27539 7.09573C6.27539 7.46733 6.55409 7.83893 7.01858 7.83893H14.4505C14.8221 7.83893 15.1937 7.56023 15.1937 7.09573C15.1008 6.63124 14.8221 6.35254 14.4505 6.35254Z" fill="#707070"/>
<path d="M20.5816 5.70235C20.4887 4.86626 20.3958 4.12307 20.1171 3.47277C19.6526 2.45088 18.8165 1.61479 17.7946 1.05739C17.1443 0.685798 16.494 0.592899 15.6579 0.5C14.8218 0.5 13.7999 0.5 12.5923 0.5H8.8763C7.57571 0.5 6.55382 0.5 5.71773 0.592899C4.88163 0.685798 4.23134 0.778697 3.58104 1.15029C2.55915 1.61479 1.81596 2.54378 1.25857 3.56567C0.979869 4.21597 0.794071 4.86626 0.794071 5.70235C0.701172 6.63134 0.701172 7.65323 0.701172 9.04672V13.1343C0.701172 15.5497 2.55915 17.5005 4.88163 17.5005H5.43903C5.53193 17.5005 5.62483 17.5934 5.71773 17.6863C5.81062 17.7792 5.81062 17.965 5.71773 18.0579C5.43903 18.894 5.71772 19.6372 6.27512 20.1017C6.83251 20.5662 7.66861 20.6591 8.3189 20.1946L10.7343 18.3366C11.3846 17.8721 12.1278 17.5934 12.9639 17.5934C12.9639 17.5934 12.9639 17.5934 13.0568 17.5934H13.5213C15.0076 17.5934 15.9366 17.5934 16.6798 17.4076C18.4449 16.8502 19.7455 15.4568 20.3029 13.5988C20.4887 12.8556 20.4887 11.8337 20.4887 10.2544V9.04672C20.6745 7.65323 20.6745 6.63134 20.5816 5.70235ZM19.0952 13.1343C18.7236 14.5278 17.7017 15.5497 16.4011 15.9213C15.8437 16.1071 15.1934 16.1071 13.6142 16.1071H13.1497H13.0568C11.942 16.1071 10.9201 16.4787 9.99109 17.1289C9.99109 17.1289 9.99109 17.1289 9.89819 17.1289L7.48281 18.9869C7.48281 19.0798 7.38991 19.0798 7.38991 19.0798C7.29701 19.0798 7.20411 19.0798 7.20411 18.9869C7.11121 18.894 7.01831 18.7082 7.11121 18.5224C7.57571 17.4076 6.73962 16.1071 5.53193 16.1071H4.88163C3.39525 16.1071 2.09466 14.8065 2.09466 13.1343V9.04672C2.09466 7.65323 2.09466 6.63134 2.18756 5.88815C2.18756 5.05206 2.37336 4.58756 2.55915 4.12307C2.93075 3.37987 3.48815 2.72958 4.23134 2.35798C4.60294 2.17218 5.06743 2.07929 5.81062 1.98639C6.55382 1.89349 7.48281 1.89349 8.7834 1.89349H12.4994C13.7999 1.89349 14.7289 1.89349 15.4721 1.98639C16.2153 2.07929 16.6798 2.17218 17.0514 2.35798C17.7946 2.72958 18.4449 3.37987 18.8165 4.21597C19.0023 4.58756 19.0952 5.14496 19.1881 5.88815C19.281 6.63134 19.281 7.65323 19.281 9.04672V10.1615C19.281 11.8337 19.281 12.5769 19.0952 13.1343Z" fill="#707070"/>
</svg>
