<svg width="25" height="24" viewBox="0 0 25 24" fill="none" xmlns="http://www.w3.org/2000/svg">
<path d="M22.125 13.3C21.725 13.7 21.325 13.8 20.825 13.8H20.525V19.8C20.525 21 19.525 21.9 18.325 21.9H15.125C14.825 21.9 14.525 21.6 14.525 21.3V16.6C14.525 16 14.125 15.6 13.525 15.6H11.625C11.125 15.6 10.625 16 10.625 16.6V21.3C10.625 21.6 10.325 21.9 10.025 21.9H6.825C5.625 21.9 4.625 20.9 4.625 19.8V13.8H4.225C3.725 13.8 3.325 13.6 3.025 13.3C2.325 12.6 2.325 11.4 3.025 10.7L11.225 2.6C11.625 2.2 12.125 2 12.625 2C13.125 2 13.525 2.2 13.925 2.5L22.125 10.7C22.825 11.4 22.825 12.6 22.125 13.3Z" fill="#F97316"/>
</svg>
