<svg width="17" height="20" viewBox="0 0 17 20" fill="none" xmlns="http://www.w3.org/2000/svg">
<path d="M11.2628 7.76313L11.2628 7.76308C12.0774 6.94853 12.4836 5.96807 12.4836 4.81688C12.4836 3.66617 12.0775 2.68559 11.2628 1.87066C11.2627 1.87062 11.2627 1.87058 11.2626 1.87055M11.2628 7.76313L4.91067 8.2229C3.97407 7.28647 3.49923 6.14054 3.49923 4.81688C3.49923 3.49349 3.97411 2.34756 4.91051 1.41112C5.84691 0.474684 6.99272 0 8.31642 0C9.63977 0 10.7857 0.474684 11.7223 1.41097L11.2626 1.87055M11.2628 7.76313C10.4482 8.57783 9.46747 8.98403 8.31642 8.98403C7.16575 8.98403 6.18507 8.57778 5.37025 7.76325L11.2628 7.76313ZM11.2626 1.87055C10.4479 1.05611 9.46725 0.65 8.31642 0.65C7.16518 0.65 6.18469 1.05615 5.37014 1.87073C4.55553 2.68538 4.14923 3.66602 4.14923 4.81688C4.14923 5.96801 4.5555 6.94861 5.37021 7.76321L11.2626 1.87055ZM15.6532 13.0428L15.6532 13.0426C15.5381 12.6831 15.3808 12.3255 15.1849 11.9809C14.9871 11.6328 14.7598 11.3389 14.5131 11.1029L14.513 11.1028C14.2686 10.869 13.9613 10.6731 13.5913 10.5265C13.2365 10.3862 12.8328 10.3109 12.3865 10.3109C12.3865 10.3109 12.3864 10.3109 12.3863 10.3109C12.3842 10.3107 12.3689 10.3095 12.3153 10.3322C12.2463 10.3615 12.1399 10.4194 11.9582 10.5376C11.6855 10.7152 11.412 10.8916 11.1377 11.0666L11.1373 11.0669C10.8121 11.2741 10.4008 11.4509 9.93249 11.6022C9.44344 11.7604 8.94185 11.8423 8.44213 11.8423C7.9423 11.8423 7.44081 11.7604 6.95139 11.6022L15.6532 13.0428ZM15.6532 13.0428C15.7686 13.4032 15.8666 13.8025 15.9433 14.23C16.0203 14.6596 16.0715 15.0612 16.0967 15.4239L16.0967 15.4244M15.6532 13.0428L16.0967 15.4244M16.0967 15.4244C16.1223 15.7892 16.1354 16.1715 16.1356 16.5602L16.0967 15.4244ZM5.74714 11.0669L5.74672 11.0666C5.44199 10.8719 5.16572 10.6938 4.92557 10.5373L4.92546 10.5373C4.74419 10.4191 4.63785 10.3612 4.56898 10.332C4.51533 10.3093 4.49999 10.3105 4.49798 10.3107C4.49789 10.3107 4.49782 10.3107 4.49778 10.3107C4.05129 10.3107 3.64767 10.3862 3.29293 10.5267L3.2928 10.5268C2.92333 10.6731 2.61599 10.8688 2.37131 11.103C2.1244 11.3394 1.89712 11.6332 1.69982 11.9806L1.69979 11.9806C1.50399 12.3253 1.34659 12.683 1.23135 13.0429C1.11606 13.4034 1.01813 13.8026 0.941427 14.23L5.74714 11.0669ZM5.74714 11.0669C6.0722 11.2742 6.48362 11.451 6.95132 11.6022L5.74714 11.0669ZM0.749613 16.56L0.749613 16.5604C0.749613 17.4564 1.02876 18.1207 1.53403 18.602C2.03971 19.0832 2.72478 19.35 3.62755 19.35H13.2576C14.1604 19.35 14.8452 19.0834 15.351 18.602L15.351 18.602C15.8562 18.1213 16.1355 17.4571 16.1356 16.5605L0.749613 16.56ZM0.749613 16.56C0.749366 16.181 0.762182 15.8021 0.788039 15.424M0.749613 16.56L0.788039 15.424M0.788039 15.424C0.813209 15.0604 0.864486 14.6588 0.941422 14.23L0.788039 15.424Z" stroke="#707070" stroke-width="1.3"/>
</svg>
