<svg width="21" height="22" viewBox="0 0 21 22" fill="none" xmlns="http://www.w3.org/2000/svg">
<path d="M13.5 12.5C13.5 12.7633 13.3619 13.0075 13.136 13.143L9.38599 15.393C9.26733 15.4644 9.13367 15.5 9 15.5C8.87256 15.5 8.74512 15.4677 8.63049 15.4026C8.39539 15.2696 8.25 15.0202 8.25 14.75V10.25C8.25 9.97971 8.39539 9.73032 8.63049 9.59738C8.86523 9.46408 9.15417 9.46774 9.38599 9.6069L13.136 11.8569C13.3619 11.9924 13.5 12.2367 13.5 12.5ZM20.25 10.25V14.75C20.25 18.4718 17.2218 21.5 13.5 21.5H7.5C3.7782 21.5 0.75 18.4718 0.75 14.75V10.25C0.75 6.71713 3.52588 4.24997 7.5 4.24997H8.93971L6.91443 1.71835C6.65552 1.39499 6.70789 0.922943 7.03162 0.664398C7.35461 0.406219 7.82666 0.458221 8.08557 0.781586L10.5 3.79962L12.9144 0.781586C13.173 0.457123 13.6454 0.406586 13.9684 0.664398C14.2921 0.922943 14.3445 1.39499 14.0856 1.71835L12.0603 4.24997H13.5C17.4741 4.24997 20.25 6.71713 20.25 10.25ZM18.75 10.25C18.75 7.14157 16.1133 5.74997 13.5 5.74997H7.5C4.88672 5.74997 2.25 7.14157 2.25 10.25V14.75C2.25 17.6449 4.6051 20 7.5 20H13.5C16.3949 20 18.75 17.6449 18.75 14.75V10.25Z" fill="#707070"/>
</svg>
