<svg width="15" height="16" viewBox="0 0 15 16" fill="none" xmlns="http://www.w3.org/2000/svg">
<path d="M10.3048 4.37903L10.5109 5.78327H9.14456V4.37903H10.3048ZM7.54115 5.78327H5.90346L6.47518 4.37903H7.54115V5.78327Z" fill="#9C9C9C" stroke="#9C9C9C"/>
<path d="M1.53576 10.5305C1.5359 10.5311 1.53596 10.5313 1.53596 10.5313C1.53597 10.5313 1.53586 10.5308 1.53568 10.5298L1.53558 10.5299L1.53576 10.5305ZM1.53576 10.5305L1.53109 10.5314L1.04377 10.6195C1.0905 10.8759 1.2723 10.8739 1.4743 10.8718C1.49309 10.8715 1.51205 10.8713 1.53109 10.8713L1.53576 10.5305ZM13.0437 10.061H13.3749C13.375 10.0655 13.375 10.0701 13.375 10.0749C13.375 10.0741 13.3743 10.0963 13.3709 10.1488C13.368 10.1947 13.3639 10.2514 13.3594 10.3087C13.3578 10.33 13.356 10.3511 13.3543 10.3716C13.3509 10.3716 13.3475 10.3716 13.3441 10.3716H12.6564H12.3686C12.3506 10.2648 12.3226 10.1608 12.2855 10.061H12.363H12.9727H13.0437ZM9.42957 10.061C9.39243 10.1608 9.36443 10.2648 9.34644 10.3716H9.05868H5.81654H5.52878C5.5108 10.2648 5.4828 10.1608 5.44567 10.061H5.52299H9.35201H9.42957ZM2.5897 10.061C2.5526 10.1608 2.52461 10.2647 2.50663 10.3713H2.21883H1.53109C1.52768 10.3713 1.52421 10.3713 1.52071 10.3714C1.51899 10.3509 1.51727 10.3298 1.51558 10.3085C1.51106 10.2513 1.50697 10.1947 1.50405 10.1488C1.50118 10.1037 1.50025 10.0809 1.50005 10.0759C1.50001 10.0751 1.5 10.0748 1.5 10.0749C1.5 10.0701 1.50003 10.0655 1.50009 10.061H1.9343H2.51195H2.5897Z" fill="#9C9C9C" stroke="#9C9C9C"/>
<mask id="path-3-inside-1_1_283" fill="white">
<path d="M10.6369 10.5149L10.4011 10.0713C10.3251 10.072 10.2451 10.1286 10.1893 10.2339C10.1333 10.3389 10.1281 10.4428 10.1655 10.5147L10.6369 10.5149ZM10.6367 10.7961H10.1657C10.1281 10.868 10.1333 10.9719 10.1893 11.0771C10.2451 11.1821 10.3251 11.239 10.4011 11.2397L10.6367 10.7961ZM10.6253 11.3804C10.6642 11.4516 10.7491 11.4986 10.8612 11.4986C10.9732 11.4986 11.0581 11.4516 11.097 11.3804L10.8612 10.9369L10.6253 11.3804ZM11.0852 10.7961L11.321 11.2397C11.397 11.239 11.477 11.1824 11.5328 11.0774C11.5888 10.9721 11.594 10.8683 11.5566 10.7964L11.0852 10.7961ZM11.3212 10.0713L11.0852 10.5151H11.5566C11.594 10.443 11.5888 10.3394 11.5328 10.2344C11.4772 10.1291 11.3972 10.0722 11.3212 10.0713ZM11.0966 9.9308C11.0579 9.85961 10.9727 9.81262 10.8609 9.81262C10.7491 9.81262 10.664 9.85961 10.6253 9.9308L10.8609 10.3742L11.0966 9.9308Z"/>
</mask>
<path d="M10.6369 10.5149L10.4011 10.0713C10.3251 10.072 10.2451 10.1286 10.1893 10.2339C10.1333 10.3389 10.1281 10.4428 10.1655 10.5147L10.6369 10.5149ZM10.6367 10.7961H10.1657C10.1281 10.868 10.1333 10.9719 10.1893 11.0771C10.2451 11.1821 10.3251 11.239 10.4011 11.2397L10.6367 10.7961ZM10.6253 11.3804C10.6642 11.4516 10.7491 11.4986 10.8612 11.4986C10.9732 11.4986 11.0581 11.4516 11.097 11.3804L10.8612 10.9369L10.6253 11.3804ZM11.0852 10.7961L11.321 11.2397C11.397 11.239 11.477 11.1824 11.5328 11.0774C11.5888 10.9721 11.594 10.8683 11.5566 10.7964L11.0852 10.7961ZM11.3212 10.0713L11.0852 10.5151H11.5566C11.594 10.443 11.5888 10.3394 11.5328 10.2344C11.4772 10.1291 11.3972 10.0722 11.3212 10.0713ZM11.0966 9.9308C11.0579 9.85961 10.9727 9.81262 10.8609 9.81262C10.7491 9.81262 10.664 9.85961 10.6253 9.9308L10.8609 10.3742L11.0966 9.9308Z" fill="#9C9C9C"/>
<path d="M10.6369 10.5149L10.6364 11.5149L12.3015 11.5157L11.5199 10.0455L10.6369 10.5149ZM10.4011 10.0713L11.2841 9.60188L10.999 9.06571L10.3918 9.07134L10.4011 10.0713ZM10.1893 10.2339L11.0717 10.7044L11.0729 10.7022L10.1893 10.2339ZM10.1655 10.5147L9.27802 10.9755L9.55785 11.5143L10.165 11.5147L10.1655 10.5147ZM10.6367 10.7961L11.5199 11.2652L12.3002 9.79612H10.6367V10.7961ZM10.1657 10.7961V9.79612H9.55982L9.27932 10.3332L10.1657 10.7961ZM10.1893 11.0771L11.0724 10.608L11.0721 10.6074L10.1893 11.0771ZM10.4011 11.2397L10.3918 12.2397L10.9993 12.2453L11.2842 11.7088L10.4011 11.2397ZM10.6253 11.3804L9.74236 10.911L9.48954 11.3866L9.74748 11.8594L10.6253 11.3804ZM11.097 11.3804L11.9748 11.8594L12.2328 11.3866L11.98 10.911L11.097 11.3804ZM10.8612 10.9369L11.7441 10.4674L10.8612 8.80658L9.97819 10.4674L10.8612 10.9369ZM11.0852 10.7961L11.0857 9.79612L9.42057 9.79529L10.2022 11.2655L11.0852 10.7961ZM11.321 11.2397L10.438 11.7091L10.7231 12.2453L11.3303 12.2397L11.321 11.2397ZM11.5328 11.0774L10.65 10.6076L10.6497 10.6082L11.5328 11.0774ZM11.5566 10.7964L12.4441 10.3355L12.1643 9.79666L11.5571 9.79636L11.5566 10.7964ZM11.3212 10.0713L11.3336 9.07138L10.7244 9.06384L10.4383 9.60174L11.3212 10.0713ZM11.0852 10.5151L10.2023 10.0456L9.42071 11.5151H11.0852V10.5151ZM11.5566 10.5151V11.5151H12.165L12.4447 10.9748L11.5566 10.5151ZM11.5328 10.2344L10.6485 10.7013L10.6504 10.7049L11.5328 10.2344ZM11.0966 9.9308L11.9796 10.4001L12.2316 9.9259L11.9755 9.45391L11.0966 9.9308ZM10.6253 9.9308L9.74637 9.45391L9.49029 9.9259L9.74229 10.4001L10.6253 9.9308ZM10.8609 10.3742L9.9779 10.8434L10.8609 12.5051L11.744 10.8434L10.8609 10.3742ZM11.5199 10.0455L11.2841 9.60188L9.51812 10.5407L9.75395 10.9843L11.5199 10.0455ZM10.3918 9.07134C9.80978 9.07675 9.45649 9.48116 9.30575 9.76556L11.0729 10.7022C11.0337 10.7761 10.8405 11.0673 10.4104 11.0713L10.3918 9.07134ZM9.30693 9.76334C9.14857 10.0603 9.04368 10.5243 9.27802 10.9755L11.0529 10.0538C11.2126 10.3612 11.118 10.6175 11.0717 10.7044L9.30693 9.76334ZM10.165 11.5147L10.6364 11.5149L10.6374 9.51489L10.166 9.51465L10.165 11.5147ZM10.6367 9.79612H10.1657V11.7961H10.6367V9.79612ZM9.27932 10.3332C9.043 10.7856 9.14892 11.2507 9.30649 11.5469L11.0721 10.6074C11.1177 10.693 11.2133 10.9504 11.0521 11.2591L9.27932 10.3332ZM9.30618 11.5463C9.45613 11.8285 9.80891 12.2343 10.3918 12.2397L10.4104 10.2398C10.8414 10.2437 11.0341 10.5358 11.0724 10.608L9.30618 11.5463ZM11.2842 11.7088L11.5199 11.2652L9.75356 10.327L9.51794 10.7706L11.2842 11.7088ZM9.74748 11.8594C10.004 12.3295 10.4813 12.4986 10.8612 12.4986V10.4986C11.017 10.4986 11.3244 10.5737 11.5032 10.9015L9.74748 11.8594ZM10.8612 12.4986C11.241 12.4986 11.7183 12.3295 11.9748 11.8594L10.2191 10.9015C10.398 10.5737 10.7053 10.4986 10.8612 10.4986V12.4986ZM11.98 10.911L11.7441 10.4674L9.97819 11.4063L10.214 11.8499L11.98 10.911ZM9.97819 10.4674L9.74236 10.911L11.5083 11.8499L11.7441 11.4063L9.97819 10.4674ZM10.2022 11.2655L10.438 11.7091L12.204 10.7703L11.9682 10.3267L10.2022 11.2655ZM11.3303 12.2397C11.9119 12.2343 12.2651 11.8304 12.4159 11.5465L10.6497 10.6082C10.6889 10.5344 10.8821 10.2437 11.3117 10.2398L11.3303 12.2397ZM12.4156 11.5471C12.5733 11.2507 12.6785 10.7869 12.4441 10.3355L10.6692 11.2572C10.5094 10.9496 10.6043 10.6935 10.65 10.6076L12.4156 11.5471ZM11.5571 9.79636L11.0857 9.79612L11.0847 11.7961L11.5561 11.7964L11.5571 9.79636ZM10.4383 9.60174L10.2023 10.0456L11.9681 10.9847L12.2041 10.5409L10.4383 9.60174ZM11.0852 11.5151H11.5566V9.51512H11.0852V11.5151ZM12.4447 10.9748C12.6779 10.5243 12.5738 10.0613 12.4152 9.76381L10.6504 10.7049C10.6038 10.6175 10.51 10.3617 10.6686 10.0554L12.4447 10.9748ZM12.4171 9.76744C12.2667 9.4826 11.9144 9.07856 11.3336 9.07138L11.3089 11.0712C10.88 11.0659 10.6877 10.7756 10.6485 10.7013L12.4171 9.76744ZM11.9755 9.45391C11.719 8.98103 11.2394 8.81262 10.8609 8.81262V10.8126C10.7061 10.8126 10.3969 10.7382 10.2176 10.4077L11.9755 9.45391ZM10.8609 8.81262C10.4825 8.81262 10.0029 8.98103 9.74637 9.45391L11.5043 10.4077C11.325 10.7382 11.0158 10.8126 10.8609 10.8126V8.81262ZM9.74229 10.4001L9.9779 10.8434L11.744 9.90487L11.5084 9.46152L9.74229 10.4001ZM11.744 10.8434L11.9796 10.4001L10.2135 9.46152L9.9779 9.90487L11.744 10.8434Z" fill="#9C9C9C" mask="url(#path-3-inside-1_1_283)"/>
</svg>
