<svg width="25" height="24" viewBox="0 0 25 24" fill="none" xmlns="http://www.w3.org/2000/svg">
<g id="Frame" clip-path="url(#clip0_1_337)">
<g id="Group">
<path id="Vector" d="M12.3893 2.8086C13.572 2.8086 14.6776 3.04006 15.6194 3.48172C15.5502 1.76727 14.1309 0.398376 12.3894 0.398376C10.6479 0.398376 9.22856 1.76731 9.15942 3.48167C10.1011 3.04006 11.2066 2.8086 12.3893 2.8086Z" fill="#B57A4E"/>
<path id="Vector_2" d="M10.7098 2.97449C10.959 1.74589 11.9126 0.771361 13.1341 0.484955C12.8901 0.427559 12.6403 0.398507 12.3896 0.398376C10.6481 0.398376 9.2288 1.76727 9.15942 3.48167C9.63788 3.25738 10.1584 3.08745 10.7098 2.97449Z" fill="#9B5729"/>
<path id="Vector_3" d="M19.9385 21.1883C19.3921 21.1588 18.8825 20.9336 18.4929 20.5463L15.8213 17.8906H14.8527L12.3868 21.6662L9.92069 17.8906H8.29313C6.38423 17.8906 4.8313 19.4343 4.8313 21.3319V22.5806C4.83132 22.6128 4.83768 22.6447 4.85002 22.6745C4.86237 22.7042 4.88045 22.7312 4.90324 22.754C4.92602 22.7767 4.95307 22.7948 4.98283 22.8071C5.0126 22.8194 5.04449 22.8257 5.07669 22.8256H19.6969C19.8324 22.8256 19.9421 22.716 19.9421 22.5806V21.3319C19.9421 21.2837 19.9405 21.2359 19.9385 21.1883Z" fill="#FF6666"/>
<path id="Vector_4" d="M8.64467 18.0797L8.52106 17.8906H8.29292C6.38422 17.8906 4.8313 19.4343 4.8313 21.3317V22.5806C4.83132 22.6128 4.83768 22.6447 4.85002 22.6744C4.86237 22.7042 4.88045 22.7312 4.90324 22.7539C4.92602 22.7767 4.95307 22.7947 4.98283 22.807C5.01259 22.8193 5.04449 22.8256 5.07669 22.8256H6.55817C6.4227 22.8256 6.31302 22.7159 6.31302 22.5806V21.3317C6.31302 19.8274 7.28933 18.5464 8.64467 18.0797V18.0797Z" fill="#FE3745"/>
<path id="Vector_5" d="M15.8189 17.8906H14.8504L12.3845 21.6662L9.91844 17.8906H8.5188L11.4033 22.307C11.4944 22.4463 11.6141 22.5646 11.7545 22.654C11.8948 22.7434 12.0526 22.8019 12.2174 22.8256H12.5514C12.7161 22.8019 12.8739 22.7434 13.0143 22.654C13.1547 22.5646 13.2745 22.4463 13.3656 22.307L16.0803 18.1504L15.8189 17.8906Z" fill="#DEF9FF"/>
<path id="Vector_6" d="M13.7911 17.5697V16.6094C13.5292 16.6546 13.2639 16.6773 12.9981 16.6773H11.7843C11.5138 16.6773 11.2489 16.6538 10.9911 16.6093V17.5697C10.9911 17.7521 10.8416 17.9004 10.6582 17.9004H9.92505L12.3909 21.676L14.857 17.9004H14.124C13.9405 17.9004 13.7911 17.7519 13.7911 17.5697V17.5697Z" fill="#F8D5AB"/>
<path id="Vector_7" d="M10.8854 17.8046C10.8238 17.8623 10.7426 17.8944 10.6582 17.8943H9.92505L12.3911 21.6699L12.9005 20.8898L10.8854 17.8046Z" fill="#EAC092"/>
<path id="Vector_8" d="M12.3865 2.81244C8.94743 2.81244 6.15942 4.77112 6.15942 8.152V9.76339C6.24227 9.74087 6.32773 9.72936 6.41358 9.72917H7.19949V8.67283C7.19949 8.52724 7.3187 8.40878 7.46537 8.40878H11.5767C12.3352 8.40878 13.0578 8.00903 13.4626 7.36543C13.4866 7.32727 13.5198 7.29585 13.5593 7.27416C13.5988 7.25246 13.6432 7.2412 13.6882 7.24145C13.7332 7.24124 13.7775 7.25252 13.8169 7.27422C13.8563 7.29591 13.8895 7.32731 13.9134 7.36543C14.3183 8.00903 15.041 8.4086 15.7995 8.4086H17.3077C17.4544 8.4086 17.5736 8.52705 17.5736 8.67283V9.72893H18.3597C18.4475 9.72893 18.5325 9.74159 18.6136 9.76339V8.15205C18.6134 4.77117 15.8256 2.81249 12.3865 2.81249L12.3865 2.81244Z" fill="#B57A4E"/>
<path id="Vector_9" d="M12.3864 2.81244C8.94741 2.81244 6.15942 4.77111 6.15942 8.15197V9.76334C6.24227 9.74083 6.32773 9.72932 6.41358 9.72913H7.19949V8.6728C7.19949 8.5272 7.31869 8.40875 7.46536 8.40875H7.64222V8.15202C7.64222 5.01781 10.0381 3.1062 13.1279 2.8438C12.8813 2.82288 12.6339 2.81243 12.3865 2.81249L12.3864 2.81244Z" fill="#9B5729"/>
<g id="Group_2">
<path id="Vector_10" d="M19.0671 12.4804C19.2277 12.3108 19.3265 12.0839 19.3265 11.834V10.6842C19.3265 10.1597 18.894 9.73431 18.3604 9.73431H17.598V11.591C17.8916 11.6279 18.1741 11.7261 18.4272 11.8793C18.6803 12.0325 18.8983 12.2373 19.0671 12.4804ZM5.86675 12.616C5.87543 12.5664 5.89829 12.5204 5.93256 12.4835C5.96683 12.4467 6.01106 12.4205 6.05988 12.4082C6.43948 12.313 6.81799 12.282 7.18142 12.3115C7.17859 12.2484 7.17713 12.1853 7.17706 12.1222V9.73431H6.41459C5.881 9.73431 5.44849 10.1597 5.44849 10.6842V11.834C5.44849 12.1585 5.61424 12.4446 5.86675 12.616Z" fill="#FFE2B8"/>
<path id="Vector_11" d="M15.47 15.5894C15.4238 15.5439 15.3872 15.4897 15.3623 15.4299C15.3373 15.3701 15.3246 15.3059 15.3247 15.2411C15.3247 15.1096 15.3764 14.9861 15.47 14.893C15.5003 14.863 15.5345 14.837 15.5716 14.8158C15.3443 14.4744 15.2232 14.0734 15.2237 13.6633C15.2237 12.5068 16.1668 11.5693 17.3301 11.5693C17.4202 11.5693 17.5088 11.5757 17.596 11.5865V8.67365C17.596 8.5147 17.4664 8.38598 17.3067 8.38598H15.7985C15.0481 8.38598 14.3329 7.99044 13.9322 7.35378C13.9061 7.31236 13.8699 7.27824 13.8271 7.25461C13.7842 7.23099 13.736 7.21863 13.6871 7.21869C13.6381 7.2186 13.5898 7.23094 13.5469 7.25457C13.504 7.2782 13.4678 7.31234 13.4417 7.35378C13.0412 7.99044 12.3258 8.38598 11.5757 8.38598H7.46436C7.30452 8.38598 7.17505 8.5147 7.17505 8.67365L7.17927 12.307C7.87818 12.364 8.5207 12.6456 9.00459 13.1266C9.74016 13.8577 10.0119 14.9529 9.73177 16.0559C9.72084 16.0984 9.69929 16.1374 9.66914 16.1693C10.3014 16.4936 11.0188 16.677 11.7785 16.677H12.9925C13.9996 16.677 14.9322 16.3548 15.6908 15.8091L15.47 15.5894Z" fill="#FFE2B8"/>
</g>
<path id="Vector_12" d="M8.44616 8.38275H7.46436C7.30452 8.38275 7.17505 8.51147 7.17505 8.67042L7.17927 12.3039C7.53116 12.3325 7.86847 12.4184 8.17864 12.5577C8.16417 12.4104 8.15689 12.2625 8.15685 12.1144V8.67042C8.15685 8.51147 8.28631 8.38275 8.44616 8.38275Z" fill="#FFC987"/>
<path id="Vector_13" d="M21.7054 8.99875C21.6494 8.99875 21.599 8.96453 21.5784 8.91236C21.3032 8.22002 21.0942 8.0111 20.4017 7.7357C20.3763 7.72554 20.3545 7.70801 20.3392 7.68535C20.3239 7.6627 20.3157 7.63598 20.3157 7.60863C20.3157 7.58127 20.3239 7.55455 20.3392 7.5319C20.3545 7.50925 20.3763 7.49171 20.4017 7.48155C21.0942 7.20639 21.3031 6.99742 21.5784 6.30475C21.599 6.25272 21.6494 6.21869 21.7054 6.21869C21.7614 6.21869 21.8118 6.25272 21.8325 6.30475C22.1077 6.99742 22.3168 7.20635 23.0091 7.48155C23.0346 7.49163 23.0565 7.50913 23.0719 7.53179C23.0873 7.55445 23.0955 7.58122 23.0956 7.60863C23.0956 7.66469 23.0613 7.71503 23.0091 7.7357C22.3168 8.01091 22.1077 8.21983 21.8325 8.91236C21.8224 8.93784 21.8049 8.95969 21.7823 8.9751C21.7596 8.9905 21.7328 8.99874 21.7054 8.99875Z" fill="#FFAF10"/>
<path id="Vector_14" d="M20.8884 7.2558C20.8842 7.25416 20.8803 7.25195 20.8763 7.24994C20.7472 7.32738 20.593 7.39825 20.4019 7.47424C20.3499 7.49495 20.3157 7.54549 20.3157 7.6015C20.3157 7.65752 20.3497 7.70791 20.4019 7.72858C21.0944 8.00378 21.3033 8.2127 21.5785 8.90524C21.5992 8.95741 21.6495 8.99149 21.7056 8.99149C21.7617 8.99149 21.812 8.95741 21.8326 8.90524C21.9101 8.71038 21.9823 8.554 22.0614 8.42345C21.788 7.73828 21.5778 7.52974 20.8884 7.2558Z" fill="#F39600"/>
<path id="Vector_15" d="M3.70561 9.00675C3.67824 9.00672 3.65151 8.99849 3.62886 8.98312C3.60622 8.96774 3.5887 8.94593 3.57858 8.9205C3.30333 8.22783 3.09441 8.01891 2.40192 7.7437C2.37646 7.73362 2.35462 7.7161 2.33924 7.69344C2.32386 7.67078 2.31565 7.64401 2.31567 7.61663C2.31567 7.56061 2.34975 7.51022 2.40192 7.48955C3.09441 7.21434 3.30333 7.00542 3.57858 6.31289C3.5887 6.28745 3.60621 6.26562 3.62885 6.25022C3.65149 6.23482 3.67823 6.22656 3.70561 6.2265C3.76167 6.2265 3.81202 6.26072 3.83269 6.31289C4.10789 7.00542 4.31686 7.2143 5.00935 7.48955C5.03474 7.49971 5.05651 7.51725 5.07184 7.5399C5.08717 7.56255 5.09537 7.58927 5.09537 7.61663C5.09537 7.64398 5.08717 7.6707 5.07184 7.69335C5.05651 7.71601 5.03474 7.73354 5.00935 7.7437C4.31681 8.01886 4.10794 8.22783 3.83269 8.9205C3.82257 8.94593 3.80505 8.96774 3.78241 8.98312C3.75976 8.99849 3.73298 9.00672 3.70561 9.00675Z" fill="#FFCB00"/>
<path id="Vector_16" d="M2.88563 7.27367C2.88179 7.27217 2.87832 7.27015 2.87485 7.26832C2.74595 7.34543 2.5921 7.41612 2.4017 7.49192C2.3763 7.50208 2.35453 7.51962 2.3392 7.54227C2.32387 7.56492 2.31567 7.59164 2.31567 7.619C2.31567 7.64635 2.32387 7.67307 2.3392 7.69572C2.35453 7.71838 2.3763 7.73591 2.4017 7.74607C3.09418 8.02123 3.3031 8.2302 3.57835 8.92287C3.58852 8.94825 3.60606 8.97 3.62871 8.98533C3.65135 9.00065 3.67807 9.00884 3.70541 9.00884C3.73275 9.00884 3.75946 9.00065 3.78211 8.98533C3.80476 8.97 3.82229 8.94825 3.83246 8.92287C3.90938 8.72933 3.98115 8.5737 4.05953 8.44372C3.78578 7.75653 3.57596 7.54793 2.88563 7.27367ZM5.7159 3.4107C5.69368 3.41072 5.67196 3.40406 5.65357 3.39158C5.63518 3.3791 5.62096 3.36138 5.61277 3.34072C5.38965 2.77915 5.22024 2.60961 4.65863 2.38657C4.63799 2.37837 4.62029 2.36415 4.60782 2.34577C4.59535 2.32739 4.58868 2.30569 4.58868 2.28347C4.58868 2.26126 4.59535 2.23956 4.60782 2.22118C4.62029 2.20279 4.63799 2.18858 4.65863 2.18037C5.2202 1.9572 5.3896 1.78779 5.61282 1.22623C5.62099 1.20557 5.63518 1.18785 5.65355 1.17536C5.67192 1.16287 5.69362 1.15619 5.71583 1.15619C5.73804 1.15619 5.75974 1.16287 5.77811 1.17536C5.79648 1.18785 5.81067 1.20557 5.81884 1.22623C6.04201 1.78779 6.21137 1.9572 6.77298 2.18037C6.7936 2.18859 6.81129 2.2028 6.82375 2.22118C6.83622 2.23955 6.84288 2.26125 6.84288 2.28345C6.84288 2.30565 6.83622 2.32734 6.82375 2.34572C6.81129 2.3641 6.7936 2.37831 6.77298 2.38653C6.21142 2.60979 6.04201 2.77915 5.81879 3.34072C5.81062 3.36134 5.79645 3.37904 5.7781 3.39152C5.75976 3.404 5.73809 3.41068 5.7159 3.4107Z" fill="#FFAF10"/>
<path id="Vector_17" d="M6.084 2.8302C5.86828 2.28767 5.70183 2.11095 5.18475 1.89838C5.05514 2.00347 4.89085 2.08681 4.65905 2.17888C4.63843 2.18712 4.62074 2.20134 4.60828 2.21972C4.59581 2.2381 4.58914 2.25979 4.58911 2.282C4.58911 2.32756 4.61696 2.36825 4.65905 2.38489C5.22061 2.60811 5.39002 2.77766 5.61324 3.33927C5.6214 3.35992 5.63559 3.37765 5.65396 3.39014C5.67233 3.40263 5.69403 3.40931 5.71624 3.40931C5.73846 3.40931 5.76016 3.40263 5.77853 3.39014C5.7969 3.37765 5.81109 3.35992 5.81925 3.33927C5.9071 3.11839 5.98678 2.95855 6.08508 2.83185L6.084 2.8302Z" fill="#F39600"/>
<path id="Vector_18" d="M5.04832 16.0312L1.28075 20.1749C1.23983 20.2154 1.20735 20.2637 1.18519 20.3169C1.16302 20.37 1.15161 20.4271 1.15161 20.4847C1.15161 20.5423 1.16302 20.5993 1.18519 20.6525C1.20735 20.7057 1.23983 20.7539 1.28075 20.7945C1.45287 20.9657 1.73192 20.9657 1.90404 20.7945L6.07245 17.0493L5.04832 16.0312Z" fill="#C7C8CA"/>
<path id="Vector_19" d="M5.44306 16.4235L5.04832 16.0312L1.28075 20.1748C1.23983 20.2154 1.20735 20.2637 1.18519 20.3168C1.16302 20.37 1.15161 20.427 1.15161 20.4846C1.15161 20.5422 1.16302 20.5993 1.18519 20.6525C1.20735 20.7056 1.23983 20.7539 1.28075 20.7944C1.45287 20.9657 1.73192 20.9657 1.90404 20.7944L2.09375 20.624C2.03224 20.5398 2.00296 20.4364 2.01121 20.3325C2.01947 20.2286 2.06472 20.1311 2.13875 20.0577L5.44306 16.4235Z" fill="#A7A9AC"/>
<path id="Vector_20" d="M9.00481 13.1272C8.26911 12.3961 7.16755 12.1258 6.05792 12.4043C6.00436 12.4177 5.95639 12.4476 5.92093 12.4899C5.88546 12.5322 5.86432 12.5847 5.86053 12.6398L5.69849 15.0954L7.02472 16.4138L9.49517 16.2526C9.55027 16.2491 9.60285 16.2282 9.64537 16.193C9.68789 16.1578 9.71817 16.11 9.73189 16.0565C10.0121 14.9535 9.74033 13.8586 9.00481 13.1272Z" fill="#9B5729"/>
<path id="Vector_21" d="M6.81996 12.6406C6.61849 12.6472 6.4151 12.6728 6.21255 12.7193L6.05786 15.0633L6.7346 13.9311L6.81996 12.6406Z" fill="#7F441C"/>
<path id="Vector_22" d="M6.60461 17.2531C6.51321 17.3441 6.36363 17.3441 6.27208 17.2531L4.84511 15.8345C4.8234 15.8129 4.80617 15.7871 4.79442 15.7587C4.78266 15.7304 4.77661 15.7 4.77661 15.6693C4.77661 15.6386 4.78266 15.6082 4.79442 15.5799C4.80617 15.5515 4.8234 15.5258 4.84511 15.5041L5.31536 15.037C5.40672 14.9459 5.5563 14.9459 5.64771 15.037L7.07458 16.4553C7.09631 16.477 7.11354 16.5027 7.1253 16.5311C7.13706 16.5594 7.14311 16.5898 7.14311 16.6205C7.14311 16.6512 7.13706 16.6816 7.1253 16.71C7.11354 16.7383 7.09631 16.7641 7.07458 16.7858L6.60461 17.2531Z" fill="#8A8C8E"/>
<path id="Vector_23" d="M5.41331 16.1325L5.93925 15.6097C5.99653 15.5527 6.07415 15.5288 6.14957 15.5357L5.64768 15.037C5.55633 14.9459 5.40675 14.9459 5.3152 15.037L4.84514 15.5042C4.82341 15.5259 4.80618 15.5517 4.79442 15.58C4.78266 15.6084 4.77661 15.6388 4.77661 15.6695C4.77661 15.7002 4.78266 15.7306 4.79442 15.7589C4.80618 15.7873 4.82341 15.813 4.84514 15.8347L5.33714 16.3236C5.33613 16.2883 5.34237 16.2531 5.35547 16.2202C5.36857 16.1873 5.38825 16.1575 5.41331 16.1325Z" fill="#6D6E71"/>
<path id="Vector_24" d="M17.3362 11.9218C16.3685 11.9218 15.5813 12.7034 15.5813 13.6643C15.5811 13.9194 15.6375 14.1714 15.7464 14.402C15.8243 14.3946 15.9029 14.3979 15.9799 14.4119C15.971 14.362 15.9666 14.3115 15.9666 14.2608C15.9666 14.0349 16.0548 13.8227 16.2152 13.6632C16.2938 13.5847 16.3871 13.5226 16.4897 13.4802C16.5924 13.4379 16.7024 13.4163 16.8134 13.4166C17.0392 13.4166 17.2516 13.5041 17.4116 13.6632L17.5935 13.8439C17.6095 13.6441 17.6954 13.4585 17.8394 13.3151C17.9179 13.2366 18.0112 13.1744 18.1138 13.1321C18.2165 13.0898 18.3265 13.0682 18.4375 13.0685C18.6635 13.0685 18.8759 13.156 19.0358 13.3149L19.0603 13.3393C18.9065 12.5333 18.1922 11.9218 17.3362 11.9218Z" fill="#FF99A3"/>
<path id="Vector_25" d="M15.8263 14.3904C15.8783 14.3904 15.9297 14.3949 15.9799 14.404C15.971 14.3542 15.9666 14.3036 15.9666 14.253C15.9666 14.0422 16.0442 13.8441 16.1848 13.6888C16.1846 13.678 16.1841 13.6673 16.1841 13.6564C16.1841 12.6631 16.8801 11.832 17.8135 11.617C17.657 11.5808 17.4968 11.5625 17.3362 11.5624C16.1729 11.5624 15.2297 12.4999 15.2297 13.6564C15.2297 13.9569 15.2938 14.2424 15.4084 14.5006C15.5358 14.4282 15.6798 14.3902 15.8263 14.3903V14.3904Z" fill="#FF6666"/>
<path id="Vector_26" d="M22.4849 22.8301C22.4171 22.8301 22.352 22.8033 22.3038 22.7555L20.6559 21.1175C20.4635 21.1698 20.265 21.1963 20.0657 21.1964C19.4728 21.1964 18.9156 20.967 18.4969 20.5508L15.125 17.1988C15.0312 17.1058 14.9797 16.982 14.9797 16.8505C14.9797 16.719 15.0312 16.5955 15.1248 16.5022C15.1708 16.4563 15.2255 16.42 15.2857 16.3952C15.3458 16.3705 15.4102 16.3578 15.4753 16.358C15.6074 16.358 15.7319 16.4092 15.8255 16.5021L17.7364 18.4018L18.0228 18.1169L15.4753 15.5842C15.4291 15.5387 15.3925 15.4845 15.3676 15.4247C15.3426 15.3649 15.3299 15.3007 15.33 15.2359C15.33 15.1044 15.3817 14.9809 15.4753 14.8878C15.5688 14.7948 15.6931 14.7435 15.8255 14.7435C15.9579 14.7435 16.0822 14.7948 16.1758 14.8878L18.7236 17.4204L19.0101 17.1354L16.4624 14.6029C16.4163 14.5574 16.3798 14.5031 16.3549 14.4433C16.33 14.3835 16.3172 14.3194 16.3174 14.2546C16.3174 14.1232 16.369 13.9994 16.4624 13.9063C16.5084 13.8604 16.563 13.824 16.6231 13.7993C16.6832 13.7745 16.7476 13.7619 16.8127 13.7621C16.945 13.7621 17.0694 13.8133 17.163 13.9064L19.7109 16.4389L19.9974 16.154L18.0865 14.2546C18.0405 14.2091 18.004 14.1548 17.9791 14.095C17.9542 14.0352 17.9414 13.9711 17.9415 13.9063C17.9414 13.8416 17.9542 13.7774 17.9791 13.7176C18.0041 13.6578 18.0406 13.6036 18.0867 13.5581C18.1327 13.5122 18.1874 13.4758 18.2475 13.4511C18.3076 13.4264 18.372 13.4138 18.437 13.414C18.5694 13.414 18.6937 13.4653 18.7875 13.5583L21.2376 15.9939V15.1145C21.2376 14.7728 21.5172 14.495 21.8607 14.495C22.2044 14.495 22.4838 14.7728 22.4838 15.1145V17.3202C22.8019 17.8369 22.8914 18.4697 22.7296 19.0564L24.3761 20.6932C24.4242 20.7412 24.4515 20.8064 24.4515 20.8743C24.4515 20.9422 24.4242 21.0074 24.376 21.0554L22.6658 22.7554C22.6178 22.8032 22.5527 22.8301 22.4849 22.8301Z" fill="#FFC987"/>
<path id="Vector_27" d="M12.2335 12.8008H12.8059C13.0001 12.8008 13.1574 12.6435 13.1574 12.4492C13.1574 12.2549 13.0001 12.0977 12.8059 12.0977H12.3184V11.245C12.3184 11.1518 12.2814 11.0624 12.2155 10.9964C12.1495 10.9305 12.0601 10.8935 11.9669 10.8935C11.9207 10.8934 11.875 10.9025 11.8323 10.9202C11.7897 10.9378 11.7509 10.9637 11.7182 10.9964C11.6856 11.029 11.6597 11.0678 11.642 11.1105C11.6244 11.1531 11.6153 11.1988 11.6153 11.245V12.1856C11.6153 12.5249 11.8927 12.8009 12.2335 12.8009L12.2335 12.8008ZM10.9787 10.1619C10.9129 10.0958 10.8236 10.0586 10.7304 10.0583C10.6372 10.058 10.5476 10.0948 10.4815 10.1605C10.0182 10.6208 9.26461 10.6208 8.80148 10.1605C8.73534 10.0948 8.64584 10.058 8.55264 10.0583C8.45943 10.0586 8.37014 10.0958 8.30437 10.1619C8.27181 10.1946 8.24601 10.2335 8.22846 10.2762C8.21091 10.3189 8.20195 10.3647 8.20208 10.4108C8.20222 10.457 8.21145 10.5027 8.22925 10.5454C8.24705 10.588 8.27307 10.6267 8.30582 10.6592C8.67408 11.0253 9.15764 11.2082 9.64139 11.2082C10.1251 11.2082 10.6089 11.0251 10.9772 10.6593C11.0099 10.6267 11.0359 10.588 11.0537 10.5454C11.0715 10.5028 11.0808 10.4571 11.0809 10.4109C11.0811 10.3647 11.0721 10.319 11.0545 10.2762C11.037 10.2335 11.0112 10.1947 10.9787 10.1619ZM15.1313 11.2082C15.6149 11.2082 16.0988 11.0253 16.4671 10.6593C16.5332 10.5935 16.5706 10.5042 16.5708 10.411C16.5711 10.3177 16.5344 10.2282 16.4686 10.162C16.4029 10.0959 16.3136 10.0585 16.2203 10.0583C16.1271 10.058 16.0375 10.0947 15.9714 10.1605C15.5082 10.621 14.7545 10.621 14.2912 10.1605C14.2585 10.1279 14.2196 10.1021 14.1769 10.0846C14.1342 10.0671 14.0885 10.0581 14.0423 10.0583C13.9961 10.0584 13.9505 10.0676 13.9079 10.0854C13.8653 10.1032 13.8266 10.1293 13.794 10.162C13.7615 10.1948 13.7357 10.2336 13.7182 10.2763C13.7006 10.319 13.6917 10.3648 13.6918 10.4109C13.692 10.4571 13.7012 10.5028 13.719 10.5454C13.7368 10.588 13.7628 10.6267 13.7956 10.6592C14.1638 11.0253 14.6473 11.2082 15.1313 11.2082ZM10.524 13.582C10.4914 13.6147 10.4656 13.6535 10.4481 13.6962C10.4305 13.7389 10.4216 13.7847 10.4217 13.8309C10.4219 13.877 10.4311 13.9227 10.4489 13.9653C10.4667 14.0079 10.4927 14.0466 10.5255 14.0791C11.0354 14.586 11.7055 14.8392 12.3772 14.8392C13.0536 14.8392 13.7311 14.5825 14.2475 14.0694C14.3136 14.0036 14.3508 13.9143 14.3511 13.821C14.3514 13.7278 14.3146 13.6382 14.2489 13.572C14.1121 13.4344 13.8895 13.4339 13.7518 13.5706C12.9961 14.3217 11.7711 14.3261 11.0211 13.5805C10.9884 13.5479 10.9496 13.5221 10.9069 13.5046C10.8641 13.487 10.8184 13.4781 10.7722 13.4782C10.7261 13.4784 10.6804 13.4876 10.6378 13.5054C10.5952 13.5232 10.5565 13.5492 10.524 13.582ZM20.2697 8.05858C20.8725 8.29811 21.01 8.43541 21.2493 9.03799C21.3236 9.2253 21.5018 9.34634 21.7032 9.34634C21.9046 9.34634 22.0826 9.2253 22.157 9.03818C22.3966 8.43536 22.5339 8.29806 23.1366 8.05858C23.3239 7.98423 23.4447 7.80606 23.4447 7.60464C23.4447 7.40322 23.3239 7.22509 23.1367 7.15075C22.5339 6.91121 22.3966 6.77387 22.1569 6.17058C22.121 6.07964 22.0584 6.00164 21.9775 5.94678C21.8965 5.89193 21.8009 5.86276 21.7032 5.86308C21.6053 5.86272 21.5097 5.89192 21.4287 5.94684C21.3477 6.00177 21.2853 6.07987 21.2494 6.17091C21.0099 6.77392 20.8724 6.91121 20.2698 7.15075C20.1787 7.18656 20.1006 7.24905 20.0456 7.33004C19.9906 7.41103 19.9613 7.50674 19.9616 7.60464C19.9616 7.80625 20.0827 7.98423 20.2696 8.05858H20.2697ZM21.7032 6.8671C21.8881 7.20695 22.1009 7.41972 22.4409 7.60464C22.1009 7.78961 21.8881 8.00238 21.7032 8.34222C21.5182 8.00238 21.3057 7.78975 20.9656 7.60464C21.3057 7.41972 21.5183 7.20695 21.7032 6.8671ZM2.27208 8.07269C2.8749 8.31236 3.01239 8.44971 3.25173 9.05229C3.28748 9.14344 3.34995 9.22165 3.43096 9.27665C3.51197 9.33165 3.60771 9.36086 3.70562 9.36045C3.80346 9.36082 3.89913 9.33164 3.98009 9.27672C4.06106 9.2218 4.12355 9.1437 4.15938 9.05266C4.39891 8.44971 4.53625 8.31236 5.13916 8.07269C5.32634 7.99834 5.44713 7.82036 5.44713 7.61894C5.44713 7.41751 5.32634 7.23934 5.13916 7.16518C4.53621 6.92551 4.39886 6.78817 4.15938 6.18521C4.12356 6.09415 4.06108 6.01602 3.98012 5.96107C3.89915 5.90612 3.80348 5.8769 3.70562 5.87724C3.50406 5.87724 3.32589 5.99827 3.25187 6.18521C3.01239 6.78817 2.8749 6.92551 2.2719 7.16518C2.18088 7.20104 2.1028 7.26354 2.04788 7.3445C1.99297 7.42546 1.96377 7.52111 1.96411 7.61894C1.96411 7.82017 2.08496 7.99834 2.27208 8.07269ZM3.70562 6.8814C3.89059 7.22125 4.10336 7.43401 4.44321 7.61894C4.10336 7.80386 3.89055 8.01663 3.70562 8.35647C3.5207 8.01663 3.30793 7.80386 2.96809 7.61894C3.30793 7.43401 3.52075 7.22125 3.70562 6.8814ZM4.52908 2.71316C5.00004 2.90028 5.09909 2.99933 5.28621 3.47029C5.32014 3.55658 5.37934 3.63062 5.45605 3.6827C5.53277 3.73479 5.62343 3.76249 5.71615 3.76218C5.80881 3.76251 5.89941 3.73484 5.97606 3.68278C6.05272 3.63073 6.11186 3.55672 6.14572 3.47047C6.33303 2.99938 6.43212 2.90028 6.90303 2.71316C6.98931 2.67928 7.06333 2.62011 7.11539 2.54342C7.16744 2.46673 7.1951 2.37609 7.19474 2.2834C7.19504 2.19073 7.16735 2.10012 7.11531 2.02344C7.06326 1.94677 6.98927 1.88759 6.90303 1.85365C6.43208 1.66634 6.33303 1.56724 6.1459 1.09648C6.11198 1.01022 6.05281 0.93621 5.97613 0.884137C5.89945 0.832065 5.80884 0.804354 5.71615 0.80463C5.62347 0.804261 5.53284 0.831914 5.45615 0.883961C5.37946 0.936009 5.32029 1.01002 5.2864 1.09629C5.09927 1.56724 4.99999 1.66629 4.52852 1.85379C4.44241 1.8878 4.36856 1.94699 4.31662 2.02364C4.26469 2.10029 4.23708 2.19082 4.23742 2.2834C4.23709 2.37608 4.26476 2.46669 4.3168 2.54338C4.36885 2.62006 4.44284 2.67924 4.52908 2.71316ZM5.71596 1.81868C5.83939 2.01753 5.98203 2.16017 6.18069 2.2834C5.98203 2.40664 5.83939 2.54928 5.71596 2.74794C5.59273 2.54928 5.45028 2.40664 5.25143 2.2834C5.45028 2.15998 5.59273 2.01753 5.71596 1.81868Z" fill="black"/>
<path id="Vector_28" d="M24.6211 20.4441L24.3919 20.2164C24.2542 20.0796 24.0315 20.0801 23.8947 20.2178C23.8622 20.2505 23.8364 20.2894 23.8188 20.3321C23.8013 20.3748 23.7923 20.4205 23.7924 20.4667C23.7926 20.5128 23.8018 20.5585 23.8196 20.6011C23.8374 20.6437 23.8634 20.6824 23.8962 20.715L24.0568 20.8746L22.4821 22.44L20.901 20.8684C20.8572 20.8249 20.8027 20.7937 20.743 20.7779C20.6833 20.7621 20.6205 20.7623 20.5609 20.7785C20.3986 20.8227 20.2311 20.8451 20.0629 20.8451C19.5637 20.8451 19.0944 20.6522 18.7419 20.3017L15.37 16.9498C15.3429 16.9228 15.3286 16.8886 15.3286 16.8509C15.3286 16.8131 15.3429 16.7789 15.37 16.752C15.4253 16.6971 15.5198 16.6971 15.5747 16.7518L17.4858 18.6515C17.5517 18.717 17.6408 18.7537 17.7337 18.7537C17.8266 18.7536 17.9156 18.7169 17.9815 18.6514L18.2679 18.3664C18.3344 18.3005 18.3715 18.2108 18.3715 18.1172C18.3715 18.0237 18.3344 17.934 18.2679 17.8679L15.7203 15.3355C15.7071 15.3226 15.6966 15.3072 15.6895 15.2902C15.6823 15.2731 15.6787 15.2549 15.6787 15.2364C15.6787 15.1987 15.6932 15.1645 15.7201 15.1375C15.7754 15.0826 15.8697 15.0824 15.925 15.1377L18.473 17.6701C18.6099 17.8065 18.8315 17.8063 18.9686 17.6701L19.2552 17.3852C19.288 17.3525 19.3141 17.3137 19.3319 17.2709C19.3497 17.2281 19.3588 17.1822 19.3588 17.1359C19.3588 17.0895 19.3497 17.0437 19.3319 17.0009C19.3141 16.9581 19.288 16.9192 19.2552 16.8866L16.7074 14.354C16.6803 14.3271 16.6661 14.2929 16.6661 14.2551C16.6661 14.2174 16.6803 14.1832 16.7074 14.1563C16.7627 14.1011 16.8568 14.1013 16.9123 14.1563L19.4601 16.6888C19.5259 16.7543 19.615 16.791 19.7079 16.791C19.8008 16.791 19.8899 16.7543 19.9557 16.6888L20.2423 16.4039C20.2752 16.3712 20.3013 16.3324 20.3191 16.2896C20.3369 16.2468 20.3461 16.201 20.3461 16.1546C20.3461 16.1083 20.337 16.0624 20.3192 16.0196C20.3014 15.9768 20.2754 15.938 20.2425 15.9053L18.3316 14.0059C18.3184 13.9931 18.3079 13.9777 18.3008 13.9606C18.2937 13.9436 18.2901 13.9253 18.2902 13.9069C18.2902 13.8692 18.3047 13.8349 18.3316 13.8082C18.3869 13.7531 18.4812 13.7531 18.5367 13.8082L20.9868 16.2439C21.0361 16.2929 21.0987 16.3262 21.1669 16.3396C21.235 16.353 21.3056 16.3459 21.3697 16.3192C21.4339 16.2925 21.4886 16.2474 21.5271 16.1896C21.5657 16.1319 21.5862 16.0639 21.5861 15.9945V15.115C21.5863 14.9674 21.7081 14.8471 21.8578 14.8471C22.0075 14.8471 22.1294 14.9673 22.1294 15.115V17.3207C22.1294 17.3859 22.1473 17.4496 22.1816 17.5051C22.4486 17.9389 22.5236 18.4704 22.3876 18.9636C22.371 19.0237 22.3708 19.0871 22.3868 19.1473C22.4028 19.2075 22.4346 19.2624 22.4788 19.3063L22.7241 19.5502C22.7569 19.5828 22.7957 19.6086 22.8384 19.6261C22.8811 19.6437 22.9268 19.6526 22.973 19.6525C23.0191 19.6524 23.0648 19.6431 23.1074 19.6254C23.15 19.6076 23.1887 19.5815 23.2212 19.5488C23.358 19.4111 23.3575 19.1884 23.2198 19.0516L23.1131 18.9454C23.2234 18.3585 23.1246 17.7464 22.8325 17.2253V15.115C22.8325 14.5796 22.3953 14.144 21.8577 14.144C21.3205 14.1442 20.8832 14.5796 20.883 15.115V15.1492L19.7613 14.0342C19.7805 13.9116 19.7908 13.7864 19.7908 13.6586C19.7908 13.236 19.6825 12.8383 19.4921 12.4911C19.6142 12.2903 19.6786 12.0598 19.6785 11.8248V10.675C19.6785 10.173 19.389 9.73659 18.9664 9.51984V8.14817C18.9664 6.42827 18.2908 4.97219 17.0123 3.93727C16.692 3.67801 16.3374 3.45057 15.9549 3.2565C15.7747 1.45692 14.2437 0.046814 12.3879 0.046814C10.532 0.046814 9.00121 1.45692 8.82083 3.2565C8.43833 3.45057 8.08367 3.67801 7.76361 3.93727C6.48513 4.97219 5.80928 6.42823 5.80928 8.14817V9.51984C5.38689 9.73682 5.09739 10.1731 5.09739 10.675V11.8248C5.09739 12.1926 5.2532 12.5246 5.5022 12.7615L5.37902 14.6301C5.26211 14.6508 5.15437 14.7069 5.0703 14.7907L4.60023 15.258C4.54542 15.3122 4.50195 15.3768 4.47237 15.448C4.4428 15.5192 4.4277 15.5955 4.42796 15.6726C4.42796 15.8112 4.47592 15.9421 4.56362 16.047L1.02562 19.9382C0.880545 20.0852 0.799463 20.2836 0.800052 20.4901C0.800052 20.7014 0.882834 20.9 1.03298 21.0493C1.10643 21.1227 1.19366 21.1808 1.28966 21.2204C1.38565 21.2599 1.48851 21.2801 1.59234 21.2798C1.79864 21.2804 1.99697 21.2002 2.14476 21.0562L6.06199 17.5367C6.16784 17.6268 6.30239 17.6762 6.4414 17.6759C6.51823 17.6762 6.59436 17.6612 6.66541 17.632C6.73646 17.6027 6.80103 17.5597 6.8554 17.5054L7.32556 17.0381C7.40977 16.9545 7.4664 16.8472 7.48784 16.7305L9.52049 16.598C9.57909 16.5941 9.63534 16.5818 9.68821 16.5628C9.99243 16.7038 10.3101 16.8136 10.6365 16.8906V17.5437H8.29424C6.19165 17.5437 4.48103 19.2451 4.48103 21.3364V22.5853C4.48103 22.9142 4.74873 23.1819 5.07775 23.1819H19.6981C20.0274 23.1819 20.2951 22.9142 20.2951 22.5853V21.5374C20.3781 21.5302 20.4607 21.5189 20.5426 21.5035L22.0534 23.0052C22.1097 23.0614 22.1766 23.106 22.2501 23.1363C22.3237 23.1666 22.4025 23.1821 22.4821 23.1819C22.6439 23.1819 22.7961 23.1191 22.9107 23.0052L24.6209 21.305C24.7352 21.1909 24.7996 21.0361 24.8 20.8746C24.7996 20.7131 24.7353 20.5583 24.6211 20.4441ZM14.1397 16.8908C14.3074 16.8514 14.4719 16.8035 14.6325 16.7474C14.6284 16.7815 14.6255 16.8159 14.6255 16.8509C14.6255 17.0766 14.7139 17.2889 14.8744 17.4485L14.9703 17.5438H14.1397V16.8908ZM19.0323 13.3092C18.9538 13.2308 18.8605 13.1686 18.7578 13.1263C18.6551 13.084 18.5451 13.0624 18.4341 13.0628C18.3231 13.0625 18.2131 13.0841 18.1104 13.1264C18.0078 13.1687 17.9145 13.2309 17.8359 13.3094C17.6918 13.4528 17.6059 13.6385 17.59 13.8382L17.408 13.6575C17.3295 13.579 17.2362 13.5168 17.1336 13.4745C17.031 13.4321 16.921 13.4105 16.81 13.4109C16.6989 13.4106 16.5889 13.4322 16.4863 13.4745C16.3836 13.5169 16.2903 13.579 16.2118 13.6575C16.1327 13.7356 16.07 13.8287 16.0273 13.9313C15.9846 14.0339 15.9628 14.144 15.9631 14.2551C15.9631 14.3062 15.9677 14.3568 15.9765 14.4062C15.8995 14.3923 15.8209 14.389 15.743 14.3964C15.634 14.1657 15.5775 13.9137 15.5779 13.6585C15.5779 12.6976 16.365 11.9161 17.3327 11.9161C18.1886 11.9161 18.9029 12.5275 19.0567 13.3336L19.0323 13.3092ZM18.9756 11.8246C18.9756 11.8299 18.975 11.8352 18.975 11.8405C18.6822 11.5781 18.3308 11.3897 17.9502 11.291V10.0765H18.3611C18.7 10.0765 18.9756 10.3449 18.9756 10.6748V11.8246ZM12.3881 0.749756C13.7385 0.749756 14.8748 1.67742 15.1856 2.92486C14.3367 2.61853 13.3871 2.45686 12.3881 2.45686C11.3891 2.45686 10.4395 2.61858 9.59038 2.92486C9.90131 1.67737 11.0377 0.749756 12.3881 0.749756ZM5.80071 10.6748C5.80071 10.3449 6.07643 10.0765 6.41524 10.0765H6.8261V11.9412C6.53896 11.9485 6.2535 11.9876 5.97499 12.0579C5.93768 12.0672 5.90196 12.0802 5.86811 12.0958C5.82389 12.0122 5.80075 11.9191 5.80071 11.8246V10.6748ZM1.66912 20.5382C1.66475 20.5422 1.66047 20.5463 1.65628 20.5505C1.6479 20.5589 1.63793 20.5656 1.62695 20.5701C1.61597 20.5746 1.6042 20.5768 1.59234 20.5767C1.57532 20.5767 1.55043 20.5721 1.52863 20.5505C1.50754 20.5299 1.50318 20.5062 1.50318 20.4901C1.50318 20.474 1.50759 20.4504 1.52863 20.4295C1.53285 20.4255 1.53688 20.4211 1.54092 20.4167L5.0613 16.5451L5.56099 17.0417L1.66912 20.5382ZM6.4414 16.9256L5.18069 15.6724L5.48444 15.3704L6.74515 16.6236L6.4414 16.9256ZM9.40917 15.9005L7.16262 16.047L7.12714 16.0117L8.38653 15.2675C8.42629 15.2441 8.46103 15.213 8.48876 15.1761C8.5165 15.1392 8.5367 15.0972 8.54819 15.0525C8.55968 15.0078 8.56225 14.9612 8.55575 14.9155C8.54924 14.8698 8.53379 14.8259 8.51028 14.7861C8.48682 14.7464 8.45575 14.7116 8.41885 14.6839C8.38196 14.6562 8.33996 14.636 8.29525 14.6244C8.25055 14.6129 8.20401 14.6103 8.15831 14.6168C8.1126 14.6233 8.06862 14.6387 8.02888 14.6622L6.61882 15.4953L7.45489 14.0971C7.50067 14.0172 7.51325 13.9225 7.48994 13.8333C7.46662 13.7442 7.40927 13.6678 7.33021 13.6205C7.25115 13.5733 7.15669 13.5589 7.06715 13.5805C6.9776 13.6022 6.90013 13.6581 6.85137 13.7362L6.1008 14.9916L6.06255 14.9533L6.20955 12.7246C6.44505 12.6704 6.68215 12.6429 6.91545 12.6429C7.63231 12.6429 8.28711 12.9017 8.75952 13.3711C9.39196 13.9997 9.63257 14.9412 9.40921 15.9005L9.40917 15.9005ZM9.25518 12.8725C8.79027 12.4103 8.19153 12.1084 7.52923 11.9931V8.73266H8.90947C9.10377 8.73266 9.26104 8.57535 9.26104 8.3811C9.26104 8.28786 9.224 8.19843 9.15807 8.1325C9.09214 8.06657 9.00272 8.02953 8.90947 8.02953H7.46698C7.11354 8.02953 6.8261 8.31627 6.8261 8.66877V9.37331H6.5126V8.14799C6.5126 6.6476 7.09817 5.38052 8.2062 4.48347C9.26048 3.63001 10.7457 3.1598 12.3881 3.1598C14.0306 3.1598 15.5158 3.63001 16.5701 4.48347C17.6779 5.38052 18.2635 6.6476 18.2635 8.14799V9.37331H17.9502V8.66877C17.9502 8.31627 17.6627 8.02953 17.3093 8.02953H15.8011C15.1704 8.02953 14.5693 7.697 14.2326 7.16215C14.1148 6.97428 13.912 6.86239 13.6897 6.86239C13.4675 6.86239 13.2645 6.97428 13.1468 7.16178C12.81 7.697 12.2091 8.02972 11.5783 8.02972H10.5501C10.4569 8.02972 10.3674 8.06676 10.3015 8.13269C10.2356 8.19862 10.1985 8.28804 10.1985 8.38128C10.1985 8.47453 10.2356 8.56395 10.3015 8.62988C10.3674 8.69581 10.4569 8.73285 10.5501 8.73285H11.5783C12.4167 8.73285 13.2169 8.30732 13.6897 7.61591C14.1625 8.30713 14.9626 8.73285 15.8011 8.73285H17.247V11.215C15.9313 11.2605 14.8747 12.3388 14.8747 13.6586C14.8747 14.0497 14.9681 14.4194 15.1331 14.7477C15.0306 14.89 14.9756 15.061 14.9758 15.2364C14.9758 15.421 15.0358 15.596 15.1452 15.7413C14.514 16.1091 13.7794 16.3206 12.9953 16.3206H11.7813C11.1886 16.3206 10.6241 16.1996 10.1112 15.9818C10.3591 14.8099 10.0449 13.6575 9.25518 12.8725ZM10.6552 18.2469C11.0328 18.2469 11.3397 17.9407 11.3397 17.5644V17.0039C11.4852 17.0167 11.6325 17.0237 11.7813 17.0237H12.9953C13.144 17.0237 13.2912 17.0169 13.4366 17.0039V17.5644C13.4366 17.9407 13.7436 18.2469 14.1213 18.2469H14.2046L12.3881 21.0279L10.5717 18.2469H10.6552ZM5.18416 22.4788V21.3364C5.18416 19.6328 6.57926 18.2469 8.29424 18.2469H8.33216L11.0961 22.4788H5.18416ZM13.68 22.4788L14.4661 21.2753C14.5171 21.1972 14.5349 21.1021 14.5158 21.0108C14.4966 20.9195 14.442 20.8396 14.364 20.7886C14.2859 20.7376 14.1907 20.7198 14.0995 20.7389C14.0082 20.7581 13.9283 20.8127 13.8773 20.8907L13.075 22.1194C13.0133 22.2137 12.9329 22.2943 12.8388 22.3561C12.7446 22.418 12.6387 22.4598 12.5277 22.4788H12.2484C12.1374 22.4597 12.0315 22.418 11.9374 22.3561C11.8433 22.2943 11.7629 22.2137 11.7013 22.1194L9.17188 18.2469H9.73181L12.0937 21.8632C12.1257 21.9121 12.1694 21.9522 12.2208 21.98C12.2721 22.0077 12.3296 22.0223 12.388 22.0223C12.4464 22.0223 12.5039 22.0077 12.5553 21.98C12.6067 21.9522 12.6504 21.9121 12.6824 21.8632L15.0443 18.2469H15.6042L14.7652 19.5314C14.7142 19.6095 14.6964 19.7046 14.7155 19.7959C14.7347 19.8872 14.7893 19.9671 14.8674 20.0181C15.0298 20.1242 15.2477 20.0785 15.3539 19.9159L16.1423 18.7088L18.2463 20.8003C18.6185 21.1704 19.0851 21.4122 19.5919 21.5051V22.4788L13.68 22.4788Z" fill="black"/>
<path id="Vector_29" d="M20.0657 20.8452C20.234 20.8452 20.4015 20.8227 20.5635 20.7786C20.6849 20.7458 20.8146 20.7799 20.9038 20.8685L22.4848 22.4401L22.8355 22.0914L21.1253 20.3915C20.9132 20.4493 20.6943 20.4785 20.4744 20.4785C19.8205 20.4785 19.206 20.2254 18.744 19.7664L17.7249 18.7532C17.636 18.7506 17.5515 18.7142 17.4885 18.6516L15.5776 16.7519C15.5225 16.6972 15.4282 16.6972 15.3727 16.7521C15.3595 16.7649 15.349 16.7803 15.3419 16.7973C15.3348 16.8143 15.3312 16.8326 15.3313 16.851C15.3313 16.8889 15.3458 16.923 15.3729 16.9499L18.7448 20.3018C19.0973 20.6522 19.5663 20.8452 20.0657 20.8452Z" fill="#FFAF68"/>
</g>
</g>
<defs>
<clipPath id="clip0_1_337">
<rect width="24" height="24" fill="white" transform="translate(0.800049)"/>
</clipPath>
</defs>
</svg>
