<svg width="63" height="22" viewBox="0 0 63 22" fill="none" xmlns="http://www.w3.org/2000/svg">
<path id="Union" fill-rule="evenodd" clip-rule="evenodd" d="M2.8703 0H60.7297H60.7373H62.7964V1.69231H60.7373V3.38545H62.7964V5.07776H60.7373V6.76706H62.7964V8.45937H60.7373V10.1563H62.7964V11.8487H60.7373V13.5418H62.7964V15.2341H60.7373V16.9234H62.7964V18.6157H60.7373V20.305H62.7964V21.9973H60.7373V22H2.8703V0ZM0.799988 20.305H2.86667V21.9973H0.799988V20.305ZM0.799988 16.9234H2.86667V18.6157H0.799988V16.9234ZM0.799988 13.5418H2.86667V15.2341H0.799988V13.5418ZM0.799988 10.1563H2.86667V11.8487H0.799988V10.1563ZM0.799988 6.76706H2.86667V8.45937H0.799988V6.76706ZM0.799988 3.38545H2.86667V5.07776H0.799988V3.38545ZM0.799988 0H2.86667V1.69231H0.799988V0Z" fill="#F97316"/>
</svg>
