<svg width="15" height="16" viewBox="0 0 15 16" fill="none" xmlns="http://www.w3.org/2000/svg">
<path d="M7.60811 14.3196C8.56528 14.3196 9.34121 13.4974 9.34121 12.4831C9.34121 11.4688 8.56528 10.6465 7.60811 10.6465C6.65094 10.6465 5.875 11.4688 5.875 12.4831C5.875 13.4974 6.65094 14.3196 7.60811 14.3196Z" stroke="#9C9C9C" stroke-linecap="round" stroke-linejoin="round"/>
<path d="M7.61703 10.6445V2.38M7.61703 2.38L6.3172 3.75741M7.61703 2.38L8.91686 3.75741M6.77648 10.9016C6.27988 10.7443 5.82133 10.4749 5.43239 10.1119C5.04344 9.7489 4.73335 9.3009 4.52344 8.79873" stroke="#9C9C9C" stroke-linecap="round" stroke-linejoin="round"/>
<path d="M4.36444 8.80691C4.96267 8.80691 5.44763 8.29301 5.44763 7.65907C5.44763 7.02514 4.96267 6.51123 4.36444 6.51123C3.76621 6.51123 3.28125 7.02514 3.28125 7.65907C3.28125 8.29301 3.76621 8.80691 4.36444 8.80691Z" stroke="#9C9C9C" stroke-linecap="round" stroke-linejoin="round"/>
<path d="M7.64062 9.81922C8.30581 9.60618 8.92005 9.24424 9.44181 8.75787C9.96357 8.27151 10.3807 7.67208 10.6649 7.00012" stroke="#9C9C9C" stroke-linecap="round" stroke-linejoin="round"/>
<path d="M10.9113 7.03463C11.5095 7.03463 11.9945 6.52073 11.9945 5.88679C11.9945 5.25286 11.5095 4.73895 10.9113 4.73895C10.3131 4.73895 9.82812 5.25286 9.82812 5.88679C9.82812 6.52073 10.3131 7.03463 10.9113 7.03463Z" stroke="#9C9C9C" stroke-linecap="round" stroke-linejoin="round"/>
</svg>
