<svg width="15" height="16" viewBox="0 0 15 16" fill="none" xmlns="http://www.w3.org/2000/svg">
<path d="M10.1337 11.5762H11.7605C11.9762 11.5762 12.1831 11.4892 12.3356 11.3342C12.4881 11.1792 12.5738 10.969 12.5738 10.7498V7.0311C12.5738 6.81193 12.4881 6.60173 12.3356 6.44675C12.1831 6.29178 11.9762 6.20471 11.7605 6.20471H2.81337C2.59765 6.20471 2.39077 6.29178 2.23823 6.44675C2.08569 6.60173 2 6.81193 2 7.0311V10.7498C2 10.969 2.08569 11.1792 2.23823 11.3342C2.39077 11.4892 2.59765 11.5762 2.81337 11.5762H4.44012" stroke="#9C9C9C" stroke-linecap="round" stroke-linejoin="round"/>
<path d="M10.1311 6.20557V3.31322C10.1311 3.20363 10.0883 3.09853 10.012 3.02105C9.93572 2.94356 9.83228 2.90002 9.72442 2.90002H4.84419C4.73633 2.90002 4.63288 2.94356 4.55662 3.02105C4.48035 3.09853 4.4375 3.20363 4.4375 3.31322V6.20557M10.5378 8.27153H9.72442M4.4375 10.3375V13.2299C4.4375 13.3394 4.48035 13.4445 4.55662 13.522C4.63288 13.5995 4.73633 13.643 4.84419 13.643H9.72442C9.83228 13.643 9.93572 13.5995 10.012 13.522C10.0883 13.4445 10.1311 13.3394 10.1311 13.2299V10.3375H4.4375Z" stroke="#9C9C9C" stroke-linecap="round" stroke-linejoin="round"/>
</svg>
