<svg width="25" height="24" viewBox="0 0 25 24" fill="none" xmlns="http://www.w3.org/2000/svg">
<g id="Frame">
<g id="Group">
<g id="Group_2">
<path id="Vector" fill-rule="evenodd" clip-rule="evenodd" d="M7.68199 1.92188H8.92614C9.01708 2.68842 9.66916 3.28289 10.4602 3.28289C11.2512 3.28289 11.9032 2.68842 11.9942 1.92188H13.2383C13.2186 2.88516 13.5093 3.88177 14.1386 4.62347L13.8934 11.2651L15.1047 19.7013H5.81561L7.02696 11.2651L6.78171 4.62342C7.41096 3.88177 7.70172 2.88516 7.68199 1.92188Z" fill="#DFBDF0"/>
<path id="Vector_2" fill-rule="evenodd" clip-rule="evenodd" d="M14.0099 22.074H21.9517C22.2244 22.074 22.459 21.9674 22.6385 21.7622C22.8179 21.557 22.8921 21.3102 22.8558 21.04L22.1215 15.5873C22.0602 15.1318 21.677 14.7969 21.2174 14.7969H14.7441C14.2845 14.7969 13.9014 15.1318 13.8401 15.5873L13.1059 21.04C13.0695 21.3102 13.1437 21.557 13.3232 21.7622C13.5026 21.9674 13.7373 22.074 14.0099 22.074Z" fill="#FFD266"/>
<path id="Vector_3" fill-rule="evenodd" clip-rule="evenodd" d="M21.8635 7.8098L21.4667 8.6176L23.3458 10.8123C21.3212 11.6835 19.3283 10.9267 17.3673 8.54213C14.8407 8.04207 12.7416 7.67279 12.2297 5.3521L15.1152 5.49779L15.512 4.68999C16.3735 2.93607 18.4938 2.21265 20.2477 3.07416C22.0016 3.93563 22.725 6.05588 21.8635 7.8098Z" fill="#DFBDF0"/>
<path id="Vector_4" fill-rule="evenodd" clip-rule="evenodd" d="M15.1196 5.48791L15.5165 4.67969L21.8711 7.80039L21.4742 8.60861L15.1196 5.48791ZM11.0675 10.3401L8.52604 14.7421C8.14574 15.4008 7.29829 15.6278 6.6396 15.2475L2.94299 13.1132C2.2843 12.733 2.05719 11.8855 2.43749 11.2268L4.97896 6.82487C5.198 6.44542 5.54525 6.21053 5.97899 6.14833L8.66577 5.7632C9.30421 5.6717 9.9036 6.01778 10.1436 6.61642L11.1534 9.13581C11.3164 9.54245 11.2866 9.96072 11.0675 10.3401ZM9.02919 6.84006C8.72783 6.66606 8.34252 6.76933 8.16852 7.07069C7.99452 7.37205 8.09779 7.75736 8.39915 7.93136C8.7005 8.10531 9.08582 8.00209 9.25982 7.70073C9.43377 7.39937 9.3305 7.01406 9.02919 6.84006Z" fill="#FD4755"/>
<path id="Vector_5" fill-rule="evenodd" clip-rule="evenodd" d="M5.55578 9.38494C5.61503 9.28003 5.7138 9.20494 5.83014 9.17358C5.88771 9.15772 5.94786 9.15357 6.00706 9.16137C6.06625 9.16917 6.12328 9.18877 6.17477 9.219C6.39208 9.34411 6.46671 9.62217 6.3416 9.83883C6.28014 9.94373 6.18358 10.0193 6.06503 10.0506C5.94869 10.0816 5.82479 10.0653 5.72046 10.0052C5.66869 9.97565 5.62337 9.93604 5.58718 9.88869C5.55099 9.84134 5.52466 9.78722 5.50975 9.72952C5.47896 9.61233 5.49433 9.48984 5.55578 9.38494ZM5.48557 10.411C5.62567 10.4921 5.78464 10.5348 5.94649 10.5348C6.02772 10.5348 6.10671 10.5245 6.18794 10.5034C6.42499 10.4391 6.62472 10.2868 6.74763 10.0733C7.00221 9.63253 6.8508 9.06713 6.40961 8.81273C6.30474 8.75199 6.18888 8.71259 6.06871 8.69681C5.94855 8.68102 5.82645 8.68917 5.70944 8.72077C5.47019 8.78442 5.27266 8.93738 5.14975 9.15052C5.08896 9.25541 5.04952 9.37129 5.0337 9.49149C5.01787 9.61168 5.02598 9.73382 5.05755 9.85088C5.12121 10.089 5.27266 10.2879 5.48557 10.411ZM6.95613 13.001C6.73882 12.8759 6.66419 12.5978 6.7893 12.3807C6.87269 12.2354 7.02635 12.154 7.18436 12.154C7.26119 12.154 7.33797 12.1735 7.41044 12.2148C7.62555 12.3401 7.70017 12.618 7.57507 12.835C7.51496 12.9391 7.416 13.015 7.29994 13.0461C7.18388 13.0772 7.06022 13.061 6.95613 13.001ZM7.9811 13.0695C8.23567 12.6287 8.08427 12.0629 7.64308 11.8089C7.2041 11.5544 6.63785 11.7058 6.38322 12.1465C6.12864 12.587 6.28005 13.1524 6.72124 13.4068C6.86122 13.488 7.0203 13.5306 7.18216 13.5301C7.50044 13.5301 7.80991 13.3646 7.9811 13.0695ZM8.27519 10.3937C8.38713 10.3291 8.42444 10.1856 8.36078 10.0734C8.29492 9.9615 8.15228 9.92264 8.04035 9.98784L4.85561 11.8262C4.74367 11.891 4.70416 12.0343 4.77002 12.1464C4.79088 12.1821 4.82069 12.2116 4.8565 12.2322C4.89231 12.2527 4.93287 12.2636 4.97416 12.2636C5.01502 12.2634 5.05511 12.2525 5.0905 12.232L8.27519 10.3937ZM8.37175 7.18922C8.42444 7.09749 8.51003 7.03228 8.61321 7.00463C8.64684 6.99554 8.68154 6.99097 8.71638 6.99103C8.78444 6.99103 8.85246 7.00945 8.91171 7.04461C9.10267 7.15327 9.16633 7.39622 9.0566 7.58498C8.94906 7.77394 8.70541 7.83872 8.51664 7.72983C8.42444 7.67695 8.36078 7.59155 8.33228 7.4895C8.30594 7.38717 8.31911 7.28072 8.37175 7.18922ZM8.2818 8.13586C8.41267 8.21117 8.56098 8.2509 8.71197 8.25108C9.01267 8.25108 9.30241 8.09634 9.46263 7.81936C9.70188 7.40648 9.55919 6.87666 9.1466 6.63853C8.73396 6.39994 8.20502 6.54197 7.96577 6.95503C7.85161 7.15371 7.82083 7.38953 7.88017 7.61086C7.93938 7.83384 8.08206 8.01994 8.2818 8.13586ZM17.9984 8.90691C19.5919 9.23831 21.3039 9.68827 22.8534 10.7453C21.2139 11.2712 19.616 10.6665 17.9984 8.90691ZM12.5398 5.60081C13.117 7.46203 14.9607 7.82597 17.2631 8.28052C18.8148 8.58712 20.5291 8.92603 22.1576 9.78159L21.3213 8.80509L15.0573 5.7277L12.5398 5.60081ZM13.668 11.0306H10.9398L11.2712 10.4584C11.5279 10.014 11.5631 9.5265 11.3721 9.04978L10.3625 6.5303C10.2281 6.19395 9.98438 5.91262 9.67065 5.73158C9.35693 5.55055 8.99141 5.48035 8.63294 5.53228L7.05925 5.75836L7.01974 4.70395C7.56846 4.02375 7.88669 3.11114 7.91744 2.15639H8.73171C8.92047 2.9452 9.63161 3.51717 10.4613 3.51717C11.2909 3.51717 12.002 2.9452 12.1908 2.15639H13.0073C13.0358 3.11114 13.3563 4.02375 13.9028 4.70395L13.8852 5.19956L12.2435 5.11659C12.1711 5.11284 12.1008 5.14378 12.0525 5.19956C12.0042 5.25534 11.9867 5.32992 12.002 5.40108C12.2632 6.58364 12.9085 7.29061 13.7886 7.76119L13.668 11.0306ZM14.1552 14.7255L13.6921 11.4995H10.6698L8.7295 14.8605C8.51439 15.2332 8.16541 15.5003 7.74841 15.612C7.60792 15.6493 7.46744 15.6682 7.327 15.6682C7.09423 15.6681 6.86429 15.6172 6.65317 15.5192L6.08692 19.4669H13.0775L13.6043 15.5609C13.6526 15.1976 13.8611 14.8975 14.1552 14.7255ZM15.674 15.0362V16.4069C15.674 16.5362 15.7794 16.6413 15.9089 16.6413C16.0383 16.6413 16.1437 16.5362 16.1437 16.4069V15.0362H19.8113V16.4069C19.8113 16.4692 19.8361 16.5289 19.8801 16.573C19.9241 16.617 19.9839 16.6418 20.0462 16.6418C20.1084 16.6418 20.1682 16.617 20.2122 16.573C20.2563 16.5289 20.281 16.4692 20.281 16.4069V15.0362H21.2138C21.5562 15.0362 21.8394 15.2827 21.8854 15.6236L22.6207 21.076C22.6471 21.2786 22.5922 21.459 22.4583 21.6129C22.3244 21.7665 22.1532 21.8445 21.9491 21.8445H14.0059C13.8018 21.8445 13.6306 21.7665 13.4967 21.6129C13.3607 21.459 13.308 21.2786 13.3343 21.076L14.0696 15.6236C14.1157 15.2827 14.3966 15.0362 14.7412 15.0362H15.674ZM16.1438 14.0227C16.1438 13.0113 16.9668 12.1886 17.9765 12.1886C18.9883 12.1886 19.8114 13.0112 19.8114 14.0227V14.5674H16.1438V14.0227H16.1438ZM2.52686 12.2147C2.6081 12.5115 2.79686 12.759 3.06021 12.9114L6.75635 15.0457C7.02194 15.1984 7.33141 15.2388 7.62771 15.1596C7.924 15.0797 8.17202 14.8905 8.32347 14.626L10.8651 10.224C11.0473 9.90858 11.0714 9.56269 10.9353 9.22425L9.92571 6.70519C9.74791 6.25875 9.33531 5.9842 8.86999 5.9842C8.8151 5.9842 8.75805 5.98838 8.6988 5.99625L6.0123 6.38166C5.65235 6.43322 5.36481 6.6277 5.18266 6.94308L2.641 11.3453C2.4896 11.6096 2.44788 11.9187 2.52686 12.2147ZM17.623 3.1215C18.4571 2.83659 19.3548 2.89411 20.1449 3.28327C21.7098 4.05145 22.3968 5.90016 21.7494 7.49077L15.8365 4.58545C16.2359 3.89738 16.8615 3.38114 17.623 3.1215ZM21.3609 8.30264L15.4304 5.38941L15.6214 5.00222L21.5519 7.9155L21.3609 8.30264ZM23.525 10.6586L21.7472 8.58098L22.0765 7.91175C22.9917 6.04458 22.2191 3.77972 20.3535 2.86228C19.4492 2.41781 18.4242 2.35284 17.4716 2.67811C16.5169 3.00338 15.7465 3.68072 15.3031 4.58498L14.9739 5.25417L14.3528 5.22277L14.3747 4.63167C14.3768 4.57346 14.3572 4.51654 14.3198 4.47188C13.7623 3.81563 13.4551 2.88806 13.4748 1.92652C13.4749 1.86354 13.4505 1.80298 13.4067 1.75772C13.385 1.73545 13.3591 1.71776 13.3304 1.7057C13.3018 1.69364 13.271 1.68745 13.2399 1.6875H11.9955C11.877 1.6875 11.776 1.77619 11.7628 1.89427C11.6838 2.5523 11.1263 3.04833 10.4613 3.04833C9.79844 3.04833 9.23875 2.5523 9.15977 1.89427C9.1466 1.77619 9.04563 1.6875 8.92713 1.6875H7.68264C7.65158 1.68766 7.62086 1.69395 7.59224 1.706C7.56361 1.71805 7.53764 1.73562 7.51582 1.75772C7.47202 1.80298 7.4476 1.86354 7.44775 1.92652C7.46749 2.88806 7.16022 3.81563 6.60494 4.47188C6.56763 4.51641 6.54569 4.57369 6.54789 4.63167L6.59397 5.82478L5.94649 5.91764C5.43728 5.9903 5.03341 6.264 4.77663 6.70866L2.23497 11.1109C2.01986 11.4836 1.96282 11.919 2.07475 12.336C2.18669 12.7537 2.45444 13.102 2.82757 13.3171L6.21644 15.2743L5.58433 19.668C5.57992 19.7012 5.58253 19.7351 5.59198 19.7673C5.60144 19.7995 5.61753 19.8293 5.63922 19.8549C5.6853 19.9061 5.74896 19.9355 5.81702 19.9355H13.0161L12.8691 21.0136C12.8252 21.3511 12.9196 21.6648 13.1434 21.9212C13.3673 22.1775 13.6658 22.313 14.006 22.313H21.9492C22.2894 22.313 22.5879 22.1775 22.8118 21.9212C23.0357 21.6648 23.13 21.3508 23.0839 21.0136L22.3509 15.5607C22.2718 14.985 21.7956 14.5673 21.214 14.5673H20.2811V14.0226C20.2811 12.7528 19.2474 11.7197 17.9765 11.7197C16.7079 11.7197 15.6741 12.7529 15.6741 14.0226V14.5673H14.7413C14.6952 14.5673 14.6513 14.5706 14.6074 14.5753L14.1289 11.2525L14.2496 7.97822C15.0947 8.32983 16.1021 8.52891 17.171 8.7405C17.1951 8.74509 17.2193 8.74973 17.2434 8.75456C18.7052 10.5118 20.2086 11.3945 21.7319 11.3945C22.2981 11.3945 22.8688 11.272 23.4395 11.0271V11.026C23.4694 11.0136 23.4963 10.9951 23.5185 10.9716C23.5997 10.8845 23.6041 10.7495 23.525 10.6586Z" fill="black"/>
</g>
</g>
</g>
</svg>
