<svg width="25" height="24" viewBox="0 0 25 24" fill="none" xmlns="http://www.w3.org/2000/svg">
<g id="Frame" clip-path="url(#clip0_1_395)">
<g id="Group">
<path id="Vector" d="M10.6918 18.1019C11.4578 17.3879 11.5757 16.2694 10.9552 15.6038C10.3347 14.9382 9.21079 14.9774 8.4448 15.6915C7.67882 16.4055 7.56086 17.524 8.18135 18.1896C8.80184 18.8552 9.92579 18.816 10.6918 18.1019Z" fill="#16A34A"/>
<path id="Vector_2" d="M20.8324 18.1019C21.5984 17.3879 21.7163 16.2694 21.0959 15.6038C20.4754 14.9382 19.3514 14.9774 18.5854 15.6915C17.8194 16.4055 17.7015 17.524 18.322 18.1896C18.9425 18.8552 20.0664 18.816 20.8324 18.1019Z" fill="#16A34A"/>
<path id="Vector_3" d="M2.65864 9.36289C2.65864 8.92085 2.3003 8.5625 1.85825 8.5625C1.41621 8.5625 1.05786 8.92085 1.05786 9.36289C1.05786 9.80493 1.41621 10.1633 1.85825 10.1633C2.3003 10.1633 2.65864 9.80493 2.65864 9.36289Z" fill="#16A34A"/>
<path id="Vector_4" d="M17.0447 16.7272C17.3293 15.3209 18.6577 14.2034 20.0855 14.2034C21.4604 14.2034 22.4513 15.2398 22.4241 16.5725C23.911 16.6114 24.3249 14.6534 24.3249 14.6534C24.45 14.1059 24.6371 13.0386 24.7936 11.9909C24.845 11.6675 24.8055 11.3361 24.6797 11.0338C24.2911 10.1264 23.8214 9.25604 23.2763 8.43313C22.7607 7.66391 21.8958 7.20828 20.9086 7.19188C20.3199 7.1825 19.7419 7.17687 19.3055 7.17687L19.3018 7.17312C19.2455 6.23187 18.5593 5.51094 17.596 5.42469C16.9693 5.36891 14.4868 5.32812 13.2952 5.32812C12.8218 5.32812 12.1425 5.33469 11.4554 5.34594V5.34312H3.18755C3.08239 5.34306 2.97825 5.36373 2.88109 5.40394C2.78393 5.44416 2.69564 5.50313 2.62128 5.57748C2.54693 5.65184 2.48796 5.74013 2.44774 5.83729C2.40753 5.93446 2.38686 6.03859 2.38692 6.14375V6.1475C2.38692 6.35884 2.47088 6.56153 2.62032 6.71098C2.76977 6.86042 2.97245 6.94438 3.1838 6.94438H4.84927C5.04981 6.95916 5.23735 7.04922 5.37428 7.19649C5.5112 7.34376 5.58738 7.53735 5.58755 7.73844V7.74266C5.58786 7.84791 5.56741 7.9522 5.52737 8.04955C5.48733 8.14689 5.42849 8.23539 5.35421 8.30997C5.27994 8.38455 5.19168 8.44375 5.0945 8.48419C4.99732 8.52463 4.89312 8.5455 4.78786 8.54562H3.9338C3.72158 8.54562 3.51806 8.62993 3.368 8.77999C3.21794 8.93004 3.13364 9.13357 3.13364 9.34578C3.13358 9.4509 3.15423 9.555 3.19442 9.65213C3.2346 9.74927 3.29353 9.83753 3.36784 9.91188C3.44214 9.98623 3.53037 10.0452 3.62748 10.0855C3.72459 10.1257 3.82868 10.1464 3.9338 10.1464H4.78786C5.0002 10.1464 5.20384 10.2308 5.35399 10.3809C5.50414 10.5311 5.58849 10.7347 5.58849 10.947C5.58849 11.1594 5.50414 11.363 5.35399 11.5132C5.20384 11.6633 5.0002 11.7477 4.78786 11.7477H1.59286C1.3806 11.7477 1.17703 11.8319 1.0269 11.982C0.876767 12.132 0.792361 12.3356 0.792236 12.5478C0.792236 12.7602 0.876588 12.9638 1.02673 13.1139C1.17688 13.2641 1.38052 13.3484 1.59286 13.3484H4.78786C5.0002 13.3484 5.20384 13.4328 5.35399 13.5829C5.50414 13.7331 5.58849 13.9367 5.58849 14.1491C5.58824 14.3612 5.50378 14.5646 5.35366 14.7146C5.20354 14.8645 5.00004 14.9488 4.78786 14.9488H3.79974C3.58752 14.9488 3.384 15.0331 3.23394 15.1831C3.08388 15.3332 2.99958 15.5367 2.99958 15.7489C2.99958 15.9612 3.08387 16.1647 3.23391 16.3149C3.38396 16.465 3.58748 16.5494 3.79974 16.5495L6.95255 16.5472L7.21458 15.8942C7.7513 14.9042 8.81911 14.203 9.94974 14.203C11.378 14.203 12.3924 15.3214 12.2808 16.7286H17.0443M9.10364 8.91828H8.02927C8.02825 8.91836 8.02729 8.91877 8.02653 8.91945C8.02577 8.92013 8.02525 8.92103 8.02505 8.92203L7.92614 9.62516C7.926 9.62572 7.92598 9.62631 7.92611 9.62688C7.92623 9.62745 7.92648 9.62798 7.92685 9.62844C7.92721 9.62889 7.92767 9.62926 7.9282 9.6295C7.92873 9.62975 7.92931 9.62986 7.92989 9.62984H8.72958C8.76883 9.62873 8.80784 9.63639 8.84376 9.65226C8.87967 9.66813 8.91159 9.69182 8.93719 9.7216C8.96279 9.75137 8.98143 9.78649 8.99173 9.82438C9.00204 9.86227 9.00376 9.90198 8.99677 9.94063C8.98306 10.0256 8.94018 10.1031 8.8755 10.1598C8.81082 10.2165 8.72839 10.2489 8.64239 10.2514H7.84177C7.84079 10.2514 7.83984 10.2517 7.83907 10.2523C7.8383 10.2529 7.83777 10.2537 7.83755 10.2547L7.69411 11.2761C7.68041 11.361 7.63753 11.4385 7.57284 11.4953C7.50816 11.552 7.42573 11.5844 7.33974 11.5869C7.3005 11.588 7.2615 11.5804 7.2256 11.5645C7.1897 11.5486 7.1578 11.5249 7.13224 11.4951C7.10667 11.4653 7.08809 11.4302 7.07784 11.3923C7.06759 11.3544 7.06595 11.3147 7.07302 11.2761L7.44521 8.62672C7.45995 8.53702 7.50543 8.45524 7.57384 8.39538C7.64225 8.33552 7.72934 8.3013 7.82021 8.29859H9.19036C9.2296 8.29746 9.26859 8.30512 9.3045 8.32099C9.3404 8.33687 9.3723 8.36057 9.39786 8.39036C9.42343 8.42014 9.44201 8.45527 9.45226 8.49316C9.4625 8.53106 9.46415 8.57076 9.45708 8.60938C9.44319 8.69389 9.40032 8.77093 9.33583 8.82729C9.27134 8.88366 9.18925 8.91583 9.10364 8.91828ZM11.9752 8.50953C12.0868 8.60856 12.1654 8.73945 12.2002 8.88453C12.2392 9.04889 12.2455 9.21929 12.219 9.38609C12.1864 9.64565 12.0801 9.89045 11.9129 10.0916C11.8107 10.2123 11.681 10.3067 11.5346 10.3667C11.5339 10.3674 11.5336 10.3683 11.5336 10.3693C11.5336 10.3703 11.5339 10.3712 11.5346 10.3719L11.8008 11.1402C11.8725 11.3464 11.6883 11.5869 11.4591 11.5869H11.4441C11.3885 11.5885 11.3338 11.5724 11.288 11.5409C11.2421 11.5094 11.2075 11.4641 11.1891 11.4116L10.8671 10.4741C10.8666 10.4734 10.866 10.4728 10.8653 10.4724C10.8645 10.472 10.8637 10.4717 10.8629 10.4717H10.1785C10.1775 10.4718 10.1766 10.4721 10.1759 10.4727C10.1751 10.4733 10.1746 10.4741 10.1743 10.475L10.0618 11.2756C10.0481 11.3606 10.0052 11.4381 9.9405 11.4948C9.87582 11.5515 9.79339 11.5839 9.70739 11.5864C9.66815 11.5875 9.62916 11.5799 9.59326 11.564C9.55736 11.5481 9.52546 11.5244 9.49989 11.4946C9.47433 11.4649 9.45574 11.4297 9.4455 11.3918C9.43525 11.3539 9.4336 11.3142 9.44067 11.2756L9.81286 8.62625C9.82761 8.53655 9.87308 8.45477 9.94149 8.39491C10.0099 8.33505 10.097 8.30084 10.1879 8.29812H11.2472C11.2472 8.29812 11.7122 8.28359 11.9752 8.50953ZM14.8908 8.58734C14.8781 8.66668 14.8381 8.73908 14.7776 8.79205C14.7172 8.84502 14.6402 8.87524 14.5599 8.8775H13.3275C13.3266 8.87755 13.3257 8.87789 13.3249 8.87848C13.3242 8.87907 13.3236 8.87987 13.3233 8.88078L13.2254 9.57641C13.2252 9.57697 13.2252 9.57756 13.2253 9.57813C13.2254 9.5787 13.2257 9.57923 13.2261 9.57969C13.2264 9.58014 13.2269 9.58051 13.2274 9.58075C13.228 9.581 13.2285 9.58111 13.2291 9.58109H14.1863C14.223 9.58001 14.2594 9.58713 14.2929 9.60194C14.3265 9.61675 14.3563 9.63886 14.3802 9.66668C14.4041 9.69449 14.4215 9.72729 14.4311 9.76269C14.4407 9.79808 14.4423 9.83517 14.4357 9.87125C14.4229 9.95058 14.3829 10.023 14.3225 10.076C14.2621 10.1289 14.1851 10.1591 14.1047 10.1614H13.1471C13.1461 10.1615 13.1452 10.1618 13.1445 10.1624C13.1437 10.163 13.1431 10.1638 13.1429 10.1647L13.0252 11.0019C13.0252 11.003 13.0256 11.0042 13.0264 11.005C13.0272 11.0059 13.0283 11.0064 13.0294 11.0066H14.2608C14.2975 11.0055 14.3339 11.0126 14.3675 11.0274C14.401 11.0422 14.4308 11.0643 14.4547 11.0921C14.4786 11.12 14.496 11.1528 14.5056 11.1882C14.5152 11.2236 14.5168 11.2606 14.5102 11.2967C14.4975 11.3761 14.4574 11.4485 14.397 11.5014C14.3366 11.5544 14.2596 11.5846 14.1793 11.5869H12.6511C12.6099 11.5875 12.5691 11.579 12.5315 11.562C12.4939 11.545 12.4605 11.52 12.4337 11.4887C12.4068 11.4574 12.3872 11.4206 12.3762 11.3808C12.3652 11.3411 12.363 11.2994 12.3699 11.2588L12.7397 8.62813C12.7545 8.53843 12.8 8.45665 12.8684 8.39679C12.9368 8.33693 13.0239 8.30271 13.1147 8.3H14.6424C14.6787 8.29914 14.7147 8.30632 14.7479 8.32103C14.7811 8.33574 14.8106 8.35761 14.8344 8.38507C14.8581 8.41253 14.8755 8.44491 14.8853 8.47988C14.895 8.51486 14.8969 8.55155 14.8908 8.58734ZM17.4507 8.58734C17.4379 8.66668 17.3979 8.73908 17.3375 8.79205C17.2771 8.84502 17.2001 8.87524 17.1197 8.8775H15.8874C15.8864 8.87755 15.8855 8.87789 15.8848 8.87848C15.884 8.87907 15.8835 8.87987 15.8832 8.88078L15.7857 9.57641C15.7855 9.57697 15.7855 9.57756 15.7856 9.57813C15.7858 9.5787 15.786 9.57923 15.7864 9.57969C15.7867 9.58014 15.7872 9.58051 15.7877 9.58075C15.7883 9.581 15.7888 9.58111 15.7894 9.58109H16.7466C16.7833 9.58001 16.8197 9.58713 16.8533 9.60194C16.8868 9.61675 16.9166 9.63886 16.9405 9.66668C16.9644 9.69449 16.9818 9.72729 16.9914 9.76269C17.001 9.79808 17.0026 9.83517 16.996 9.87125C16.9832 9.95058 16.9432 10.023 16.8828 10.076C16.8224 10.1289 16.7454 10.1591 16.665 10.1614H15.7069C15.706 10.1615 15.7051 10.1618 15.7043 10.1624C15.7035 10.163 15.703 10.1638 15.7027 10.1647L15.585 11.0019C15.585 11.003 15.5855 11.0042 15.5863 11.005C15.587 11.0059 15.5881 11.0064 15.5893 11.0066H16.8207C16.8573 11.0055 16.8938 11.0126 16.9273 11.0274C16.9609 11.0422 16.9907 11.0643 17.0146 11.0921C17.0385 11.12 17.0559 11.1528 17.0655 11.1882C17.0751 11.2236 17.0766 11.2606 17.07 11.2967C17.0573 11.3761 17.0173 11.4485 16.9569 11.5014C16.8964 11.5544 16.8194 11.5846 16.7391 11.5869H15.211C15.1698 11.5875 15.1289 11.579 15.0913 11.562C15.0537 11.545 15.0203 11.52 14.9935 11.4887C14.9667 11.4574 14.947 11.4206 14.936 11.3808C14.925 11.3411 14.9229 11.2994 14.9297 11.2588L15.2996 8.62813C15.3143 8.53843 15.3598 8.45665 15.4282 8.39679C15.4966 8.33693 15.5837 8.30271 15.6746 8.3H17.2022C17.2385 8.29914 17.2746 8.30632 17.3078 8.32103C17.341 8.33574 17.3705 8.35761 17.3942 8.38507C17.418 8.41253 17.4354 8.44491 17.4451 8.47988C17.4549 8.51486 17.4568 8.55155 17.4507 8.58734ZM19.2319 8.28688C19.6505 8.28688 20.1924 8.2925 20.7361 8.30141C21.3952 8.31219 21.9718 8.615 22.3177 9.13156C22.6872 9.68862 23.0193 10.2696 23.3119 10.8706C23.4666 11.1856 23.1821 11.5958 22.8094 11.5958H18.8133L19.2319 8.28688Z" fill="#16A34A"/>
<path id="Vector_5" d="M10.9938 9.88984H10.2532L10.3938 8.87546H11.134C11.134 8.87546 11.6772 8.84031 11.5882 9.38265C11.5905 9.38265 11.5282 9.88984 10.9938 9.88984Z" fill="#16A34A"/>
</g>
</g>
<defs>
<clipPath id="clip0_1_395">
<rect width="24" height="24" fill="white" transform="translate(0.800049)"/>
</clipPath>
</defs>
</svg>
