<svg width="15" height="16" viewBox="0 0 15 16" fill="none" xmlns="http://www.w3.org/2000/svg">
<path d="M7.49711 3.8664L7.88313 4.32675C8.9066 5.54728 9.6487 6.64858 10.0875 7.62732C10.5118 8.57377 10.7499 9.40974 10.75 10.1136L7.49711 3.8664ZM7.49711 3.8664L7.11451 4.32959M7.49711 3.8664L7.11451 4.32959M7.11451 4.32959C6.09233 5.56705 5.35144 6.67162 4.91327 7.63928C4.48841 8.57756 4.25 9.40942 4.25 10.1139C4.25 11.0031 4.57135 11.7754 5.2022 12.4023L5.55465 12.0477M7.11451 4.32959L5.55465 12.0477M5.55465 12.0477L5.2022 12.4023C5.83289 13.0291 6.6083 13.3471 7.5 13.3468L5.55465 12.0477ZM12.4 4.47328V5.46789V8.47364V8.4741H11.9L12.4 4.47328ZM12.4 4.47328L11.6017 5.0666L9.96549 6.28275L9.60548 6.55032L9.83255 6.93715C10.2038 7.56956 10.4626 8.13727 10.618 8.64202C10.7744 9.14995 10.8503 9.6399 10.85 10.1135V10.1139C10.85 10.2063 10.8478 10.2905 10.8436 10.3668C10.8402 10.4287 10.832 10.4941 10.8183 10.5633L11.7422 10.9097C11.9466 10.5541 12.1066 10.1724 12.2229 9.76601L11.831 9.65389L12.4 4.47328ZM9.25879 6.03564L9.55189 6.46749L9.97077 6.15614L12.5 4.27619V8.4741C12.5 9.16465 12.3685 9.80709 12.108 10.4065C11.8433 11.0159 11.4867 11.5411 11.0387 11.9867C10.5903 12.4322 10.0616 12.7869 9.44784 13.0503C8.84383 13.3095 8.19631 13.4403 7.50024 13.4399H7.5C6.80385 13.4399 6.15625 13.309 5.55216 13.0497C4.93827 12.7863 4.40946 12.4317 3.96107 11.9864C3.51282 11.5409 3.15639 11.0159 2.89208 10.4067C2.63194 9.80724 2.50037 9.16473 2.5 8.4741C2.5 8.47402 2.5 8.47394 2.5 8.47386L2.5 4.27619L5.02923 6.15614L5.444 6.46443L5.73843 6.0397C6.01714 5.63762 6.33297 5.2071 6.68626 4.74797C6.93459 4.42525 7.20588 4.084 7.50024 3.72417C7.79488 4.08345 8.06648 4.42311 8.31514 4.74322C8.66704 5.19623 8.98144 5.62701 9.25879 6.03564ZM3.40041 5.0682L2.6 4.46661V5.46789V8.4741C2.6 8.91939 2.65874 9.35078 2.77768 9.76656C2.89388 10.1727 3.05336 10.5541 3.25694 10.9091L4.18087 10.5618C4.16694 10.4926 4.15866 10.4275 4.1553 10.3663C4.15118 10.2913 4.14932 10.2085 4.14999 10.1175H4.15V10.1139C4.15 9.64967 4.22581 9.16402 4.38251 8.65514C4.53795 8.15033 4.79665 7.58277 5.1675 6.95074L5.39323 6.56601L5.03666 6.29801L3.40041 5.0682ZM9.79835 12.4018C10.4292 11.7749 10.7504 11.0028 10.75 10.1139L7.50024 13.3468C8.39215 13.3467 9.16766 13.0285 9.79835 12.4018Z" fill="#9C9C9C" stroke="#9C9C9C"/>
</svg>
