<svg width="15" height="16" viewBox="0 0 15 16" fill="none" xmlns="http://www.w3.org/2000/svg">
<path d="M12 11.4651V6.06823C12 5.96966 11.9797 5.87245 11.9406 5.78428C11.9016 5.69612 11.8449 5.61943 11.775 5.56029L7.8375 2.22696C7.74013 2.14453 7.62171 2.09998 7.5 2.09998C7.37829 2.09998 7.25987 2.14453 7.1625 2.22696L3.225 5.56029C3.15514 5.61943 3.09844 5.69612 3.05938 5.78428C3.02033 5.87245 3 5.96966 3 6.06823V11.4651C3 11.6334 3.05926 11.7949 3.16475 11.914C3.27024 12.0331 3.41332 12.1 3.5625 12.1H5.8125C5.96168 12.1 6.10476 12.0331 6.21025 11.914C6.31574 11.7949 6.375 11.6334 6.375 11.4651V9.56029C6.375 9.3919 6.43426 9.23041 6.53975 9.11134C6.64524 8.99227 6.78832 8.92537 6.9375 8.92537H8.0625C8.21168 8.92537 8.35476 8.99227 8.46025 9.11134C8.56574 9.23041 8.625 9.3919 8.625 9.56029V11.4651C8.625 11.6334 8.68426 11.7949 8.78975 11.914C8.89524 12.0331 9.03832 12.1 9.1875 12.1H11.4375C11.5867 12.1 11.7298 12.0331 11.8352 11.914C11.9407 11.7949 12 11.6334 12 11.4651Z" stroke="#9C9C9C" stroke-width="1.5" stroke-linecap="round" stroke-linejoin="round"/>
</svg>
