<svg width="25" height="24" viewBox="0 0 25 24" fill="none" xmlns="http://www.w3.org/2000/svg">
<g id="Frame" clip-path="url(#clip0_1_375)">
<g id="Group">
<path id="Vector" d="M21.7319 9.87228V23.4929H3.86255V9.87228L12.8476 1.15625L21.7319 9.87228Z" fill="#E9EAEF"/>
<path id="Vector_2" d="M17.3625 5.0629V2.54694H21.8299V9.31733" fill="#9EB1B7"/>
<path id="Vector_3" d="M13.6585 20.6406H24.4466V23.495H13.6585V20.6406ZM1.15942 20.6406H4.94144V23.495H1.15942V20.6406Z" fill="#85C10D"/>
<path id="Vector_4" d="M21.7319 10.4067V12.9527L12.7972 4.42197L3.86255 12.9527V10.4067L12.0877 2.57327L12.7972 1.91406L13.5063 2.57327L21.7319 10.4067Z" fill="#D2D4D8"/>
<path id="Vector_5" d="M12.8014 3.008L2.62872 12.7202L1.2063 11.5261L12.0921 1.15888L12.8014 0.5L13.5107 1.15888L24.3965 11.5261L22.9741 12.7202L12.8014 3.008Z" fill="#EA4756"/>
<path id="Vector_6" d="M6.05005 13.2891H11.9431V23.494H6.05005V13.2891Z" fill="#C97523"/>
<path id="Vector_7" d="M13.6594 13.2891H20.3704V19.1821H13.6594V13.2891Z" fill="#A0D9F2"/>
<path id="Vector_8" d="M13.6594 13.2891H20.3704V15.0798H13.6594V13.2891Z" fill="#C97523"/>
<path id="Vector_9" d="M12.7989 10.3727C13.7044 10.3727 14.4384 9.63872 14.4384 8.73325C14.4384 7.82778 13.7044 7.09375 12.7989 7.09375C11.8935 7.09375 11.1594 7.82778 11.1594 8.73325C11.1594 9.63872 11.8935 10.3727 12.7989 10.3727Z" fill="#413740"/>
<path id="Vector_10" d="M13.3 13.2861V19.1792C13.3 19.2737 13.3376 19.3644 13.4044 19.4312C13.4713 19.4981 13.562 19.5356 13.6565 19.5356H20.3673C20.5641 19.5356 20.7237 19.376 20.7237 19.1792V13.2861C20.7237 13.1916 20.6861 13.1009 20.6193 13.0341C20.5524 12.9672 20.4618 12.9297 20.3673 12.9297H13.6565C13.6097 12.9297 13.5633 12.9389 13.5201 12.9568C13.4768 12.9747 13.4375 13.001 13.4044 13.0341C13.3713 13.0672 13.3451 13.1065 13.3272 13.1497C13.3093 13.193 13.3 13.2393 13.3 13.2861ZM14.0129 18.8227V15.4332H20.0108V18.8227H14.0129ZM20.0108 13.6426V14.7204H14.0129V13.6426H20.0108Z" fill="black"/>
<path id="Vector_11" d="M24.4436 20.282H22.0913V12.3685L22.7266 12.9751C22.7929 13.0385 22.8811 13.0738 22.9728 13.0737C23.054 13.0737 23.1354 13.0461 23.2019 12.9903L24.6165 11.8028C24.6643 11.7627 24.704 11.7129 24.7266 11.6548C24.7527 11.5887 24.7586 11.5163 24.7433 11.4469C24.7281 11.3775 24.6924 11.3141 24.641 11.2651L22.1863 8.92738V5.55346C22.1848 5.45992 22.1466 5.37074 22.0799 5.30513C22.0132 5.23952 21.9235 5.20275 21.8299 5.20275C21.7364 5.20275 21.6466 5.23952 21.5799 5.30513C21.5132 5.37074 21.475 5.45992 21.4735 5.55346V8.24849L17.719 4.67291V2.90338H21.4735V3.89C21.475 3.98353 21.5132 4.07272 21.5799 4.13833C21.6466 4.20394 21.7364 4.24071 21.8299 4.24071C21.9235 4.24071 22.0132 4.20394 22.0799 4.13833C22.1466 4.07272 22.1848 3.98353 22.1863 3.89V2.54694C22.1863 2.45241 22.1488 2.36176 22.0819 2.29491C22.0151 2.22807 21.9244 2.19052 21.8299 2.1905H17.3626C17.2681 2.19052 17.1774 2.22807 17.1106 2.29491C17.0437 2.36176 17.0062 2.45241 17.0061 2.54694V3.99397L13.7519 0.894784L13.0426 0.235909C12.9767 0.174664 12.89 0.140625 12.8 0.140625C12.71 0.140625 12.6234 0.174664 12.5574 0.235909L11.8449 0.897831L0.959096 11.265C0.907645 11.3141 0.872014 11.3774 0.856764 11.4468C0.841515 11.5163 0.847343 11.5887 0.873502 11.6548C0.896143 11.7128 0.935846 11.7627 0.983564 11.8027L2.39821 12.9903C2.46541 13.0467 2.55107 13.0763 2.63876 13.0735C2.72646 13.0707 2.81005 13.0357 2.87352 12.9751L3.50914 12.3682V14.7012C3.51066 14.7947 3.54888 14.8839 3.61556 14.9495C3.68224 15.0151 3.77204 15.0519 3.86558 15.0519C3.95912 15.0519 4.04892 15.0151 4.1156 14.9495C4.18228 14.8839 4.2205 14.7947 4.22202 14.7012V11.6876L12.8 3.4978L21.3784 11.6879V20.282H13.6557C13.5611 20.282 13.4705 20.3196 13.4036 20.3864C13.3368 20.4533 13.2992 20.5439 13.2992 20.6384V23.1361H12.3012V13.2876C12.3012 13.1931 12.2636 13.1024 12.1968 13.0356C12.13 12.9687 12.0393 12.9312 11.9448 12.9312H6.05169C5.95716 12.9312 5.86651 12.9687 5.79966 13.0356C5.73282 13.1024 5.69526 13.1931 5.69525 13.2876V23.1361H5.29471V20.6384C5.29469 20.5439 5.25714 20.4533 5.19029 20.3864C5.12345 20.3196 5.0328 20.282 4.93827 20.282H4.22197V16.3647C4.22045 16.2711 4.18223 16.1819 4.11555 16.1163C4.04887 16.0507 3.95908 16.014 3.86553 16.014C3.77199 16.014 3.68219 16.0507 3.61551 16.1163C3.54883 16.1819 3.51061 16.2711 3.5091 16.3647V20.282H1.15649C1.06196 20.282 0.971303 20.3196 0.904461 20.3864C0.837618 20.4533 0.800061 20.5439 0.800049 20.6384V23.4926C0.800061 23.5871 0.837618 23.6778 0.904461 23.7446C0.971303 23.8115 1.06196 23.849 1.15649 23.8491H4.93827L4.93916 23.849H13.6547L13.6556 23.8491H24.4436C24.5381 23.849 24.6288 23.8115 24.6956 23.7446C24.7625 23.6778 24.8 23.5871 24.8 23.4926V20.6384C24.8001 20.5916 24.7908 20.5453 24.7729 20.502C24.755 20.4588 24.7288 20.4195 24.6957 20.3864C24.6626 20.3533 24.6233 20.327 24.58 20.3091C24.5368 20.2912 24.4904 20.282 24.4436 20.282ZM12.8 2.64861C12.7084 2.64853 12.6202 2.68386 12.5539 2.74724L2.6121 12.239L1.73938 11.5064L12.3334 1.41707L12.8 0.983518L13.2635 1.41407L23.8607 11.5064L22.988 12.239L13.0462 2.74719C12.9799 2.68383 12.8917 2.64851 12.8 2.64861ZM1.51292 20.9948H4.58183V23.1361H3.86553V23.1362H1.51292V20.9948ZM6.40813 23.1361V13.644H11.5883V23.1361H6.40813ZM24.0872 23.1361H21.7348V23.1361H14.0121V20.9948H24.0872V23.1361H24.0872Z" fill="black"/>
<path id="Vector_12" d="M10.7853 17.9972H9.92992C9.83539 17.9972 9.74473 18.0347 9.67788 18.1016C9.61104 18.1684 9.57349 18.2591 9.57349 18.3536C9.57349 18.4481 9.61104 18.5388 9.67788 18.6056C9.74473 18.6725 9.83539 18.71 9.92992 18.71H10.7853C10.8799 18.71 10.9705 18.6725 11.0374 18.6056C11.1042 18.5388 11.1418 18.4481 11.1418 18.3536C11.1418 18.2591 11.1042 18.1684 11.0374 18.1016C10.9705 18.0347 10.8799 17.9972 10.7853 17.9972ZM12.802 6.73438C11.7014 6.73438 10.8061 7.62973 10.8061 8.73036C10.8061 9.83094 11.7014 10.7263 12.802 10.7263C13.9026 10.7263 14.7979 9.83094 14.7979 8.73036C14.7979 7.62978 13.9026 6.73438 12.802 6.73438ZM12.802 10.0134C12.0945 10.0134 11.5189 9.43784 11.5189 8.73036C11.5189 8.02287 12.0945 7.44725 12.802 7.44725C13.5095 7.44725 14.0851 8.02283 14.0851 8.73036C14.0851 9.43784 13.5095 10.0134 12.802 10.0134Z" fill="black"/>
</g>
</g>
<defs>
<clipPath id="clip0_1_375">
<rect width="24" height="24" fill="white" transform="translate(0.800049)"/>
</clipPath>
</defs>
</svg>
