<svg width="25" height="24" viewBox="0 0 25 24" fill="none" xmlns="http://www.w3.org/2000/svg">
<g id="Frame" clip-path="url(#clip0_1_299)">
<g id="Group">
<g id="Group_2">
<path id="Vector" fill-rule="evenodd" clip-rule="evenodd" d="M3.62042 6.84387H21.9773V21.8477H3.62042V6.84387Z" fill="#ECEFF1"/>
<path id="Vector_2" fill-rule="evenodd" clip-rule="evenodd" d="M20.7845 6.84387H21.9756V21.8477H20.7845V6.84387Z" fill="#D1D1D6"/>
<path id="Vector_3" fill-rule="evenodd" clip-rule="evenodd" d="M5.66778 11.8751H9.81139C10.0612 11.8751 10.265 12.0789 10.265 12.3287V21.1999H5.21417V12.3288C5.21417 12.0789 5.41794 11.8751 5.66778 11.8751Z" fill="#D8ECFE"/>
<path id="Vector_4" fill-rule="evenodd" clip-rule="evenodd" d="M9.17559 12.3287V21.1999H10.2643V12.3287C10.2643 12.0789 10.0605 11.8751 9.8107 11.8751H8.72198C8.97183 11.8751 9.17559 12.0789 9.17559 12.3287Z" fill="#C4E2FF"/>
<path id="Vector_5" fill-rule="evenodd" clip-rule="evenodd" d="M1.77689 21.2032H23.8233C23.8834 21.2034 23.941 21.2273 23.9835 21.2698C24.026 21.3123 24.05 21.37 24.0501 21.4301V23.0243C24.0499 23.0845 24.026 23.1421 23.9835 23.1846C23.941 23.2271 23.8834 23.251 23.8233 23.2511H1.77689C1.71678 23.251 1.65916 23.2271 1.61666 23.1846C1.57415 23.1421 1.55022 23.0845 1.55011 23.0243V21.4301C1.55021 21.37 1.57413 21.3123 1.61664 21.2698C1.65915 21.2273 1.71677 21.2034 1.77689 21.2032Z" fill="#A79BA7"/>
<path id="Vector_6" fill-rule="evenodd" clip-rule="evenodd" d="M24.0501 22.2267V23.0238C24.05 23.0839 24.0261 23.1415 23.9836 23.184C23.9411 23.2265 23.8834 23.2505 23.8233 23.2506H1.77689C1.71678 23.2505 1.65916 23.2265 1.61666 23.184C1.57415 23.1415 1.55022 23.0839 1.55011 23.0238V22.2267H24.0501Z" fill="#837683"/>
<path id="Vector_7" fill-rule="evenodd" clip-rule="evenodd" d="M1.73761 6.83839L4.785 0.994013C4.86516 0.840263 5.01384 0.750122 5.18723 0.750122H20.409C20.5823 0.750122 20.731 0.840263 20.8112 0.994013L23.8586 6.83839C23.8586 8.36553 22.6207 9.6035 21.0935 9.6035C19.5663 9.6035 18.3284 8.36553 18.3284 6.83839C18.3284 8.36553 17.0904 9.6035 15.5632 9.6035C14.0361 9.6035 12.7981 8.36553 12.7981 6.83839C12.7981 8.36553 11.5601 9.6035 10.033 9.6035C8.50584 9.6035 7.26783 8.36553 7.26783 6.83839C7.26783 8.36553 6.02991 9.6035 4.50272 9.6035C2.97553 9.6035 1.73761 8.36558 1.73761 6.83839Z" fill="#FFE177"/>
<path id="Vector_8" fill-rule="evenodd" clip-rule="evenodd" d="M4.50272 9.60898C6.02991 9.60898 7.26783 8.37101 7.26783 6.84387H1.73761C1.73761 8.06225 2.52553 9.09654 3.61964 9.46498C3.90421 9.56067 4.20249 9.60931 4.50272 9.60898ZM12.7981 6.84387C12.7981 8.37101 14.0361 9.60898 15.5632 9.60898C17.0903 9.60898 18.3284 8.37101 18.3284 6.84387H12.7981Z" fill="#FFD064"/>
<path id="Vector_9" fill-rule="evenodd" clip-rule="evenodd" d="M23.8596 6.83839L20.8122 0.994013C20.732 0.840263 20.5833 0.750122 20.4099 0.750122H16.7248L18.3293 6.83839C18.3293 8.36553 19.5673 9.6035 21.0945 9.6035C21.3947 9.6038 21.693 9.55517 21.9775 9.4595C23.0716 9.09106 23.8596 8.05676 23.8596 6.83839ZM10.034 9.6035C11.5612 9.6035 12.7991 8.36553 12.7991 6.83839V0.750169H8.87339L7.26886 6.83843C7.26886 8.36558 8.50683 9.6035 10.034 9.6035Z" fill="#F97316"/>
<path id="Vector_10" fill-rule="evenodd" clip-rule="evenodd" d="M18.3293 6.84387C18.3293 8.37101 19.5673 9.60898 21.0945 9.60898C21.3947 9.60929 21.693 9.56065 21.9775 9.46498C23.0716 9.0965 23.8596 8.06225 23.8596 6.84387H18.3293ZM10.034 9.60898C11.5612 9.60898 12.7991 8.37101 12.7991 6.84387H7.26886C7.26886 8.37106 8.50683 9.60898 10.034 9.60898Z" fill="#F97316"/>
<path id="Vector_11" fill-rule="evenodd" clip-rule="evenodd" d="M12.222 11.8751H20.0235C20.1785 11.8751 20.3048 12.0015 20.3048 12.1564V18.2503C20.3048 18.4052 20.1785 18.5315 20.0235 18.5315H12.222C12.0671 18.5315 11.9407 18.4052 11.9407 18.2503V12.1564C11.9407 12.0015 12.0671 11.8751 12.222 11.8751Z" fill="#D8ECFE"/>
<path id="Vector_12" fill-rule="evenodd" clip-rule="evenodd" d="M19.5501 11.8751H20.0189C20.1738 11.8751 20.3001 12.0015 20.3001 12.1564V18.2503C20.3001 18.4052 20.1738 18.5315 20.0189 18.5315H19.5501C19.705 18.5315 19.8314 18.4052 19.8314 18.2503V12.1564C19.8314 12.0015 19.705 11.8751 19.5501 11.8751Z" fill="#C4E2FF"/>
<path id="Vector_13" d="M16.1175 17.6193C17.4535 17.6193 18.5365 16.5363 18.5365 15.2004C18.5365 13.8644 17.4535 12.7814 16.1175 12.7814C14.7816 12.7814 13.6985 13.8644 13.6985 15.2004C13.6985 16.5363 14.7816 17.6193 16.1175 17.6193Z" fill="#8AC9FE"/>
<path id="Vector_14" fill-rule="evenodd" clip-rule="evenodd" d="M16.1238 12.7814C17.4598 12.7814 18.5428 13.8644 18.5428 15.2004C18.5428 16.5363 17.4598 17.6193 16.1238 17.6193C16.0248 17.6193 15.9273 17.6132 15.8314 17.6017C17.0294 17.4573 17.9579 16.4373 17.9579 15.2004C17.9579 13.9634 17.0294 12.9434 15.8314 12.799C15.9284 12.7873 16.0261 12.7814 16.1238 12.7814Z" fill="#60B7FF"/>
<path id="Vector_15" fill-rule="evenodd" clip-rule="evenodd" d="M17.5354 14.2224C17.5685 14.2588 17.5941 14.3015 17.6108 14.3478C17.6274 14.3942 17.6347 14.4434 17.6323 14.4926C17.6299 14.5418 17.6179 14.5901 17.5968 14.6346C17.5757 14.6791 17.5461 14.7191 17.5096 14.7522L15.8985 16.2141C15.8298 16.2771 15.7399 16.3119 15.6467 16.3118C15.5473 16.3118 15.4519 16.2723 15.3815 16.202L14.718 15.5387C14.6832 15.5039 14.6555 15.4625 14.6366 15.417C14.6177 15.3715 14.608 15.3227 14.608 15.2734C14.608 15.2241 14.6177 15.1753 14.6366 15.1298C14.6555 15.0843 14.6832 15.0429 14.718 15.0081C14.7884 14.9378 14.8837 14.8984 14.9831 14.8984C15.0826 14.8984 15.1779 14.9378 15.2483 15.0081L15.6595 15.4187L17.0056 14.1968C17.159 14.058 17.3962 14.0693 17.5354 14.2224ZM16.1207 17.2497C17.2477 17.2497 18.1644 16.3327 18.1644 15.2055C18.1644 14.0785 17.2477 13.1618 16.1207 13.1618C14.9932 13.1618 14.0765 14.0785 14.0765 15.2055C14.0765 16.3327 14.9932 17.2497 16.1207 17.2497ZM16.1207 12.4118C14.58 12.4118 13.3266 13.665 13.3266 15.2055C13.3266 16.7462 14.58 17.9997 16.1207 17.9997C17.661 17.9997 18.9144 16.7462 18.9144 15.2055C18.9143 13.6651 17.661 12.4118 16.1207 12.4118ZM12.3134 12.2525V18.1589H19.9275V12.2525H12.3134ZM11.9385 18.9089H20.3024C20.5095 18.9089 20.6775 18.7407 20.6775 18.534V11.8775C20.6775 11.8282 20.6678 11.7794 20.6489 11.7339C20.6301 11.6884 20.6024 11.647 20.5676 11.6122C20.5328 11.5774 20.4914 11.5497 20.4459 11.5309C20.4004 11.512 20.3516 11.5024 20.3024 11.5024H11.9385C11.8893 11.5024 11.8405 11.512 11.795 11.5309C11.7495 11.5497 11.7081 11.5774 11.6733 11.6122C11.6385 11.647 11.6108 11.6884 11.592 11.7339C11.5731 11.7794 11.5634 11.8282 11.5635 11.8775V18.534C11.5635 18.7407 11.7314 18.9089 11.9385 18.9089ZM23.675 22.875H1.92502V21.5771H23.675V22.875ZM9.88777 20.8271H5.58689V12.3311C5.58706 12.3104 5.59536 12.2905 5.61001 12.2758C5.62465 12.2611 5.64448 12.2528 5.66522 12.2525H9.80897C9.85158 12.2525 9.88772 12.2885 9.88772 12.3311L9.88777 20.8271ZM3.99656 9.93673V20.8271H4.83694V12.3311C4.83694 11.8742 5.2087 11.5024 5.66522 11.5024H9.80897C10.2661 11.5024 10.6377 11.8742 10.6377 12.3311V20.8271H21.6037V9.93673C21.4382 9.96387 21.2685 9.97845 21.0955 9.97845C19.9014 9.97845 18.8614 9.30884 18.3303 8.32545C17.7993 9.30884 16.759 9.97845 15.5653 9.97845C14.3712 9.97845 13.3312 9.30884 12.8001 8.32545C12.2691 9.30884 11.2287 9.97845 10.0349 9.97845C8.841 9.97845 7.80094 9.30884 7.26966 8.32545C6.73856 9.30884 5.6985 9.97845 4.50464 9.97845C4.33172 9.97845 4.16203 9.96392 3.99656 9.93673ZM2.145 7.21325H6.86527C6.6848 8.35372 5.69527 9.22854 4.50469 9.22854C3.31434 9.22854 2.32547 8.35372 2.145 7.21325ZM5.11959 1.1674C5.13502 1.1374 5.15536 1.12503 5.18953 1.12503H8.38763L6.98109 6.46329H2.35814L5.11959 1.1674ZM20.4804 1.1674L23.2419 6.46329H18.6191L17.2124 1.12503H20.4111C20.4449 1.12503 20.465 1.1374 20.4804 1.1674ZM17.9259 7.21325C17.7455 8.35372 16.7555 9.22854 15.5654 9.22854C14.375 9.22854 13.3851 8.35372 13.2045 7.21325H17.9259ZM12.3955 7.21325C12.215 8.35372 11.2255 9.22854 10.0349 9.22854C8.8448 9.22854 7.85527 8.35372 7.6748 7.21325H12.3955ZM16.4371 1.12503H13.175V6.46329H17.8439L16.4371 1.12503ZM12.4251 1.12503H9.16341L7.75641 6.46329H12.4251V1.12503ZM21.0956 9.22854C19.9055 9.22854 18.9155 8.35372 18.735 7.21325H23.4557C23.2747 8.35372 22.2856 9.22854 21.0956 9.22854ZM23.8233 20.8271H22.3536V9.71459C23.4603 9.22855 24.2356 8.12272 24.2356 6.83839C24.2356 6.77792 24.2211 6.71858 24.193 6.66495L21.1456 0.820575C21.0005 0.541716 20.7258 0.375122 20.4112 0.375122H5.18953C4.87448 0.375122 4.59975 0.541716 4.45439 0.820575L1.40719 6.66495C1.37904 6.71843 1.36435 6.77796 1.36439 6.83839C1.36439 8.12267 2.1397 9.22855 3.24642 9.71459V20.8271H1.77698C1.44516 20.8271 1.17511 21.0971 1.17511 21.4289V23.0232C1.17511 23.3551 1.44516 23.6249 1.77698 23.6249H23.8233C24.1551 23.6249 24.425 23.3551 24.425 23.0232V21.4289C24.4249 21.0972 24.1551 20.8271 23.8233 20.8271Z" fill="#242222"/>
</g>
</g>
</g>
<defs>
<clipPath id="clip0_1_299">
<rect width="24" height="24" fill="white" transform="translate(0.799988)"/>
</clipPath>
</defs>
</svg>
