<svg width="15" height="16" viewBox="0 0 15 16" fill="none" xmlns="http://www.w3.org/2000/svg">
<path d="M7.09121 10.1374L6.62673 9.95233L7.09121 8.78668L7.55569 9.95233L7.09121 10.1374ZM7.09121 10.1374L7.55571 9.95237L7.55575 9.95248L7.55591 9.95288L7.55653 9.95443L7.55893 9.96045L7.56825 9.98389L7.60378 10.0734C7.6345 10.1509 7.67872 10.2627 7.73273 10.3999C7.84073 10.6742 7.98805 11.0504 8.14518 11.4577C8.45072 12.2498 8.80095 13.179 8.96681 13.6984C8.97764 13.717 8.99772 13.7388 9.0313 13.7561L8.80311 14.201L9.03131 13.7561C9.07256 13.7772 9.12497 13.7861 9.17734 13.7773C9.22958 13.7684 9.26834 13.7444 9.29104 13.7194C9.31052 13.698 9.31715 13.6778 9.31831 13.6623C9.29023 13.0066 9.09803 12.1429 8.88333 11.1781C8.82796 10.9293 8.77109 10.6738 8.71516 10.4134C8.45357 9.19546 8.2098 7.85663 8.39075 6.83797L8.56304 5.86802L9.24424 6.57968C9.89042 7.25476 10.2061 8.06083 10.5296 8.8865C10.5536 8.94798 10.5778 9.00958 10.6021 9.07123L10.6021 9.0713C10.6102 9.09177 10.6179 9.10115 10.6213 9.1048C10.6249 9.10866 10.6285 9.11119 10.633 9.11328C10.6418 9.11741 10.6566 9.12056 10.6737 9.11897C10.5436 8.57144 10.3699 7.87333 10.1504 7.22208C9.92052 6.54034 9.66394 5.98474 9.4018 5.69097L9.40179 5.69096C9.18149 5.44407 8.81624 5.28382 8.35987 5.19337C7.91178 5.10457 7.44622 5.09623 7.09121 5.09623C6.7362 5.09623 6.27064 5.10457 5.82255 5.19337C5.36618 5.28382 5.00093 5.44407 4.78064 5.69096L4.78063 5.69097C4.51849 5.98474 4.2619 6.54034 4.03206 7.22208C3.81251 7.87329 3.63884 8.57137 3.5087 9.11889C3.52553 9.12037 3.54011 9.11725 3.54892 9.11312C3.55343 9.111 3.55713 9.10841 3.56087 9.10442C3.56442 9.10064 3.57222 9.09114 3.58035 9.07061C3.60466 9.00895 3.62878 8.94736 3.65287 8.88588C3.97627 8.0602 4.292 7.25414 4.93818 6.57906L5.61943 5.86735L5.79168 6.83738C5.97261 7.85632 5.72886 9.19527 5.46727 10.4133C5.41132 10.6738 5.35443 10.9294 5.29905 11.1783C5.08436 12.143 4.89219 13.0066 4.86411 13.6623C4.86527 13.6778 4.8719 13.698 4.89139 13.7194C4.91409 13.7444 4.95284 13.7684 5.00508 13.7773C5.05746 13.7861 5.10987 13.7772 5.15112 13.7561L5.37931 14.201L5.15112 13.7561C5.1847 13.7388 5.20479 13.717 5.21562 13.6984C5.38147 13.179 5.73171 12.2498 6.03724 11.4577C6.19438 11.0504 6.34169 10.6742 6.4497 10.3999C6.50371 10.2627 6.54792 10.1509 6.57865 10.0734L6.61418 9.98389L6.6235 9.96045L6.6259 9.95443L6.62651 9.95288L6.62667 9.95248L6.62671 9.95237L7.09121 10.1374ZM7.43595 3.74248L7.57313 4.1044L7.43595 3.74248C7.32777 3.78348 7.21047 3.80505 7.0911 3.80508C6.84823 3.80513 6.62329 3.71655 6.46394 3.57092C6.30609 3.42665 6.22693 3.24104 6.22688 3.05805C6.22683 2.87505 6.30588 2.68942 6.46364 2.5451L6.12615 2.17619L6.46364 2.5451C6.6229 2.39941 6.84778 2.31072 7.09064 2.31067C7.21001 2.31064 7.32733 2.33216 7.43554 2.37311C7.54373 2.41406 7.63929 2.47307 7.7178 2.54483C7.79622 2.6165 7.8558 2.69914 7.89551 2.78674C7.93515 2.87419 7.95483 2.96611 7.95486 3.0577C7.95488 3.14929 7.93525 3.24122 7.89566 3.32867C7.856 3.41628 7.79647 3.49895 7.7181 3.57065C7.63964 3.64243 7.54411 3.70148 7.43595 3.74248Z" fill="#9C9C9C" stroke="#9C9C9C"/>
</svg>
