<svg width="15" height="16" viewBox="0 0 15 16" fill="none" xmlns="http://www.w3.org/2000/svg">
<path d="M6.40542 6.96247L7.75636 10.9344H6.63636H6.13636V11.4344V14.592H5.31818V11.4344V10.9344H4.81818H3.69819L5.04657 6.96999C5.17153 6.64103 5.43268 6.44802 5.72727 6.44802C6.06301 6.44802 6.33242 6.67611 6.39355 6.92207L6.39863 6.94252L6.40542 6.96247ZM11.5909 13.2632V14.592H10.7727V13.2632V12.7632H10.2727H9.86364V11.3248H12.5V12.7632H12.0909H11.5909V13.2632ZM5.72727 3.40002C5.9152 3.40002 6.09601 3.47509 6.22979 3.60964C6.36366 3.7443 6.43939 3.92754 6.43939 4.11922C6.43939 4.3109 6.36366 4.49415 6.22979 4.62881C6.09601 4.76336 5.9152 4.83842 5.72727 4.83842C5.53935 4.83842 5.35853 4.76336 5.22475 4.62881C5.09088 4.49415 5.01515 4.3109 5.01515 4.11922C5.01515 3.92754 5.09088 3.7443 5.22475 3.60964C5.35853 3.47509 5.53935 3.40002 5.72727 3.40002ZM10.4697 8.99602C10.4697 8.80435 10.5454 8.6211 10.6793 8.48644C10.8131 8.35189 10.9939 8.27682 11.1818 8.27682C11.3697 8.27682 11.5506 8.35189 11.6843 8.48644C11.8182 8.6211 11.8939 8.80435 11.8939 8.99602C11.8939 9.1877 11.8182 9.37095 11.6843 9.50561C11.5506 9.64016 11.3697 9.71522 11.1818 9.71522C10.9939 9.71522 10.8131 9.64016 10.6793 9.50561C10.5454 9.37095 10.4697 9.1877 10.4697 8.99602Z" fill="#9C9C9C" stroke="#9C9C9C"/>
</svg>
