<svg width="15" height="16" viewBox="0 0 15 16" fill="none" xmlns="http://www.w3.org/2000/svg">
<path d="M4.69842 4.58828L4.7 4.56843V4.54852C4.7 4.2308 4.78456 3.89233 4.9324 3.64998C5.0754 3.41556 5.24001 3.31995 5.42222 3.31995C5.69292 3.31995 5.98748 3.51249 6.24431 3.94803C6.49462 4.37251 6.63333 4.91346 6.63333 5.33423C6.63333 5.65195 6.54877 5.99042 6.40093 6.23277C6.25793 6.46719 6.09332 6.5628 5.91111 6.5628C5.58577 6.5628 5.27436 6.35265 5.02792 5.93472C4.78229 5.51818 4.66624 4.99163 4.69842 4.58828ZM10.2185 4.62709C10.2185 5.00304 10.0828 5.52344 9.83172 5.9408C9.57446 6.36851 9.27961 6.5628 9.00741 6.5628C8.8252 6.5628 8.66059 6.46719 8.51759 6.23277C8.36975 5.99042 8.28519 5.65195 8.28519 5.33423C8.28519 4.95828 8.42095 4.43788 8.67199 4.02052C8.92924 3.59281 9.22409 3.39852 9.4963 3.39852C9.6785 3.39852 9.84312 3.49413 9.98612 3.72855C10.134 3.9709 10.2185 4.30937 10.2185 4.62709ZM10.6481 8.7128C10.6481 8.30585 10.7994 7.79139 11.0653 7.38619C11.3357 6.97394 11.6505 6.77709 11.9407 6.77709C12.0638 6.77709 12.1892 6.83798 12.3035 7.00339C12.422 7.17473 12.5 7.42614 12.5 7.69138C12.5 8.09833 12.3487 8.61279 12.0829 9.01799C11.8124 9.43024 11.4977 9.62709 11.2074 9.62709C11.0305 9.62709 10.9143 9.554 10.8214 9.41176C10.7159 9.25008 10.6481 8.99973 10.6481 8.7128ZM3.05926 6.77709C3.30256 6.77709 3.6193 6.96566 3.90823 7.39229C4.18734 7.80441 4.35185 8.31733 4.35185 8.7128C4.35185 8.99973 4.28414 9.25008 4.17857 9.41176C4.08569 9.554 3.96947 9.62709 3.79259 9.62709C3.54929 9.62709 3.23255 9.43852 2.94362 9.01189C2.66451 8.59977 2.5 8.08685 2.5 7.69138C2.5 7.40445 2.56772 7.1541 2.67329 6.99242C2.76616 6.85018 2.88238 6.77709 3.05926 6.77709ZM4.12963 12.7985C4.12963 12.1116 4.58878 11.166 5.3064 10.3618C5.65622 9.96975 6.04642 9.6361 6.43169 9.40363C6.82189 9.16819 7.17475 9.05566 7.45926 9.05566C7.74377 9.05566 8.09663 9.16819 8.48683 9.40363C8.8721 9.6361 9.2623 9.96975 9.61212 10.3618C10.3297 11.166 10.7889 12.1116 10.7889 12.7985C10.7889 12.9425 10.7589 13.0247 10.7315 13.0721C10.7044 13.1189 10.6636 13.1597 10.5977 13.1964C10.4477 13.2798 10.2077 13.3199 9.9037 13.3199C9.56451 13.3199 9.2421 13.2018 8.83486 13.0407C8.81669 13.0335 8.79828 13.0262 8.77962 13.0188C8.4137 12.8735 7.95492 12.6914 7.45926 12.6914C6.9278 12.6914 6.45202 12.8709 6.062 13.0181C6.0445 13.0247 6.02717 13.0312 6.01001 13.0377C5.58555 13.1974 5.2378 13.3199 4.85185 13.3199C4.57157 13.3199 4.38632 13.2667 4.28338 13.1945C4.21184 13.1443 4.12963 13.0531 4.12963 12.7985Z" fill="#9C9C9C" stroke="#9C9C9C"/>
</svg>
