<svg width="15" height="16" viewBox="0 0 15 16" fill="none" xmlns="http://www.w3.org/2000/svg">
<path d="M7.60447 6.40534L4.67567 3.49112C5.51398 2.89051 6.45072 2.59353 7.49566 2.60006C7.4583 2.83355 7.44 3.07476 7.44 3.3231C7.44 3.79188 7.54392 4.29597 7.73948 4.83496L7.74009 4.83663C7.8697 5.18994 8.01998 5.51739 8.20869 5.80404L7.60447 6.40534ZM9.86886 3.22887L9.86886 3.22887L9.87062 3.22987C10.0773 3.34754 10.2629 3.46368 10.4275 3.57669L9.53035 4.4734C9.25944 3.9814 9.17902 3.473 9.28223 2.93341C9.46094 3.0093 9.65639 3.10675 9.86886 3.22887ZM3.465 10.5357C3.20908 10.182 2.99756 9.79812 2.83523 9.39281C2.96032 9.37385 3.08853 9.36435 3.221 9.36435C3.64519 9.36435 4.0258 9.45323 4.36993 9.63126L3.465 10.5357ZM8.87511 7.70014L9.52217 7.03958C10.4524 7.6188 11.4533 7.81531 12.4999 7.62013C12.4967 8.10356 12.3775 8.66805 12.1353 9.3224C11.976 9.74925 11.7959 10.1123 11.5998 10.4149L8.87511 7.70014ZM5.7346 12.2678C5.39348 12.1372 5.07605 11.9784 4.78506 11.7914L5.60639 10.9732C5.77174 11.3826 5.81521 11.8107 5.7346 12.2678ZM6.9245 9.63567L7.60022 8.97441L10.3261 11.7076C9.48652 12.3097 8.54869 12.607 7.50513 12.5999C7.5416 12.3671 7.56 12.1259 7.56 11.8769C7.56 11.4647 7.46771 11.0073 7.30274 10.5186C7.19266 10.1924 7.0667 9.89707 6.9245 9.63567ZM5.70642 8.30505C5.21606 7.95826 4.65509 7.72002 4.06104 7.60877L3.96901 8.10018L4.06159 7.60887C3.53084 7.50887 3.00988 7.50063 2.50002 7.58859C2.50186 7.10324 2.62099 6.5359 2.86467 5.87762C3.0237 5.45162 3.20329 5.08916 3.399 4.78697L6.30478 7.7044L5.70642 8.30505ZM11.6875 4.88576C11.8744 5.17582 12.0325 5.48262 12.1623 5.80794C12.0376 5.82628 11.9102 5.8356 11.779 5.8356C11.4786 5.8356 11.1829 5.78278 10.891 5.67152L11.6875 4.88576Z" fill="#9C9C9C" stroke="#9C9C9C"/>
</svg>
