<svg width="15" height="16" viewBox="0 0 15 16" fill="none" xmlns="http://www.w3.org/2000/svg">
<path d="M7.11082 4.17783L7.11083 4.17782L9.69999 1.68445C9.73023 1.65732 9.77368 1.63962 9.82208 1.64002C9.8716 1.64044 9.91541 1.65971 9.945 1.68821C9.97399 1.71613 9.98686 1.7499 9.98714 1.78111C9.98741 1.81155 9.97577 1.84445 9.94895 1.87222L8.06719 3.68418L8.06719 3.68418L8.0655 3.68582C8.03541 3.71507 8.00435 3.74344 7.97237 3.77088L6.94764 4.65031H8.298H11.6667C11.8936 4.65031 12.1076 4.73732 12.2626 4.88659C12.4169 5.03525 12.5 5.2328 12.5 5.43465V11.8557C12.5 12.0575 12.4169 12.2551 12.2626 12.4037C12.1076 12.553 11.8936 12.64 11.6667 12.64H2.33333C2.1064 12.64 1.89237 12.553 1.7374 12.4037L1.39131 12.763L1.7374 12.4037C1.58307 12.2551 1.5 12.0575 1.5 11.8557V5.434C1.5 5.23215 1.58307 5.03461 1.7374 4.88595C1.89237 4.73668 2.1064 4.64967 2.33333 4.64967H4.75933H6.1013L5.0865 3.77157C5.05168 3.74144 5.01932 3.71229 4.98954 3.6836L4.05467 2.78309C4.02984 2.75577 4.01915 2.72394 4.01965 2.69442C4.02017 2.66348 4.03308 2.63007 4.06181 2.60241L3.71506 2.24218L4.06181 2.60241C4.09113 2.57419 4.13441 2.55501 4.18343 2.55428C4.23043 2.55357 4.27299 2.56999 4.30338 2.59572L5.94579 4.17778L5.94585 4.17783C6.10343 4.32958 6.31328 4.41168 6.52833 4.41168C6.74339 4.41168 6.95323 4.32958 7.11082 4.17783ZM2.33333 4.93465H1.83333V5.43465V11.8563V12.3563H2.33333H11.6667H12.1667V11.8563V5.43465V4.93465H11.6667H2.33333Z" fill="#9C9C9C" stroke="#9C9C9C"/>
</svg>
