<svg width="13" height="13" viewBox="0 0 13 13" fill="none" xmlns="http://www.w3.org/2000/svg">
<g id="Frame" clip-path="url(#clip0_1_1342)">
<g id="Group">
<path id="Vector" fill-rule="evenodd" clip-rule="evenodd" d="M11.5948 6.62477C10.6265 8.36366 8.79009 9.44387 6.80327 9.44387C4.81516 9.44387 2.97881 8.36366 2.01046 6.62477C1.93589 6.48974 1.93589 6.34701 2.01046 6.2121C2.97881 4.47323 4.81516 3.39313 6.80327 3.39313C8.79009 3.39313 10.6264 4.47323 11.5948 6.2121C11.6707 6.34701 11.6707 6.48974 11.5948 6.62477ZM12.2133 5.86734C11.1203 3.90405 9.04729 2.68457 6.80327 2.68457C4.55796 2.68457 2.48498 3.90405 1.3919 5.86734C1.19643 6.21763 1.19643 6.61923 1.3919 6.96927C2.48498 8.93256 4.55796 10.1523 6.80327 10.1523C9.04729 10.1523 11.1203 8.93256 12.2133 6.96927C12.4088 6.61926 12.4088 6.21763 12.2133 5.86734ZM6.80327 7.8719C7.60443 7.8719 8.25642 7.21991 8.25642 6.41837C8.25642 5.61684 7.60443 4.96485 6.80327 4.96485C6.00082 4.96485 5.34883 5.61684 5.34883 6.41837C5.34883 7.21991 6.00084 7.8719 6.80327 7.8719ZM6.80327 4.25629C5.60988 4.25629 4.64027 5.2263 4.64027 6.4184C4.64027 7.61076 5.6099 8.58037 6.80327 8.58037C7.99537 8.58037 8.96498 7.61073 8.96498 6.4184C8.96498 5.2263 7.99537 4.25629 6.80327 4.25629Z" fill="white"/>
</g>
</g>
<defs>
<clipPath id="clip0_1_1342">
<rect width="12" height="12" fill="white" transform="translate(0.799988 0.418945)"/>
</clipPath>
</defs>
</svg>
