<svg width="15" height="16" viewBox="0 0 15 16" fill="none" xmlns="http://www.w3.org/2000/svg">
<mask id="path-1-inside-1_1_255" fill="white">
<path d="M12 7.68005C11.9998 6.95116 11.8332 6.23256 11.5136 5.5825C11.1941 4.93245 10.7306 4.36923 10.1607 3.93849L9.80966 1.94322C9.7721 1.72916 9.66289 1.5355 9.50108 1.39602C9.33927 1.25654 9.13514 1.18011 8.92429 1.18005H6.07583C5.86499 1.18011 5.66085 1.25654 5.49904 1.39602C5.33724 1.5355 5.22803 1.72916 5.19047 1.94322L4.83947 3.93849C4.26941 4.36908 3.80577 4.93227 3.48616 5.58236C3.16656 6.23244 3 6.95112 3 7.68005C3 8.40899 3.16656 9.12766 3.48616 9.77775C3.80577 10.4278 4.26941 10.991 4.83947 11.4216L5.19047 13.4169C5.22803 13.6309 5.33724 13.8246 5.49904 13.9641C5.66085 14.1036 5.86499 14.18 6.07583 14.1801H8.92429C9.13514 14.18 9.33927 14.1036 9.50108 13.9641C9.66289 13.8246 9.7721 13.6309 9.80966 13.4169L10.1607 11.4216C10.7306 10.9909 11.1941 10.4277 11.5136 9.7776C11.8332 9.12755 11.9998 8.40895 12 7.68005ZM6.07583 2.10863H8.92429L9.14423 3.35929C8.08763 2.92985 6.91249 2.92985 5.8559 3.35929L6.07583 2.10863ZM3.90011 7.68005C3.90011 6.94544 4.11125 6.22732 4.50681 5.61651C4.90238 5.0057 5.46462 4.52963 6.12242 4.2485C6.78023 3.96738 7.50406 3.89382 8.20238 4.03714C8.9007 4.18045 9.54215 4.5342 10.0456 5.05366C10.5491 5.57311 10.8919 6.23493 11.0308 6.95543C11.1697 7.67593 11.0985 8.42275 10.826 9.10145C10.5535 9.78015 10.0921 10.3602 9.50009 10.7684C8.90808 11.1765 8.21207 11.3943 7.50006 11.3943C6.54562 11.3933 5.63056 11.0016 4.95567 10.3053C4.28077 9.60893 3.90116 8.66481 3.90011 7.68005ZM8.92429 13.2515H6.07583L5.8559 12.0008C6.91249 12.4303 8.08763 12.4303 9.14423 12.0008L8.92429 13.2515ZM7.05007 7.68005V5.35862C7.05007 5.23549 7.09748 5.1174 7.18187 5.03033C7.26626 4.94326 7.38072 4.89434 7.50006 4.89434C7.61941 4.89434 7.73387 4.94326 7.81826 5.03033C7.90265 5.1174 7.95006 5.23549 7.95006 5.35862V7.21577H9.75003C9.86938 7.21577 9.98384 7.26468 10.0682 7.35175C10.1526 7.43882 10.2 7.55692 10.2 7.68005C10.2 7.80319 10.1526 7.92128 10.0682 8.00835C9.98384 8.09542 9.86938 8.14434 9.75003 8.14434H7.50006C7.38072 8.14434 7.26626 8.09542 7.18187 8.00835C7.09748 7.92128 7.05007 7.80319 7.05007 7.68005Z"/>
</mask>
<path d="M12 7.68005C11.9998 6.95116 11.8332 6.23256 11.5136 5.5825C11.1941 4.93245 10.7306 4.36923 10.1607 3.93849L9.80966 1.94322C9.7721 1.72916 9.66289 1.5355 9.50108 1.39602C9.33927 1.25654 9.13514 1.18011 8.92429 1.18005H6.07583C5.86499 1.18011 5.66085 1.25654 5.49904 1.39602C5.33724 1.5355 5.22803 1.72916 5.19047 1.94322L4.83947 3.93849C4.26941 4.36908 3.80577 4.93227 3.48616 5.58236C3.16656 6.23244 3 6.95112 3 7.68005C3 8.40899 3.16656 9.12766 3.48616 9.77775C3.80577 10.4278 4.26941 10.991 4.83947 11.4216L5.19047 13.4169C5.22803 13.6309 5.33724 13.8246 5.49904 13.9641C5.66085 14.1036 5.86499 14.18 6.07583 14.1801H8.92429C9.13514 14.18 9.33927 14.1036 9.50108 13.9641C9.66289 13.8246 9.7721 13.6309 9.80966 13.4169L10.1607 11.4216C10.7306 10.9909 11.1941 10.4277 11.5136 9.7776C11.8332 9.12755 11.9998 8.40895 12 7.68005ZM6.07583 2.10863H8.92429L9.14423 3.35929C8.08763 2.92985 6.91249 2.92985 5.8559 3.35929L6.07583 2.10863ZM3.90011 7.68005C3.90011 6.94544 4.11125 6.22732 4.50681 5.61651C4.90238 5.0057 5.46462 4.52963 6.12242 4.2485C6.78023 3.96738 7.50406 3.89382 8.20238 4.03714C8.9007 4.18045 9.54215 4.5342 10.0456 5.05366C10.5491 5.57311 10.8919 6.23493 11.0308 6.95543C11.1697 7.67593 11.0985 8.42275 10.826 9.10145C10.5535 9.78015 10.0921 10.3602 9.50009 10.7684C8.90808 11.1765 8.21207 11.3943 7.50006 11.3943C6.54562 11.3933 5.63056 11.0016 4.95567 10.3053C4.28077 9.60893 3.90116 8.66481 3.90011 7.68005ZM8.92429 13.2515H6.07583L5.8559 12.0008C6.91249 12.4303 8.08763 12.4303 9.14423 12.0008L8.92429 13.2515ZM7.05007 7.68005V5.35862C7.05007 5.23549 7.09748 5.1174 7.18187 5.03033C7.26626 4.94326 7.38072 4.89434 7.50006 4.89434C7.61941 4.89434 7.73387 4.94326 7.81826 5.03033C7.90265 5.1174 7.95006 5.23549 7.95006 5.35862V7.21577H9.75003C9.86938 7.21577 9.98384 7.26468 10.0682 7.35175C10.1526 7.43882 10.2 7.55692 10.2 7.68005C10.2 7.80319 10.1526 7.92128 10.0682 8.00835C9.98384 8.09542 9.86938 8.14434 9.75003 8.14434H7.50006C7.38072 8.14434 7.26626 8.09542 7.18187 8.00835C7.09748 7.92128 7.05007 7.80319 7.05007 7.68005Z" fill="#F97316"/>
<path d="M12 7.68005L13 7.68028V7.67983L12 7.68005ZM10.1607 3.93849L9.17577 4.11174L9.24392 4.49911L9.5577 4.73627L10.1607 3.93849ZM9.80966 1.94322L8.8247 2.11603L8.82478 2.11648L9.80966 1.94322ZM8.92429 1.18005L8.92456 0.180054H8.92429V1.18005ZM6.07583 1.18005V0.180054L6.07557 0.180054L6.07583 1.18005ZM5.19047 1.94322L6.17535 2.11648L6.17543 2.11603L5.19047 1.94322ZM4.83947 3.93849L5.4422 4.73644L5.75618 4.49928L5.82435 4.11174L4.83947 3.93849ZM4.83947 11.4216L5.82435 11.2484L5.75618 10.8608L5.4422 10.6237L4.83947 11.4216ZM5.19047 13.4169L6.17543 13.2441L6.17535 13.2436L5.19047 13.4169ZM6.07583 14.1801L6.07557 15.1801H6.07583V14.1801ZM8.92429 14.1801V15.1801H8.92456L8.92429 14.1801ZM9.80966 13.4169L8.82478 13.2436L8.8247 13.2441L9.80966 13.4169ZM10.1607 11.4216L9.5577 10.6238L9.24392 10.861L9.17577 11.2484L10.1607 11.4216ZM6.07583 2.10863V1.10863H5.23634L5.09095 1.93543L6.07583 2.10863ZM8.92429 2.10863L9.90918 1.93543L9.76379 1.10863H8.92429V2.10863ZM9.14423 3.35929L8.76769 4.2857L10.4422 4.96628L10.1291 3.1861L9.14423 3.35929ZM5.8559 3.35929L4.87101 3.1861L4.55796 4.96628L6.23243 4.2857L5.8559 3.35929ZM3.90011 7.68005H2.90011L2.90011 7.68111L3.90011 7.68005ZM7.50006 11.3943L7.49894 12.3943H7.50006V11.3943ZM8.92429 13.2515V14.2515H9.76379L9.90918 13.4247L8.92429 13.2515ZM6.07583 13.2515L5.09095 13.4247L5.23634 14.2515H6.07583V13.2515ZM5.8559 12.0008L6.23243 11.0744L4.55796 10.3938L4.87101 12.174L5.8559 12.0008ZM9.14423 12.0008L10.1291 12.174L10.4422 10.3938L8.76769 11.0744L9.14423 12.0008ZM7.95006 7.21577H6.95006V8.21577H7.95006V7.21577ZM13 7.67983C12.9998 6.79904 12.7985 5.92949 12.4111 5.14133L10.6162 6.02368C10.8679 6.53564 10.9999 7.10328 11 7.68028L13 7.67983ZM12.4111 5.14133C12.0236 4.35307 11.46 3.66704 10.7636 3.14072L9.5577 4.73627C10.0011 5.07142 10.3646 5.51183 10.6162 6.02368L12.4111 5.14133ZM11.1455 3.76524L10.7945 1.76997L8.82478 2.11648L9.17577 4.11174L11.1455 3.76524ZM10.7946 1.77042C10.7179 1.33329 10.4939 0.931594 10.154 0.638578L8.84818 2.15346C8.83186 2.1394 8.82628 2.12503 8.8247 2.11603L10.7946 1.77042ZM10.154 0.638578C9.81334 0.344946 9.37843 0.180175 8.92456 0.180054L8.92403 2.18005C8.89185 2.18005 8.86521 2.16814 8.84818 2.15346L10.154 0.638578ZM8.92429 0.180054H6.07583V2.18005H8.92429V0.180054ZM6.07557 0.180054C5.6217 0.180175 5.18679 0.344945 4.84614 0.638578L6.15195 2.15346C6.13492 2.16814 6.10828 2.18005 6.0761 2.18005L6.07557 0.180054ZM4.84614 0.638578C4.50621 0.931595 4.28221 1.33329 4.20551 1.77042L6.17543 2.11603C6.17385 2.12503 6.16826 2.1394 6.15195 2.15346L4.84614 0.638578ZM4.20559 1.76997L3.8546 3.76524L5.82435 4.11174L6.17535 2.11648L4.20559 1.76997ZM4.23675 3.14054C3.54012 3.66674 2.97634 4.35279 2.58875 5.14116L4.38357 6.02355C4.63519 5.51175 4.99871 5.07143 5.4422 4.73644L4.23675 3.14054ZM2.58875 5.14116C2.20122 5.92942 2 6.79913 2 7.68005H4C4 7.1031 4.1319 6.53547 4.38357 6.02355L2.58875 5.14116ZM2 7.68005C2 8.56097 2.20122 9.43069 2.58875 10.2189L4.38357 9.33655C4.1319 8.82464 4 8.25701 4 7.68005H2ZM2.58875 10.2189C2.97634 11.0073 3.54012 11.6934 4.23675 12.2196L5.4422 10.6237C4.99871 10.2887 4.63519 9.84836 4.38357 9.33655L2.58875 10.2189ZM3.8546 11.5949L4.20559 13.5901L6.17535 13.2436L5.82435 11.2484L3.8546 11.5949ZM4.20551 13.5897C4.28221 14.0268 4.50621 14.4285 4.84614 14.7215L6.15195 13.2066C6.16826 13.2207 6.17385 13.2351 6.17543 13.2441L4.20551 13.5897ZM4.84614 14.7215C5.18679 15.0152 5.6217 15.1799 6.07557 15.1801L6.0761 13.1801C6.10828 13.1801 6.13492 13.192 6.15195 13.2066L4.84614 14.7215ZM6.07583 15.1801H8.92429V13.1801H6.07583V15.1801ZM8.92456 15.1801C9.37843 15.1799 9.81334 15.0152 10.154 14.7215L8.84818 13.2066C8.86521 13.192 8.89185 13.1801 8.92403 13.1801L8.92456 15.1801ZM10.154 14.7215C10.4939 14.4285 10.7179 14.0268 10.7946 13.5897L8.8247 13.2441C8.82628 13.2351 8.83186 13.2207 8.84818 13.2066L10.154 14.7215ZM10.7945 13.5901L11.1455 11.5949L9.17577 11.2484L8.82478 13.2436L10.7945 13.5901ZM10.7636 12.2194C11.46 11.6931 12.0236 11.007 12.4111 10.2188L10.6162 9.33643C10.3646 9.84828 10.0011 10.2887 9.5577 10.6238L10.7636 12.2194ZM12.4111 10.2188C12.7985 9.43062 12.9998 8.56107 13 7.68028L11 7.67983C10.9999 8.25682 10.8679 8.82447 10.6162 9.33643L12.4111 10.2188ZM6.07583 3.10863H8.92429V1.10863H6.07583V3.10863ZM7.93941 2.28182L8.15934 3.53249L10.1291 3.1861L9.90918 1.93543L7.93941 2.28182ZM9.52076 2.43289C8.22273 1.90531 6.77739 1.90531 5.47937 2.43289L6.23243 4.2857C7.0476 3.95438 7.95253 3.95438 8.76769 4.2857L9.52076 2.43289ZM6.84079 3.53249L7.06072 2.28182L5.09095 1.93543L4.87101 3.1861L6.84079 3.53249ZM4.90011 7.68005C4.90011 7.13639 5.05651 6.60736 5.34617 6.16008L3.66746 5.07293C3.16598 5.84727 2.90011 6.75449 2.90011 7.68005H4.90011ZM5.34617 6.16008C5.63563 5.71312 6.0438 5.3696 6.51541 5.16805L5.72944 3.32896C4.88543 3.68966 4.16913 4.29827 3.66746 5.07293L5.34617 6.16008ZM6.51541 5.16805C6.98664 4.96666 7.50326 4.9145 8.00134 5.01672L8.40342 3.05755C7.50485 2.87314 6.57382 2.96809 5.72944 3.32896L6.51541 5.16805ZM8.00134 5.01672C8.49965 5.11899 8.96179 5.37226 9.32754 5.74963L10.7637 4.35769C10.1225 3.69615 9.30175 3.24192 8.40342 3.05755L8.00134 5.01672ZM9.32754 5.74963C9.69361 6.12732 9.94627 6.61228 10.0489 7.14474L12.0128 6.76613C11.8376 5.85759 11.4045 5.01889 10.7637 4.35769L9.32754 5.74963ZM10.0489 7.14474C10.1516 7.67732 10.0986 8.22904 9.89797 8.72889L11.754 9.47401C12.0983 8.61646 12.1879 7.67455 12.0128 6.76613L10.0489 7.14474ZM9.89797 8.72889C9.6974 9.22849 9.35976 9.6505 8.9325 9.94506L10.0677 11.5917C10.8244 11.07 11.4096 10.3318 11.754 9.47401L9.89797 8.72889ZM8.9325 9.94506C8.50563 10.2393 8.00719 10.3943 7.50006 10.3943V12.3943C8.41694 12.3943 9.31053 12.1137 10.0677 11.5917L8.9325 9.94506ZM7.50119 10.3943C6.82183 10.3936 6.16395 10.1151 5.67374 9.60929L4.23759 11.0012C5.09718 11.8881 6.26941 12.393 7.49894 12.3943L7.50119 10.3943ZM5.67374 9.60929C5.18251 9.10246 4.90088 8.40881 4.90011 7.679L2.90011 7.68111C2.90143 8.92082 3.37903 10.1154 4.23759 11.0012L5.67374 9.60929ZM8.92429 12.2515H6.07583V14.2515H8.92429V12.2515ZM7.06072 13.0783L6.84079 11.8276L4.87101 12.174L5.09095 13.4247L7.06072 13.0783ZM5.47937 12.9272C6.77739 13.4548 8.22273 13.4548 9.52076 12.9272L8.76769 11.0744C7.95253 11.4057 7.0476 11.4057 6.23243 11.0744L5.47937 12.9272ZM8.15934 11.8276L7.93941 13.0783L9.90918 13.4247L10.1291 12.174L8.15934 11.8276ZM8.05007 7.68005V5.35862H6.05007V7.68005H8.05007ZM8.05007 5.35862C8.05007 5.49079 7.99948 5.6236 7.89994 5.72629L6.4638 4.33436C6.19548 4.61119 6.05007 4.98018 6.05007 5.35862H8.05007ZM7.89994 5.72629C7.79938 5.83005 7.6562 5.89434 7.50006 5.89434V3.89434C7.10523 3.89434 6.73314 4.05646 6.4638 4.33436L7.89994 5.72629ZM7.50006 5.89434C7.34392 5.89434 7.20075 5.83005 7.10018 5.72629L8.53633 4.33436C8.26698 4.05646 7.89489 3.89434 7.50006 3.89434V5.89434ZM7.10018 5.72629C7.00065 5.6236 6.95006 5.49079 6.95006 5.35862H8.95006C8.95006 4.98019 8.80465 4.61119 8.53633 4.33436L7.10018 5.72629ZM6.95006 5.35862V7.21577H8.95006V5.35862H6.95006ZM7.95006 8.21577H9.75003V6.21577H7.95006V8.21577ZM9.75003 8.21577C9.59389 8.21577 9.45072 8.15148 9.35015 8.04772L10.7863 6.65579C10.517 6.37789 10.1449 6.21577 9.75003 6.21577V8.21577ZM9.35015 8.04772C9.25062 7.94502 9.20003 7.81222 9.20003 7.68005H11.2C11.2 7.30162 11.0546 6.93262 10.7863 6.65579L9.35015 8.04772ZM9.20003 7.68005C9.20003 7.54789 9.25062 7.41508 9.35015 7.31239L10.7863 8.70432C11.0546 8.42748 11.2 8.05849 11.2 7.68005H9.20003ZM9.35015 7.31239C9.45072 7.20862 9.5939 7.14434 9.75003 7.14434V9.14434C10.1449 9.14434 10.517 8.98222 10.7863 8.70432L9.35015 7.31239ZM9.75003 7.14434H7.50006V9.14434H9.75003V7.14434ZM7.50006 7.14434C7.6562 7.14434 7.79938 7.20863 7.89994 7.31239L6.4638 8.70432C6.73314 8.98222 7.10523 9.14434 7.50006 9.14434V7.14434ZM7.89994 7.31239C7.99948 7.41508 8.05007 7.54789 8.05007 7.68005H6.05007C6.05007 8.05849 6.19548 8.42749 6.4638 8.70432L7.89994 7.31239Z" fill="#F97316" mask="url(#path-1-inside-1_1_255)"/>
</svg>
