<svg width="15" height="16" viewBox="0 0 15 16" fill="none" xmlns="http://www.w3.org/2000/svg">
<path d="M11.6037 7.8367C11.611 7.72793 11.615 7.61528 11.615 7.49886L11.6037 7.8367ZM11.6037 7.8367L11.3845 7.82712C10.9588 7.80852 9.74072 7.73593 8.44144 7.4823C7.79193 7.35552 7.13329 7.1856 6.54845 6.95977C5.95871 6.73205 5.47465 6.45906 5.1473 6.14212L4.82997 5.83487C5.39171 5.46775 6.22066 5.16535 7.43917 5.16535C9.11845 5.16535 10.0094 5.73912 10.4837 6.25413C10.7273 6.51863 10.874 6.78186 10.959 6.97566C11.0014 7.07238 11.028 7.15087 11.0434 7.20207C11.0511 7.22762 11.0559 7.24621 11.0585 7.25668L11.0607 7.26591L11.0604 7.26455L11.0602 7.26354L11.0601 7.26296C11.0601 7.26289 11.0601 7.26282 11.0646 7.26186L11.6026 7.20927C11.6109 7.30644 11.615 7.40311 11.615 7.49882L11.6037 7.8367ZM3.64582 7.29607L3.64882 7.28611C3.6522 7.27525 3.65841 7.25621 3.66796 7.23017C3.68709 7.17799 3.71941 7.09824 3.76895 7.00003C3.86784 6.804 4.03366 6.53763 4.29747 6.26957L4.29952 6.50568C4.30926 7.62541 3.59381 8.14683 3.32411 8.30381C3.28551 8.06041 3.26017 7.79155 3.26017 7.49882C3.26017 7.41452 3.26334 7.32947 3.26976 7.244L3.64318 7.29232C3.64656 7.29328 3.64655 7.29333 3.64653 7.29339L3.64638 7.29395L3.64613 7.29489L3.64582 7.29607ZM3.64582 7.29607L3.64579 7.29614C3.64572 7.2964 3.64569 7.29653 3.64569 7.29653C3.64569 7.29653 3.64573 7.29637 3.64582 7.29607ZM3.19227 11.0944C3.43431 11.7209 3.91901 12.3278 4.63997 12.7751C4.56613 12.9042 4.48683 12.9511 4.42397 12.9733C4.32624 13.0078 4.1823 13.0105 3.99409 12.9583C3.80966 12.9072 3.62334 12.8142 3.47369 12.7151C3.39981 12.6662 3.34158 12.6201 3.30174 12.5837C3.28206 12.5657 3.271 12.5539 3.26598 12.5483C3.06168 12.1604 3.05451 11.6124 3.19227 11.0944ZM10.4509 12.9733C10.388 12.9511 10.3086 12.9042 10.2348 12.7752C10.9556 12.3278 11.4403 11.721 11.6823 11.0946C11.8201 11.6127 11.813 12.1605 11.609 12.5483C11.604 12.5539 11.5929 12.5658 11.5732 12.5838C11.5334 12.6202 11.4751 12.6662 11.4012 12.7152C11.2516 12.8143 11.0653 12.9073 10.8808 12.9584C10.6926 13.0105 10.5487 13.0079 10.4509 12.9733Z" fill="#9C9C9C" stroke="#9C9C9C"/>
<path d="M9.85417 9.24983C9.85417 9.43391 9.70493 9.58315 9.52083 9.58315C9.33673 9.58315 9.1875 9.43391 9.1875 9.24983C9.1875 9.06574 9.33673 8.9165 9.52083 8.9165C9.70493 8.9165 9.85417 9.06574 9.85417 9.24983Z" fill="#9C9C9C" stroke="#9C9C9C"/>
<path d="M5.6901 9.24983C5.6901 9.43391 5.54087 9.58315 5.35677 9.58315C5.17267 9.58315 5.02344 9.43391 5.02344 9.24983C5.02344 9.06574 5.17267 8.9165 5.35677 8.9165C5.54087 8.9165 5.6901 9.06574 5.6901 9.24983Z" fill="#9C9C9C" stroke="#9C9C9C"/>
<mask id="path-4-inside-1_1_249" fill="white">
<path d="M8.78591 11.1878C7.91674 11.7878 6.95258 11.7841 6.08891 11.1878C5.98541 11.1158 5.89158 11.2401 5.96191 11.3555C6.22458 11.7841 6.75658 12.1666 7.43724 12.1666C8.11824 12.1666 8.65008 11.7841 8.91291 11.3555C8.98374 11.2401 8.89008 11.1158 8.78591 11.1878Z"/>
</mask>
<path d="M8.78591 11.1878C7.91674 11.7878 6.95258 11.7841 6.08891 11.1878C5.98541 11.1158 5.89158 11.2401 5.96191 11.3555C6.22458 11.7841 6.75658 12.1666 7.43724 12.1666C8.11824 12.1666 8.65008 11.7841 8.91291 11.3555C8.98374 11.2401 8.89008 11.1158 8.78591 11.1878Z" fill="#9C9C9C"/>
<path d="M8.78591 11.1878L9.35401 12.0108L9.3545 12.0104L8.78591 11.1878ZM6.08891 11.1878L5.51785 12.0087L5.52073 12.0107L6.08891 11.1878ZM5.96191 11.3555L5.10814 11.8761L5.10925 11.8779L5.96191 11.3555ZM8.91291 11.3555L8.06079 10.8321L8.0604 10.8328L8.91291 11.3555ZM8.21781 10.3648C7.69189 10.7279 7.18007 10.726 6.65709 10.3649L5.52073 12.0107C6.72508 12.8423 8.14159 12.8477 9.35401 12.0108L8.21781 10.3648ZM6.65997 10.3669C6.46034 10.228 6.18202 10.1313 5.86737 10.1784C5.55786 10.2248 5.31577 10.3957 5.16264 10.5982C4.85842 11.0004 4.88523 11.5106 5.10814 11.8761L6.81568 10.8348C6.96825 11.085 7.00681 11.4753 6.75781 11.8046C6.63228 11.9706 6.42866 12.1167 6.16365 12.1564C5.8935 12.1968 5.66573 12.1116 5.51785 12.0087L6.65997 10.3669ZM5.10925 11.8779C5.53251 12.5687 6.3699 13.1666 7.43724 13.1666V11.1666C7.14325 11.1666 6.91664 10.9996 6.81456 10.833L5.10925 11.8779ZM7.43724 13.1666C8.50496 13.1666 9.34206 12.5686 9.76542 11.8782L8.0604 10.8328C7.9581 10.9996 7.73152 11.1666 7.43724 11.1666V13.1666ZM9.76503 11.8788C9.98873 11.5146 10.0185 11.003 9.71284 10.5985C9.55905 10.395 9.31639 10.2245 9.00734 10.1784C8.69368 10.1315 8.41638 10.2276 8.21732 10.3652L9.3545 12.0104C9.20752 12.112 8.98099 12.1966 8.71197 12.1564C8.44758 12.117 8.24344 11.9713 8.11723 11.8043C7.8667 11.4728 7.90792 11.081 8.06079 10.8321L9.76503 11.8788Z" fill="#9C9C9C" mask="url(#path-4-inside-1_1_249)"/>
</svg>
