<svg width="158" height="41" viewBox="0 0 158 41" fill="none" xmlns="http://www.w3.org/2000/svg">
<rect x="0.244629" y="0.159424" width="157" height="40.4396" rx="6" fill="black"/>
<path d="M36.9473 20.8947C36.9583 19.9511 37.2077 19.0257 37.6721 18.2053C38.1364 17.3848 38.8006 16.6961 39.6024 16.2035C39.0928 15.475 38.4219 14.8751 37.6425 14.4506C36.8631 14.0262 35.9963 13.789 35.1101 13.7575C33.1968 13.5627 31.3769 14.888 30.4079 14.888C29.4378 14.888 27.9408 13.7858 26.3554 13.8154C25.3137 13.8443 24.2973 14.1445 23.406 14.6866C22.5148 15.2286 21.7791 15.994 21.2712 16.9075C19.1074 20.6802 20.7198 26.2689 22.8284 29.3302C23.86 30.8269 25.0917 32.5123 26.7066 32.4519C28.2638 32.3903 28.8508 31.4409 30.7309 31.4409C32.6111 31.4409 33.1403 32.4519 34.7835 32.4211C36.4585 32.3903 37.5208 30.8935 38.5438 29.3918C39.277 28.3115 39.8499 27.13 40.2446 25.8843C39.2698 25.4666 38.4381 24.7715 37.8522 23.8849C37.2663 22.9982 36.9517 21.9588 36.9473 20.8947ZM33.8563 11.7318C34.7831 10.6404 35.2422 9.22521 35.1335 7.79517C33.7345 7.93183 32.4405 8.60055 31.5169 9.66424C31.0559 10.1796 30.703 10.7828 30.4792 11.4379C30.2553 12.093 30.1651 12.7867 30.2139 13.4776C30.9138 13.4871 31.6065 13.3345 32.2382 13.0317C32.8698 12.729 33.4236 12.2842 33.8563 11.7318Z" fill="white"/>
<path d="M59.3696 14.6243H57.1253V7.35154H59.4691C60.1746 7.35154 60.7782 7.49714 61.2801 7.78833C61.782 8.07716 62.1667 8.49264 62.4343 9.03478C62.7018 9.57455 62.8355 10.2209 62.8355 10.9737C62.8355 11.7313 62.7006 12.3835 62.4307 12.9304C62.1608 13.4749 61.7678 13.8939 61.2517 14.1875C60.7356 14.4787 60.1083 14.6243 59.3696 14.6243ZM58.006 13.843H59.3128C59.9141 13.843 60.4125 13.727 60.8078 13.495C61.2032 13.263 61.4979 12.9327 61.6921 12.5042C61.8862 12.0757 61.9833 11.5656 61.9833 10.9737C61.9833 10.3866 61.8874 9.88113 61.6956 9.45736C61.5039 9.03123 61.2174 8.70452 60.8362 8.47725C60.4551 8.24761 59.9804 8.13279 59.4122 8.13279H58.006V13.843ZM66.4151 14.7379C65.9227 14.7379 65.4906 14.6207 65.1189 14.3863C64.7496 14.152 64.4608 13.8241 64.2524 13.4027C64.0465 12.9813 63.9435 12.4889 63.9435 11.9254C63.9435 11.3572 64.0465 10.8612 64.2524 10.4375C64.4608 10.0137 64.7496 9.68464 65.1189 9.45026C65.4906 9.21589 65.9227 9.0987 66.4151 9.0987C66.9075 9.0987 67.3384 9.21589 67.7077 9.45026C68.0794 9.68464 68.3682 10.0137 68.5742 10.4375C68.7825 10.8612 68.8867 11.3572 68.8867 11.9254C68.8867 12.4889 68.7825 12.9813 68.5742 13.4027C68.3682 13.8241 68.0794 14.152 67.7077 14.3863C67.3384 14.6207 66.9075 14.7379 66.4151 14.7379ZM66.4151 13.9851C66.7891 13.9851 67.0969 13.8892 67.3384 13.6974C67.5799 13.5057 67.7586 13.2535 67.8746 12.941C67.9906 12.6285 68.0486 12.29 68.0486 11.9254C68.0486 11.5608 67.9906 11.2211 67.8746 10.9062C67.7586 10.5914 67.5799 10.3369 67.3384 10.1427C67.0969 9.9486 66.7891 9.85154 66.4151 9.85154C66.041 9.85154 65.7333 9.9486 65.4918 10.1427C65.2503 10.3369 65.0716 10.5914 64.9556 10.9062C64.8396 11.2211 64.7816 11.5608 64.7816 11.9254C64.7816 12.29 64.8396 12.6285 64.9556 12.941C65.0716 13.2535 65.2503 13.5057 65.4918 13.6974C65.7333 13.8892 66.041 13.9851 66.4151 13.9851ZM71.2162 14.6243L69.5543 9.16972H70.435L71.6139 13.3459H71.6708L72.8355 9.16972H73.7304L74.881 13.3317H74.9378L76.1168 9.16972H76.9975L75.3355 14.6243H74.5117L73.3185 10.4339H73.2333L72.0401 14.6243H71.2162ZM78.9435 11.343V14.6243H78.1054V9.16972H78.9151V10.022H78.9861C79.1139 9.74501 79.3081 9.52247 79.5685 9.35438C79.8289 9.18393 80.1651 9.0987 80.577 9.0987C80.9463 9.0987 81.2695 9.17446 81.5465 9.32597C81.8235 9.47512 82.0389 9.70239 82.1928 10.0078C82.3467 10.3108 82.4236 10.6943 82.4236 11.1584V14.6243H81.5855V11.2152C81.5855 10.7867 81.4743 10.4529 81.2517 10.2138C81.0292 9.97228 80.7238 9.85154 80.3355 9.85154C80.068 9.85154 79.8289 9.90954 79.6182 10.0255C79.4099 10.1415 79.2453 10.3108 79.1246 10.5334C79.0039 10.7559 78.9435 11.0258 78.9435 11.343ZM84.7931 7.35154V14.6243H83.955V7.35154H84.7931ZM88.544 14.7379C88.0516 14.7379 87.6195 14.6207 87.2478 14.3863C86.8785 14.152 86.5897 13.8241 86.3813 13.4027C86.1754 12.9813 86.0724 12.4889 86.0724 11.9254C86.0724 11.3572 86.1754 10.8612 86.3813 10.4375C86.5897 10.0137 86.8785 9.68464 87.2478 9.45026C87.6195 9.21589 88.0516 9.0987 88.544 9.0987C89.0364 9.0987 89.4673 9.21589 89.8366 9.45026C90.2083 9.68464 90.4971 10.0137 90.7031 10.4375C90.9114 10.8612 91.0156 11.3572 91.0156 11.9254C91.0156 12.4889 90.9114 12.9813 90.7031 13.4027C90.4971 13.8241 90.2083 14.152 89.8366 14.3863C89.4673 14.6207 89.0364 14.7379 88.544 14.7379ZM88.544 13.9851C88.918 13.9851 89.2258 13.8892 89.4673 13.6974C89.7088 13.5057 89.8875 13.2535 90.0035 12.941C90.1195 12.6285 90.1775 12.29 90.1775 11.9254C90.1775 11.5608 90.1195 11.2211 90.0035 10.9062C89.8875 10.5914 89.7088 10.3369 89.4673 10.1427C89.2258 9.9486 88.918 9.85154 88.544 9.85154C88.1699 9.85154 87.8622 9.9486 87.6207 10.1427C87.3792 10.3369 87.2005 10.5914 87.0845 10.9062C86.9685 11.2211 86.9105 11.5608 86.9105 11.9254C86.9105 12.29 86.9685 12.6285 87.0845 12.941C87.2005 13.2535 87.3792 13.5057 87.6207 13.6974C87.8622 13.8892 88.1699 13.9851 88.544 13.9851ZM93.9 14.7521C93.5543 14.7521 93.2407 14.687 92.9589 14.5568C92.6772 14.4242 92.4535 14.2336 92.2878 13.9851C92.1221 13.7341 92.0392 13.4311 92.0392 13.076C92.0392 12.7635 92.1007 12.5102 92.2239 12.316C92.347 12.1195 92.5115 11.9656 92.7175 11.8544C92.9234 11.7431 93.1507 11.6603 93.3993 11.6058C93.6502 11.549 93.9024 11.504 94.1557 11.4709C94.4871 11.4282 94.7558 11.3963 94.9618 11.375C95.1701 11.3513 95.3216 11.3122 95.4163 11.2578C95.5134 11.2033 95.5619 11.1086 95.5619 10.9737V10.9453C95.5619 10.5949 95.466 10.3227 95.2743 10.1285C95.0849 9.9344 94.7972 9.83734 94.4114 9.83734C94.0113 9.83734 93.6976 9.92493 93.4703 10.1001C93.243 10.2753 93.0832 10.4623 92.9909 10.6612L92.1954 10.3771C92.3375 10.0457 92.5269 9.78762 92.7636 9.60296C93.0027 9.41593 93.2632 9.28573 93.5449 9.21234C93.829 9.13658 94.1083 9.0987 94.3829 9.0987C94.5581 9.0987 94.7594 9.12001 94.9866 9.16262C95.2163 9.20287 95.4376 9.28691 95.6507 9.41475C95.8661 9.54259 96.0449 9.73554 96.1869 9.99359C96.329 10.2516 96.4 10.5973 96.4 11.0305V14.6243H95.5619V13.8856H95.5193C95.4625 14.004 95.3678 14.1307 95.2352 14.2656C95.1026 14.4005 94.9263 14.5154 94.7061 14.6101C94.4859 14.7048 94.2172 14.7521 93.9 14.7521ZM94.0278 13.9993C94.3593 13.9993 94.6386 13.9342 94.8659 13.804C95.0955 13.6737 95.2684 13.5057 95.3844 13.2997C95.5027 13.0937 95.5619 12.8771 95.5619 12.6498V11.8828C95.5264 11.9254 95.4483 11.9645 95.3275 12C95.2092 12.0331 95.0719 12.0627 94.9156 12.0888C94.7617 12.1124 94.6114 12.1337 94.4646 12.1527C94.3202 12.1692 94.203 12.1835 94.1131 12.1953C93.8953 12.2237 93.6917 12.2699 93.5023 12.3338C93.3152 12.3953 93.1637 12.4889 93.0477 12.6143C92.9341 12.7374 92.8773 12.9055 92.8773 13.1186C92.8773 13.4098 92.985 13.6299 93.2004 13.7791C93.4182 13.9259 93.694 13.9993 94.0278 13.9993ZM99.9893 14.7379C99.5348 14.7379 99.1335 14.6231 98.7855 14.3934C98.4375 14.1614 98.1652 13.8347 97.9687 13.4133C97.7722 12.9896 97.674 12.4889 97.674 11.9112C97.674 11.3383 97.7722 10.8411 97.9687 10.4197C98.1652 9.99832 98.4386 9.6728 98.789 9.44316C99.1394 9.21352 99.5442 9.0987 100.004 9.0987C100.359 9.0987 100.639 9.15789 100.845 9.27626C101.053 9.39226 101.212 9.52484 101.321 9.67398C101.432 9.82076 101.519 9.9415 101.58 10.0362H101.651V7.35154H102.489V14.6243H101.68V13.7862H101.58C101.519 13.8856 101.431 14.0111 101.317 14.1626C101.204 14.3118 101.042 14.4455 100.831 14.5639C100.62 14.6799 100.34 14.7379 99.9893 14.7379ZM100.103 13.9851C100.439 13.9851 100.723 13.8975 100.955 13.7223C101.187 13.5447 101.364 13.2997 101.484 12.9872C101.605 12.6723 101.665 12.3089 101.665 11.897C101.665 11.4898 101.606 11.1335 101.488 10.8281C101.37 10.5203 101.194 10.2812 100.962 10.1108C100.73 9.93795 100.444 9.85154 100.103 9.85154C99.7478 9.85154 99.4519 9.94269 99.2152 10.125C98.9808 10.3049 98.8044 10.5499 98.686 10.8601C98.57 11.1678 98.512 11.5135 98.512 11.897C98.512 12.2853 98.5712 12.638 98.6896 12.9552C98.8103 13.2701 98.9879 13.521 99.2223 13.7081C99.459 13.8927 99.7526 13.9851 100.103 13.9851ZM109.169 14.7379C108.677 14.7379 108.245 14.6207 107.873 14.3863C107.504 14.152 107.215 13.8241 107.006 13.4027C106.8 12.9813 106.697 12.4889 106.697 11.9254C106.697 11.3572 106.8 10.8612 107.006 10.4375C107.215 10.0137 107.504 9.68464 107.873 9.45026C108.245 9.21589 108.677 9.0987 109.169 9.0987C109.661 9.0987 110.092 9.21589 110.462 9.45026C110.833 9.68464 111.122 10.0137 111.328 10.4375C111.536 10.8612 111.641 11.3572 111.641 11.9254C111.641 12.4889 111.536 12.9813 111.328 13.4027C111.122 13.8241 110.833 14.152 110.462 14.3863C110.092 14.6207 109.661 14.7379 109.169 14.7379ZM109.169 13.9851C109.543 13.9851 109.851 13.8892 110.092 13.6974C110.334 13.5057 110.513 13.2535 110.629 12.941C110.745 12.6285 110.803 12.29 110.803 11.9254C110.803 11.5608 110.745 11.2211 110.629 10.9062C110.513 10.5914 110.334 10.3369 110.092 10.1427C109.851 9.9486 109.543 9.85154 109.169 9.85154C108.795 9.85154 108.487 9.9486 108.246 10.1427C108.004 10.3369 107.825 10.5914 107.709 10.9062C107.593 11.2211 107.535 11.5608 107.535 11.9254C107.535 12.29 107.593 12.6285 107.709 12.941C107.825 13.2535 108.004 13.5057 108.246 13.6974C108.487 13.8892 108.795 13.9851 109.169 13.9851ZM113.758 11.343V14.6243H112.92V9.16972H113.73V10.022H113.801C113.928 9.74501 114.123 9.52247 114.383 9.35438C114.643 9.18393 114.98 9.0987 115.391 9.0987C115.761 9.0987 116.084 9.17446 116.361 9.32597C116.638 9.47512 116.853 9.70239 117.007 10.0078C117.161 10.3108 117.238 10.6943 117.238 11.1584V14.6243H116.4V11.2152C116.4 10.7867 116.289 10.4529 116.066 10.2138C115.844 9.97228 115.538 9.85154 115.15 9.85154C114.882 9.85154 114.643 9.90954 114.433 10.0255C114.224 10.1415 114.06 10.3108 113.939 10.5334C113.818 10.7559 113.758 11.0258 113.758 11.343ZM123.954 9.16972V9.87995H121.127V9.16972H123.954ZM121.951 7.8629H122.789V13.0618C122.789 13.2985 122.824 13.4761 122.892 13.5944C122.963 13.7104 123.053 13.7886 123.162 13.8288C123.274 13.8667 123.391 13.8856 123.514 13.8856C123.606 13.8856 123.682 13.8809 123.741 13.8714C123.8 13.8596 123.848 13.8501 123.883 13.843L124.054 14.5959C123.997 14.6172 123.917 14.6385 123.816 14.6598C123.714 14.6835 123.585 14.6953 123.429 14.6953C123.192 14.6953 122.96 14.6444 122.733 14.5426C122.508 14.4408 122.321 14.2857 122.171 14.0774C122.025 13.8691 121.951 13.6063 121.951 13.289V7.8629ZM126.17 11.343V14.6243H125.332V7.35154H126.17V10.022H126.241C126.369 9.74027 126.561 9.51655 126.816 9.35083C127.074 9.18274 127.418 9.0987 127.846 9.0987C128.218 9.0987 128.543 9.17327 128.823 9.32242C129.102 9.4692 129.319 9.69529 129.473 10.0007C129.629 10.3037 129.707 10.6896 129.707 11.1584V14.6243H128.869V11.2152C128.869 10.7819 128.756 10.4469 128.532 10.2102C128.309 9.9711 128 9.85154 127.605 9.85154C127.33 9.85154 127.084 9.90954 126.866 10.0255C126.651 10.1415 126.48 10.3108 126.355 10.5334C126.232 10.7559 126.17 11.0258 126.17 11.343ZM133.527 14.7379C133.002 14.7379 132.548 14.6219 132.167 14.3899C131.788 14.1555 131.496 13.8288 131.29 13.4098C131.086 12.9884 130.985 12.4983 130.985 11.9396C130.985 11.3809 131.086 10.8885 131.29 10.4623C131.496 10.0338 131.782 9.70003 132.149 9.46092C132.519 9.21944 132.949 9.0987 133.442 9.0987C133.726 9.0987 134.007 9.14605 134.284 9.24074C134.561 9.33544 134.813 9.48932 135.04 9.70239C135.267 9.91309 135.448 10.1924 135.583 10.5405C135.718 10.8885 135.786 11.317 135.786 11.826V12.1811H131.581V11.4567H134.933C134.933 11.1489 134.872 10.8743 134.749 10.6328C134.628 10.3913 134.455 10.2007 134.23 10.0611C134.008 9.92138 133.745 9.85154 133.442 9.85154C133.108 9.85154 132.819 9.9344 132.575 10.1001C132.334 10.2635 132.148 10.4765 132.018 10.7393C131.888 11.0021 131.823 11.2838 131.823 11.5845V12.0674C131.823 12.4794 131.894 12.8286 132.036 13.115C132.18 13.3991 132.38 13.6157 132.636 13.7649C132.891 13.9117 133.189 13.9851 133.527 13.9851C133.747 13.9851 133.946 13.9543 134.124 13.8927C134.304 13.8288 134.459 13.7341 134.589 13.6086C134.719 13.4808 134.82 13.3222 134.891 13.1328L135.7 13.3601C135.615 13.6347 135.472 13.8762 135.271 14.0845C135.069 14.2905 134.821 14.4514 134.525 14.5674C134.229 14.6811 133.896 14.7379 133.527 14.7379Z" fill="white"/>
<path d="M58.5564 30.4602H56.5877L60.1722 20.2784H62.4492L66.0387 30.4602H64.0699L61.3505 22.3665H61.2709L58.5564 30.4602ZM58.621 26.468H63.9904V27.9496H58.621V26.468ZM67.3002 33.3238V22.8238H69.0701V24.0866H69.1745C69.2673 23.901 69.3982 23.7038 69.5672 23.495C69.7363 23.2829 69.965 23.1023 70.2533 22.9531C70.5417 22.8006 70.9096 22.7244 71.357 22.7244C71.947 22.7244 72.4789 22.8752 72.9529 23.1768C73.4302 23.4751 73.808 23.9176 74.0864 24.5042C74.3681 25.0876 74.509 25.8035 74.509 26.652C74.509 27.4905 74.3715 28.2031 74.0964 28.7898C73.8213 29.3764 73.4467 29.8238 72.9728 30.1321C72.4988 30.4403 71.9619 30.5944 71.362 30.5944C70.9245 30.5944 70.5616 30.5215 70.2732 30.3757C69.9849 30.2299 69.7529 30.0542 69.5772 29.8487C69.4048 29.6399 69.2706 29.4427 69.1745 29.2571H69.0999V33.3238H67.3002ZM69.0651 26.642C69.0651 27.1359 69.1347 27.5684 69.2739 27.9396C69.4164 28.3108 69.6203 28.6008 69.8854 28.8096C70.1539 29.0151 70.4787 29.1179 70.8599 29.1179C71.2576 29.1179 71.5907 29.0118 71.8592 28.7997C72.1276 28.5843 72.3298 28.2909 72.4657 27.9197C72.6049 27.5452 72.6745 27.1193 72.6745 26.642C72.6745 26.1681 72.6065 25.7471 72.4707 25.3792C72.3348 25.0113 72.1326 24.723 71.8641 24.5142C71.5957 24.3054 71.2609 24.201 70.8599 24.201C70.4754 24.201 70.1489 24.3021 69.8805 24.5042C69.612 24.7064 69.4082 24.9898 69.269 25.3544C69.1331 25.719 69.0651 26.1482 69.0651 26.642ZM76.0502 33.3238V22.8238H77.8201V24.0866H77.9245C78.0173 23.901 78.1482 23.7038 78.3172 23.495C78.4863 23.2829 78.715 23.1023 79.0033 22.9531C79.2917 22.8006 79.6596 22.7244 80.107 22.7244C80.697 22.7244 81.2289 22.8752 81.7029 23.1768C82.1802 23.4751 82.558 23.9176 82.8364 24.5042C83.1181 25.0876 83.259 25.8035 83.259 26.652C83.259 27.4905 83.1215 28.2031 82.8464 28.7898C82.5713 29.3764 82.1967 29.8238 81.7228 30.1321C81.2488 30.4403 80.7119 30.5944 80.112 30.5944C79.6745 30.5944 79.3116 30.5215 79.0232 30.3757C78.7349 30.2299 78.5029 30.0542 78.3272 29.8487C78.1548 29.6399 78.0206 29.4427 77.9245 29.2571H77.8499V33.3238H76.0502ZM77.8151 26.642C77.8151 27.1359 77.8847 27.5684 78.0239 27.9396C78.1664 28.3108 78.3703 28.6008 78.6354 28.8096C78.9039 29.0151 79.2287 29.1179 79.6099 29.1179C80.0076 29.1179 80.3407 29.0118 80.6092 28.7997C80.8776 28.5843 81.0798 28.2909 81.2157 27.9197C81.3549 27.5452 81.4245 27.1193 81.4245 26.642C81.4245 26.1681 81.3565 25.7471 81.2207 25.3792C81.0848 25.0113 80.8826 24.723 80.6141 24.5142C80.3457 24.3054 80.0109 24.201 79.6099 24.201C79.2254 24.201 78.8989 24.3021 78.6305 24.5042C78.362 24.7064 78.1582 24.9898 78.019 25.3544C77.8831 25.719 77.8151 26.1482 77.8151 26.642ZM86.5999 20.2784V30.4602H84.8002V20.2784H86.5999ZM91.8313 30.6094C91.0657 30.6094 90.4044 30.4503 89.8476 30.1321C89.2941 29.8106 88.8682 29.3565 88.5699 28.7699C88.2716 28.1799 88.1225 27.4855 88.1225 26.6868C88.1225 25.9013 88.2716 25.2119 88.5699 24.6186C88.8715 24.022 89.2925 23.558 89.8327 23.2265C90.3729 22.8918 91.0076 22.7244 91.7368 22.7244C92.2075 22.7244 92.6516 22.8006 93.0692 22.9531C93.4901 23.1023 93.8613 23.3343 94.1828 23.6491C94.5077 23.964 94.7629 24.365 94.9485 24.8523C95.1341 25.3362 95.2269 25.9129 95.2269 26.5824V27.1342H88.9676V25.9211H93.5017C93.4984 25.5764 93.4238 25.2699 93.278 25.0014C93.1322 24.7296 92.9283 24.5158 92.6665 24.3601C92.408 24.2043 92.1064 24.1264 91.7617 24.1264C91.3938 24.1264 91.0706 24.2159 90.7922 24.3949C90.5138 24.5705 90.2967 24.8025 90.1409 25.0909C89.9885 25.3759 89.9106 25.6891 89.9073 26.0305V27.0895C89.9073 27.5336 89.9885 27.9148 90.1509 28.2329C90.3133 28.5478 90.5403 28.7898 90.832 28.9588C91.1237 29.1245 91.465 29.2074 91.8561 29.2074C92.118 29.2074 92.355 29.1709 92.5671 29.098C92.7792 29.0218 92.9631 28.9107 93.1189 28.7649C93.2747 28.6191 93.3924 28.4384 93.4719 28.223L95.1523 28.4119C95.0462 28.856 94.8441 29.2438 94.5458 29.5753C94.2508 29.9034 93.8729 30.1586 93.4122 30.3409C92.9515 30.5199 92.4246 30.6094 91.8313 30.6094ZM105.835 23.0774C105.789 22.6432 105.593 22.3051 105.248 22.0632C104.907 21.8212 104.463 21.7003 103.916 21.7003C103.532 21.7003 103.202 21.7583 102.927 21.8743C102.652 21.9903 102.441 22.1477 102.295 22.3466C102.149 22.5454 102.075 22.7725 102.072 23.0277C102.072 23.2398 102.12 23.4237 102.216 23.5795C102.315 23.7353 102.449 23.8679 102.618 23.9773C102.787 24.0833 102.975 24.1728 103.18 24.2457C103.386 24.3186 103.593 24.3799 103.802 24.4297L104.756 24.6683C105.141 24.7578 105.51 24.8788 105.865 25.0312C106.223 25.1837 106.543 25.3759 106.824 25.6079C107.109 25.8399 107.335 26.12 107.5 26.4481C107.666 26.7763 107.749 27.1607 107.749 27.6015C107.749 28.1981 107.597 28.7235 107.292 29.1775C106.987 29.6283 106.546 29.9813 105.969 30.2365C105.396 30.4884 104.701 30.6143 103.886 30.6143C103.094 30.6143 102.406 30.4917 101.823 30.2464C101.243 30.0012 100.789 29.6432 100.461 29.1726C100.136 28.7019 99.9602 28.1285 99.9337 27.4524H101.748C101.775 27.807 101.884 28.102 102.076 28.3373C102.269 28.5727 102.519 28.7483 102.827 28.8643C103.139 28.9803 103.487 29.0383 103.871 29.0383C104.272 29.0383 104.624 28.9787 104.925 28.8594C105.23 28.7367 105.469 28.5677 105.641 28.3523C105.813 28.1335 105.901 27.8783 105.905 27.5866C105.901 27.3215 105.823 27.1027 105.671 26.9304C105.518 26.7547 105.305 26.6089 105.03 26.4929C104.758 26.3736 104.44 26.2675 104.075 26.1747L102.917 25.8764C102.078 25.661 101.415 25.3345 100.928 24.897C100.444 24.4562 100.202 23.8712 100.202 23.142C100.202 22.5421 100.365 22.0168 100.689 21.566C101.018 21.1153 101.463 20.7656 102.027 20.517C102.59 20.2651 103.228 20.1392 103.941 20.1392C104.663 20.1392 105.296 20.2651 105.84 20.517C106.387 20.7656 106.816 21.112 107.128 21.5561C107.439 21.9969 107.6 22.504 107.61 23.0774H105.835ZM113.127 22.8238V24.2159H108.737V22.8238H113.127ZM109.821 20.9943H111.621V28.1633C111.621 28.4053 111.657 28.5909 111.73 28.7201C111.806 28.8461 111.906 28.9323 112.028 28.9787C112.151 29.0251 112.287 29.0483 112.436 29.0483C112.549 29.0483 112.651 29.04 112.744 29.0234C112.84 29.0068 112.913 28.9919 112.963 28.9787L113.266 30.3856C113.17 30.4188 113.033 30.4552 112.854 30.495C112.678 30.5348 112.463 30.558 112.207 30.5646C111.757 30.5779 111.351 30.5099 110.989 30.3608C110.628 30.2083 110.341 29.973 110.129 29.6548C109.92 29.3366 109.818 28.9389 109.821 28.4616V20.9943ZM117.881 30.6094C117.135 30.6094 116.489 30.4453 115.942 30.1172C115.395 29.789 114.971 29.33 114.67 28.74C114.371 28.1501 114.222 27.4607 114.222 26.6719C114.222 25.883 114.371 25.192 114.67 24.5987C114.971 24.0054 115.395 23.5447 115.942 23.2166C116.489 22.8885 117.135 22.7244 117.881 22.7244C118.627 22.7244 119.273 22.8885 119.82 23.2166C120.367 23.5447 120.79 24.0054 121.088 24.5987C121.389 25.192 121.54 25.883 121.54 26.6719C121.54 27.4607 121.389 28.1501 121.088 28.74C120.79 29.33 120.367 29.789 119.82 30.1172C119.273 30.4453 118.627 30.6094 117.881 30.6094ZM117.891 29.1676C118.295 29.1676 118.634 29.0566 118.905 28.8345C119.177 28.6091 119.379 28.3075 119.512 27.9297C119.648 27.5518 119.716 27.1309 119.716 26.6669C119.716 26.1996 119.648 25.777 119.512 25.3991C119.379 25.018 119.177 24.7147 118.905 24.4893C118.634 24.2639 118.295 24.1513 117.891 24.1513C117.477 24.1513 117.132 24.2639 116.857 24.4893C116.585 24.7147 116.381 25.018 116.246 25.3991C116.113 25.777 116.047 26.1996 116.047 26.6669C116.047 27.1309 116.113 27.5518 116.246 27.9297C116.381 28.3075 116.585 28.6091 116.857 28.8345C117.132 29.0566 117.477 29.1676 117.891 29.1676ZM123.068 30.4602V22.8238H124.813V24.0966H124.892C125.032 23.6558 125.27 23.316 125.608 23.0774C125.95 22.8354 126.339 22.7145 126.777 22.7145C126.876 22.7145 126.987 22.7194 127.11 22.7294C127.236 22.736 127.34 22.7476 127.423 22.7642V24.4197C127.347 24.3932 127.226 24.37 127.06 24.3501C126.898 24.3269 126.74 24.3153 126.588 24.3153C126.26 24.3153 125.965 24.3866 125.703 24.5291C125.444 24.6683 125.24 24.8622 125.091 25.1108C124.942 25.3594 124.867 25.646 124.867 25.9709V30.4602H123.068ZM131.685 30.6094C130.919 30.6094 130.258 30.4503 129.701 30.1321C129.148 29.8106 128.722 29.3565 128.423 28.7699C128.125 28.1799 127.976 27.4855 127.976 26.6868C127.976 25.9013 128.125 25.2119 128.423 24.6186C128.725 24.022 129.146 23.558 129.686 23.2265C130.226 22.8918 130.861 22.7244 131.59 22.7244C132.061 22.7244 132.505 22.8006 132.923 22.9531C133.344 23.1023 133.715 23.3343 134.036 23.6491C134.361 23.964 134.616 24.365 134.802 24.8523C134.988 25.3362 135.08 25.9129 135.08 26.5824V27.1342H128.821V25.9211H133.355C133.352 25.5764 133.277 25.2699 133.132 25.0014C132.986 24.7296 132.782 24.5158 132.52 24.3601C132.261 24.2043 131.96 24.1264 131.615 24.1264C131.247 24.1264 130.924 24.2159 130.646 24.3949C130.367 24.5705 130.15 24.8025 129.994 25.0909C129.842 25.3759 129.764 25.6891 129.761 26.0305V27.0895C129.761 27.5336 129.842 27.9148 130.004 28.2329C130.167 28.5478 130.394 28.7898 130.686 28.9588C130.977 29.1245 131.319 29.2074 131.71 29.2074C131.971 29.2074 132.208 29.1709 132.421 29.098C132.633 29.0218 132.817 28.9107 132.972 28.7649C133.128 28.6191 133.246 28.4384 133.325 28.223L135.006 28.4119C134.9 28.856 134.698 29.2438 134.399 29.5753C134.104 29.9034 133.726 30.1586 133.266 30.3409C132.805 30.5199 132.278 30.6094 131.685 30.6094Z" fill="white"/>
</svg>
