<svg width="15" height="17" viewBox="0 0 15 17" fill="none" xmlns="http://www.w3.org/2000/svg">
<g id="Group">
<path id="Vector" d="M9.52583 6.63578L9.52587 6.63574C10.2281 5.93353 10.5789 5.08679 10.5789 4.09435C10.5789 3.1023 10.2282 2.25546 9.52579 1.55293C8.82338 0.850761 7.97647 0.5 6.98429 0.5C5.99181 0.5 5.14503 0.850765 4.44283 1.553C3.74057 2.25528 3.38968 3.10218 3.38968 4.09435C3.38968 5.08674 3.74054 5.93361 4.44289 6.63586L9.52583 6.63578ZM9.52583 6.63578C8.82361 7.33812 7.97661 7.68892 6.98429 7.68892M9.52583 6.63578L6.98429 7.68892M0.91202 11.0704C0.813224 11.3792 0.729434 11.7209 0.66387 12.0862L0.91202 11.0704ZM0.91202 11.0704C1.01111 10.7609 1.14637 10.4536 1.31451 10.1576L1.31453 10.1576C1.48449 9.8583 1.68073 9.60442 1.89465 9.39959L0.91202 11.0704ZM0.838375 16.2119C1.38778 16.7348 2.11473 17 2.99875 17H11.1843C12.0683 17 12.795 16.7349 13.3446 16.212C13.901 15.6825 14.1831 14.964 14.1831 14.0762M0.838375 16.2119L1.18321 15.8499C1.18316 15.8498 1.18311 15.8498 1.18306 15.8497M0.838375 16.2119L1.18306 15.8497M0.838375 16.2119L0.532777 13.107C0.510723 13.4295 0.499792 13.7527 0.500003 14.076L0.500003 14.0763C0.500003 14.8499 0.741541 15.4291 1.18306 15.8497M1.18306 15.8497C1.62425 16.2696 2.22031 16.5 2.99875 16.5H11.1843C11.9628 16.5 12.5586 16.2697 12.9999 15.8498L12.9999 15.8497C13.4414 15.4296 13.683 14.8505 13.6831 14.0764L14.1831 14.0762M14.1831 14.0762H13.6831M14.1831 14.0762C14.1829 13.7337 14.1714 13.3958 14.1487 13.0721C14.1257 12.7408 14.0793 12.3795 14.0109 11.9979L13.5188 12.0861C13.5188 12.0862 13.5188 12.0862 13.5188 12.0862M13.6831 14.0762L12.8682 10.1578C13.0364 10.4537 13.1716 10.7611 13.2705 11.0703L13.2706 11.0704C13.3695 11.3791 13.4532 11.7209 13.5188 12.0862M13.6831 14.0762C13.6829 13.7446 13.6718 13.4185 13.6499 13.1071L13.6499 13.1067C13.6284 12.7962 13.5845 12.453 13.5188 12.0862M13.6831 14.0762L13.5188 12.0862M12.2877 9.39956L12.2876 9.39946C12.0745 9.19558 11.8075 9.02561 11.4873 8.8987C11.179 8.77681 10.8291 8.71177 10.4439 8.71177C10.4435 8.71177 10.443 8.71176 10.4425 8.71175C10.4267 8.7115 10.3622 8.71048 10.0512 8.913C9.81953 9.06386 9.58717 9.21365 9.35413 9.36238L9.35384 9.36256C9.08254 9.53545 8.73748 9.68411 8.34181 9.81191M12.2877 9.39956L8.34181 9.81191M12.2877 9.39956C12.5016 9.60402 12.6977 9.85798 12.8681 10.1577L12.2877 9.39956ZM8.34181 9.81191C7.93107 9.94479 7.51017 10.0134 7.09114 10.0134C6.67202 10.0134 6.25118 9.94475 5.8401 9.81188M8.34181 9.81191L5.8401 9.81188M5.8401 9.81188C5.44497 9.6842 5.09982 9.53556 4.82864 9.36257L4.82831 9.36236C4.56939 9.19691 4.3347 9.04565 4.13072 8.91275L4.13064 8.9127C3.82015 8.71032 3.75559 8.71134 3.73979 8.71159C3.7393 8.71159 3.73885 8.7116 3.73845 8.7116C3.35299 8.7116 3.00327 8.77679 2.69499 8.89891L2.69489 8.89895C2.37521 9.02551 2.10809 9.19539 1.89476 9.39948L5.8401 9.81188ZM6.98429 7.68892C5.99228 7.68892 5.14536 7.33807 4.44292 6.63589L6.98429 7.68892ZM0.532787 13.1068C0.55433 12.7956 0.598185 12.4523 0.663866 12.0862L0.532787 13.1068Z" stroke="#707070"/>
</g>
</svg>
