<svg width="16" height="15" viewBox="0 0 16 15" fill="none" xmlns="http://www.w3.org/2000/svg">
<path id="Vector" d="M5.07446 9.50013C5.07508 9.50013 5.07643 9.5 5.07701 9.5H13.4429C13.5432 9.49998 13.6407 9.46635 13.7207 9.40419C13.8008 9.34203 13.859 9.25474 13.8865 9.1555L15.7322 2.5055C15.7519 2.43482 15.7553 2.36042 15.7422 2.28815C15.7292 2.21588 15.7 2.14772 15.657 2.08902C15.614 2.03031 15.5583 1.98269 15.4944 1.94989C15.4305 1.91709 15.36 1.90001 15.2886 1.9H4.01032L3.68049 0.371957C3.6577 0.266453 3.60064 0.172102 3.51874 0.104479C3.43683 0.0368554 3.33498 1.45973e-06 3.22999 0L0.461426 0C0.206565 0 0 0.212642 0 0.475C0 0.737358 0.206565 0.95 0.461426 0.95H2.85989C2.91828 1.22075 4.43834 8.2624 4.52582 8.66748C4.03545 8.88693 3.69141 9.39031 3.69141 9.975C3.69141 10.7607 4.31243 11.4 5.07569 11.4H13.4429C13.6978 11.4 13.9043 11.1874 13.9043 10.925C13.9043 10.6626 13.6978 10.45 13.4429 10.45H5.07569C4.82129 10.45 4.61426 10.2369 4.61426 9.975C4.61426 9.7135 4.82058 9.50073 5.07446 9.50013ZM14.6769 2.85L13.0948 8.55H5.44582L4.21535 2.85H14.6769ZM4.61426 12.825C4.61426 13.6107 5.23528 14.25 5.99854 14.25C6.76181 14.25 7.38282 13.6107 7.38282 12.825C7.38282 12.0393 6.76181 11.4 5.99854 11.4C5.23528 11.4 4.61426 12.0393 4.61426 12.825ZM5.99854 12.35C6.25294 12.35 6.45997 12.5631 6.45997 12.825C6.45997 13.0869 6.25294 13.3 5.99854 13.3C5.74414 13.3 5.53712 13.0869 5.53712 12.825C5.53712 12.5631 5.74414 12.35 5.99854 12.35ZM11.1358 12.825C11.1358 13.6107 11.7568 14.25 12.52 14.25C13.2833 14.25 13.9043 13.6107 13.9043 12.825C13.9043 12.0393 13.2833 11.4 12.52 11.4C11.7568 11.4 11.1358 12.0393 11.1358 12.825ZM12.52 12.35C12.7744 12.35 12.9815 12.5631 12.9815 12.825C12.9815 13.0869 12.7744 13.3 12.52 13.3C12.2656 13.3 12.0586 13.0869 12.0586 12.825C12.0586 12.5631 12.2656 12.35 12.52 12.35Z" fill="#707070"/>
</svg>
