<svg width="19" height="19" viewBox="0 0 19 19" fill="none" xmlns="http://www.w3.org/2000/svg">
<g id="Search 2">
<path id="Vector" d="M15.4352 14.3745C15.1423 14.0816 14.6675 14.0816 14.3746 14.3745C14.0817 14.6674 14.0817 15.1422 14.3746 15.4351L15.4352 14.3745ZM17.7005 18.7611C17.9934 19.054 18.4683 19.054 18.7612 18.7611C19.0541 18.4682 19.0541 17.9933 18.7612 17.7004L17.7005 18.7611ZM14.3746 15.4351L17.7005 18.7611L18.7612 17.7004L15.4352 14.3745L14.3746 15.4351ZM8.25282 14.9862C4.53399 14.9862 1.51929 11.9715 1.51929 8.2527H0.0192871C0.0192871 12.8 3.70557 16.4862 8.25282 16.4862V14.9862ZM14.9864 8.2527C14.9864 11.9715 11.9716 14.9862 8.25282 14.9862V16.4862C12.8001 16.4862 16.4864 12.8 16.4864 8.2527H14.9864ZM8.25282 1.51917C11.9716 1.51917 14.9864 4.53387 14.9864 8.2527H16.4864C16.4864 3.70544 12.8001 0.019165 8.25282 0.019165V1.51917ZM8.25282 0.019165C3.70557 0.019165 0.0192871 3.70544 0.0192871 8.2527H1.51929C1.51929 4.53387 4.53399 1.51917 8.25282 1.51917V0.019165Z" fill="white"/>
</g>
</svg>
