<svg width="13" height="13" viewBox="0 0 13 13" fill="none" xmlns="http://www.w3.org/2000/svg">
<g id="Frame" clip-path="url(#clip0_1_728)">
<g id="Group">
<path id="Vector" d="M12.7687 4.78781C12.7303 4.6689 12.6578 4.5639 12.5602 4.48592C12.4625 4.40794 12.3441 4.36042 12.2197 4.34928L8.75611 4.03477L7.38656 0.829139C7.28554 0.594219 7.05556 0.4422 6.80004 0.4422C6.54452 0.4422 6.31452 0.594243 6.21355 0.829725L4.84397 4.03479L1.37989 4.34928C1.25558 4.36067 1.13734 4.40829 1.03984 4.48625C0.942337 4.5642 0.869858 4.66905 0.831389 4.78781C0.75238 5.03082 0.825342 5.29733 1.01789 5.46534L3.63592 7.76133L2.86392 11.162C2.80743 11.412 2.90447 11.6705 3.11194 11.8204C3.22343 11.901 3.35391 11.942 3.48547 11.942C3.59891 11.942 3.71142 11.9114 3.81243 11.851L6.80004 10.0654L9.78657 11.851C10.0051 11.9825 10.2806 11.9705 10.4876 11.8204C10.5889 11.7471 10.6665 11.6456 10.7106 11.5285C10.7547 11.4114 10.7634 11.2839 10.7356 11.162L9.96364 7.76133L12.5817 5.4658C12.6758 5.38355 12.7438 5.27544 12.777 5.1549C12.8103 5.03437 12.8074 4.90671 12.7687 4.78781Z" fill="#FFC107"/>
</g>
</g>
<defs>
<clipPath id="clip0_1_728">
<rect width="12" height="12" fill="white" transform="translate(0.799988 0.419067)"/>
</clipPath>
</defs>
</svg>
